<?xml version="1.0" standalone="no"?>
<!DOCTYPE svg PUBLIC "-//W3C//DTD SVG 20010904//EN"
 "http://www.w3.org/TR/2001/REC-SVG-20010904/DTD/svg10.dtd">
<svg version="1.0" xmlns="http://www.w3.org/2000/svg"
 width="612.000000pt" height="360.000000pt" viewBox="0 0 612.000000 360.000000"
 preserveAspectRatio="xMidYMid meet">

<g transform="translate(0.000000,360.000000) scale(0.100000,-0.100000)"
fill="#000000" stroke="none">
<path d="M1115 3590 c-3 -6 1 -7 9 -4 18 7 21 14 7 14 -6 0 -13 -4 -16 -10z"/>
<path d="M1189 3591 c9 -6 10 -10 2 -12 -9 -3 -9 -12 0 -37 11 -33 24 -41 32
-19 6 17 28 -4 30 -31 1 -16 5 -19 18 -11 29 15 33 10 13 -12 -19 -21 -19 -22
3 -15 22 7 56 -4 54 -17 -5 -34 0 -49 15 -43 8 3 13 2 10 -2 -2 -4 9 -14 25
-21 16 -7 27 -16 25 -20 -3 -4 3 -7 12 -8 59 -4 63 -7 57 -31 l-6 -23 23 20
c33 31 48 27 41 -12 -3 -23 0 -37 11 -46 9 -7 16 -10 16 -6 0 4 7 2 15 -5 13
-10 15 -9 15 9 0 12 -4 20 -9 17 -5 -3 -11 1 -15 9 -7 19 3 19 24 0 9 -8 33
-16 53 -17 23 -2 35 -7 33 -14 -6 -17 56 -27 66 -12 5 8 7 1 6 -17 -1 -16 -7
-34 -13 -38 -6 -5 -2 -6 9 -3 11 4 23 1 28 -6 6 -10 10 -10 17 2 6 8 14 11 18
6 4 -5 2 -11 -4 -13 -7 -3 -13 -9 -13 -14 0 -14 28 -11 33 4 3 8 10 5 22 -10
9 -13 27 -23 39 -23 17 0 25 -7 28 -25 3 -13 1 -22 -4 -19 -5 3 -25 3 -44 0
-26 -5 -34 -12 -34 -28 0 -17 2 -18 15 -8 9 7 18 10 22 7 3 -4 14 -2 24 3 10
6 20 6 23 1 3 -5 14 -7 24 -5 21 5 32 -3 55 -38 17 -27 57 -39 57 -18 0 6 -7
10 -16 10 -9 0 -25 9 -34 20 -15 17 -16 26 -7 55 6 19 14 35 18 35 5 0 6 -7 3
-15 -4 -10 0 -15 14 -15 15 0 19 -5 15 -20 -6 -22 7 -26 25 -8 9 9 12 9 12 -1
0 -8 7 -10 20 -6 23 7 27 -10 4 -19 -8 -3 -12 -10 -9 -16 3 -5 -1 -10 -9 -10
-9 0 -16 5 -16 10 0 6 -5 10 -11 10 -8 0 -8 -4 1 -14 13 -17 10 -57 -5 -68 -6
-5 -6 -8 1 -8 6 0 17 7 24 15 18 21 33 19 27 -5 -4 -17 0 -20 24 -20 20 0 29
5 29 16 0 8 6 22 14 29 12 12 13 9 9 -25 -4 -26 -2 -40 6 -40 6 0 11 14 11 30
0 30 14 40 24 18 3 -7 3 -3 0 10 -3 12 -1 22 5 22 6 0 11 -11 11 -25 0 -14 5
-25 10 -25 6 0 10 7 10 15 0 8 5 15 10 15 6 0 10 -9 10 -20 0 -11 4 -20 9 -20
5 0 11 -10 13 -23 4 -20 1 -22 -29 -19 -19 3 -33 10 -33 18 0 7 -5 16 -11 20
-8 4 -9 0 -4 -15 4 -14 2 -21 -7 -21 -10 0 -9 -3 2 -10 8 -5 27 -10 43 -10 15
0 27 -4 27 -10 0 -5 8 -10 19 -10 21 0 45 -25 37 -38 -3 -5 6 -9 19 -9 18 0
25 5 25 18 0 23 2 23 60 5 45 -15 40 -20 -15 -16 -16 1 -28 -1 -24 -4 3 -3 19
-6 37 -8 18 -1 32 -5 32 -9 0 -11 84 -17 97 -7 7 5 14 5 18 -2 3 -5 -1 -13 -9
-16 -9 -3 -16 -11 -16 -17 0 -8 3 -8 11 0 6 6 18 9 27 6 10 -4 13 -2 8 5 -4 7
-2 12 4 12 7 0 10 6 7 14 -3 8 0 19 6 25 19 15 41 -3 34 -28 -3 -12 -1 -24 4
-27 5 -3 9 2 9 10 0 9 5 16 10 16 6 0 10 -7 10 -16 0 -15 2 -15 25 0 24 16 30
13 25 -9 -1 -5 9 0 22 11 19 18 43 23 78 15 3 -1 -4 -8 -14 -16 -18 -13 -18
-15 -3 -15 10 0 22 12 27 26 7 16 14 23 22 17 7 -4 23 -6 36 -4 13 1 22 -3 22
-11 1 -9 4 -9 13 3 7 9 18 14 24 12 17 -6 43 21 43 42 0 16 2 16 25 1 28 -18
35 -19 54 -7 10 7 11 13 1 32 -11 23 -10 23 4 5 9 -11 16 -16 16 -10 0 5 7 0
15 -10 15 -19 15 -19 15 1 0 12 5 23 10 25 6 2 1 9 -11 17 -19 11 -21 11 -16
-4 4 -9 3 -14 -3 -10 -13 8 -13 35 -1 35 6 0 13 -4 16 -10 3 -5 12 -10 18 -10
8 0 9 2 1 8 -16 10 -13 40 3 47 10 3 13 14 8 34 -4 21 -2 30 9 34 9 4 16 14
16 23 0 10 5 14 15 10 18 -7 20 10 3 18 -7 3 -2 3 12 0 34 -9 35 -10 23 -37
-7 -15 -8 -29 -2 -38 8 -12 13 -6 11 12 -1 4 6 6 16 5 9 0 16 5 14 12 -1 7 5
12 15 10 12 -2 21 7 29 31 6 19 19 40 29 47 9 7 14 18 10 23 -3 6 1 14 9 17 9
3 16 17 16 30 0 15 6 24 15 24 8 0 15 4 15 8 0 5 14 24 30 42 17 18 30 37 30
42 0 22 21 4 27 -22 3 -16 9 -30 13 -30 12 0 19 37 9 47 -22 22 50 118 106
143 24 11 47 25 50 31 4 5 19 9 33 8 28 -3 92 20 92 33 0 12 48 9 55 -3 4 -6
13 -8 21 -5 7 3 16 1 19 -5 4 -5 10 -7 15 -4 12 8 50 -15 73 -43 18 -22 20
-22 45 -6 17 11 27 13 30 6 2 -6 10 -8 18 -5 9 3 14 -1 14 -13 0 -13 3 -15 8
-7 10 16 44 12 59 -7 10 -13 12 -13 19 3 4 12 0 23 -12 32 -26 20 -9 19 22 -2
14 -9 38 -16 55 -15 31 1 35 -8 19 -38 -11 -21 7 -41 19 -22 3 6 18 9 31 7 14
-2 34 -5 45 -7 31 -5 44 -27 34 -62 -12 -40 -12 -41 6 -26 9 7 19 10 23 6 4
-4 0 -12 -9 -16 -25 -14 -13 -57 17 -63 20 -3 22 -2 13 9 -9 11 -7 14 9 14 12
0 24 5 27 10 11 17 32 11 38 -11 5 -17 3 -18 -11 -7 -9 7 -14 9 -10 4 4 -4 3
-18 -2 -31 -6 -16 -4 -29 5 -41 9 -12 14 -14 15 -6 0 7 5 10 12 6 7 -4 8 -3 4
5 -4 6 -11 9 -15 7 -4 -3 -8 5 -8 17 -1 12 1 17 5 12 4 -6 15 -16 25 -24 16
-13 17 -12 7 14 -23 59 47 102 71 43 6 -15 15 -28 20 -28 5 0 27 16 48 35 22
20 41 31 43 25 2 -6 9 -1 16 11 8 12 9 18 3 14 -7 -4 -11 4 -11 21 0 15 3 24
6 21 4 -3 16 -2 26 4 15 8 17 14 9 22 -8 8 -14 8 -23 -1 -16 -16 -33 -15 -20
1 7 8 7 18 2 27 -6 10 -4 23 6 37 9 14 12 33 8 48 -4 15 -2 25 5 25 6 0 11
-11 11 -25 0 -14 5 -25 11 -25 6 0 9 -6 6 -12 -2 -7 -9 -12 -15 -11 -6 2 -9
-4 -6 -12 4 -8 1 -15 -5 -15 -6 0 -11 -4 -11 -10 0 -5 9 -10 19 -10 25 0 37
-18 22 -33 -6 -6 -11 -24 -11 -39 0 -15 -4 -28 -9 -28 -5 0 -12 -8 -15 -17 -5
-13 0 -11 18 6 15 14 26 20 26 14 0 -6 7 -13 14 -16 11 -4 13 -1 9 11 -3 9 4
5 16 -10 l22 -28 57 60 c31 33 63 60 72 60 8 0 28 7 44 15 26 14 31 14 47 -1
10 -9 21 -25 25 -36 4 -15 12 -18 30 -14 13 4 33 2 44 -4 14 -8 20 -8 20 0 0
6 8 10 18 8 9 -1 22 1 29 5 6 4 19 4 29 0 16 -6 16 -7 0 -19 -10 -7 -13 -15
-8 -18 18 -11 1 -44 -29 -56 -16 -7 -29 -17 -29 -23 0 -6 -3 -7 -7 -4 -3 4
-12 -1 -20 -11 -13 -16 -14 -15 -8 6 10 35 -3 26 -22 -15 -9 -21 -19 -42 -21
-47 -3 -5 0 -6 7 -2 6 4 11 2 11 -4 0 -6 4 -9 10 -5 5 3 7 11 4 18 -2 7 6 13
22 14 15 0 30 7 35 15 5 7 9 9 9 4 0 -5 6 -4 13 2 6 6 15 11 19 11 15 1 72
-35 76 -48 3 -8 0 -11 -7 -7 -14 9 -14 0 -1 -25 12 -22 35 -26 27 -4 -4 8 -1
17 5 21 6 4 8 3 4 -4 -12 -20 12 -22 37 -2 14 11 29 20 34 20 13 0 53 44 53
57 0 6 7 16 15 23 8 7 15 25 15 41 0 16 8 33 18 39 15 10 14 11 -6 6 -22 -4
-23 -3 -9 17 16 25 65 52 75 42 4 -4 -3 -15 -16 -26 -13 -10 -21 -23 -18 -28
3 -5 -1 -14 -9 -21 -8 -7 -15 -21 -15 -32 0 -11 -7 -26 -15 -34 -20 -20 -19
-35 2 -27 11 4 14 3 9 -5 -4 -7 -3 -12 3 -12 6 0 20 22 32 50 12 27 29 52 39
55 9 3 31 28 49 55 33 51 60 77 48 47 -12 -33 19 -17 65 31 41 45 145 122 163
122 4 0 4 -7 1 -16 -5 -14 -4 -15 8 -5 8 7 23 11 33 9 11 -2 17 2 15 11 -2 8
3 11 12 8 8 -3 16 -2 18 3 2 5 17 12 33 16 29 7 29 6 13 -12 -13 -15 -14 -22
-5 -35 21 -28 37 -10 37 42 l0 49 -2472 0 c-1392 0 -2467 -4 -2459 -9z m2861
-125 c0 -3 -4 -8 -10 -11 -5 -3 -10 -1 -10 4 0 6 5 11 10 11 6 0 10 -2 10 -4z
m-2649 -46 c27 0 39 -4 39 -14 0 -12 -6 -12 -32 -4 -18 6 -39 12 -45 14 -7 2
-13 9 -12 16 0 10 2 10 6 1 2 -8 22 -13 44 -13z m3088 -106 c-14 -18 -24 -11
-15 11 3 9 11 13 16 10 8 -5 7 -11 -1 -21z m59 -27 c2 -9 -1 -17 -7 -17 -6 0
-11 7 -11 16 0 8 -4 12 -10 9 -5 -3 -10 -1 -10 5 0 18 34 7 38 -13z m-2788
-28 c0 -5 -10 -9 -21 -9 -18 0 -19 2 -9 15 12 15 30 12 30 -6z m3674 -51 c-5
-40 -44 -70 -44 -33 0 8 5 15 12 15 9 0 9 3 0 12 -8 8 -15 8 -27 -2 -13 -11
-15 -9 -15 10 0 16 4 20 15 16 12 -4 40 2 61 13 1 1 0 -13 -2 -31z m-2122 -90
c-6 -6 -15 -8 -19 -4 -4 4 -1 11 7 16 19 12 27 3 12 -12z m2108 12 c0 -5 -5
-10 -11 -10 -5 0 -7 5 -4 10 3 6 8 10 11 10 2 0 4 -4 4 -10z m-3437 -40 c-3
-11 -10 -23 -16 -27 -7 -4 -8 0 -4 11 4 10 7 22 7 27 0 5 4 9 9 9 5 0 7 -9 4
-20z m131 -1 c-7 -11 -34 -12 -34 -1 0 14 11 21 26 15 8 -3 11 -9 8 -14z m50
-74 c4 -10 -1 -15 -14 -15 -20 0 -26 11 -13 23 10 11 20 8 27 -8z m232 -132
c-7 -7 -26 7 -26 19 0 6 6 6 15 -2 9 -7 13 -15 11 -17z m149 -93 c3 -5 -1 -10
-9 -10 -9 0 -16 5 -16 10 0 6 4 10 9 10 6 0 13 -4 16 -10z"/>
<path d="M1145 3580 c-3 -5 -1 -10 4 -10 6 0 11 5 11 10 0 6 -2 10 -4 10 -3 0
-8 -4 -11 -10z"/>
<path d="M1300 3396 c0 -2 7 -9 15 -16 9 -7 15 -8 15 -2 0 5 -7 12 -15 16 -8
3 -15 4 -15 2z"/>
<path d="M4260 3315 c-11 -20 -11 -27 0 -40 8 -9 8 -15 2 -15 -6 0 -16 8 -22
18 -11 16 -11 16 -6 -1 3 -10 6 -23 6 -28 0 -19 42 -1 65 27 l24 29 1 -28 c0
-17 4 -26 11 -22 6 4 8 13 5 20 -2 7 0 17 6 23 6 6 8 19 4 29 -6 15 -8 15 -17
3 -5 -10 -12 -11 -16 -5 -16 20 -50 15 -63 -10z"/>
<path d="M1513 3299 c-15 -15 5 -66 40 -100 17 -16 26 -35 25 -49 -2 -13 3
-25 10 -27 10 -4 12 6 10 38 -3 37 -8 46 -33 59 -16 8 -32 16 -34 17 -2 2 -4
19 -3 38 2 39 1 40 -15 24z"/>
<path d="M5100 3296 c0 -9 7 -16 16 -16 9 0 14 5 12 12 -6 18 -28 21 -28 4z"/>
<path d="M5130 3270 c-13 -8 -13 -10 2 -10 9 0 20 5 23 10 8 13 -5 13 -25 0z"/>
<path d="M1480 3250 c0 -5 5 -10 10 -10 6 0 10 5 10 10 0 6 -4 10 -10 10 -5 0
-10 -4 -10 -10z"/>
<path d="M4805 3190 c4 -59 33 -165 42 -156 5 5 -1 32 -36 171 -10 39 -11 39
-6 -15z"/>
<path d="M5104 3228 c-2 -3 -13 -4 -24 -1 -40 11 -12 -29 30 -42 14 -4 29 -13
33 -19 4 -6 5 1 1 17 -3 15 -2 33 4 40 8 9 4 12 -15 12 -14 0 -27 -3 -29 -7z"/>
<path d="M1495 3221 c-3 -5 -1 -12 5 -16 5 -3 10 1 10 9 0 18 -6 21 -15 7z"/>
<path d="M4770 3170 c0 -5 5 -10 10 -10 6 0 10 5 10 10 0 6 -4 10 -10 10 -5 0
-10 -4 -10 -10z"/>
<path d="M5045 3170 c-11 -5 -14 -9 -7 -9 6 -1 12 -8 12 -16 0 -13 3 -13 20
-3 17 11 22 10 30 -2 5 -8 12 -12 15 -8 6 6 -34 49 -44 47 -3 0 -15 -4 -26 -9z"/>
<path d="M1630 3155 c0 -8 -4 -15 -9 -15 -10 0 -24 -31 -16 -38 2 -3 11 1 20
8 8 7 21 10 29 7 8 -3 17 -1 20 6 2 7 5 5 5 -5 1 -22 14 -29 31 -16 12 8 12 9
-2 4 -10 -3 -18 -1 -18 3 0 13 25 20 48 15 18 -5 40 22 27 34 -3 3 -5 1 -5 -4
0 -16 -77 -14 -90 2 -16 18 -40 18 -40 -1z"/>
<path d="M4323 3145 c-7 -8 -9 -16 -4 -19 5 -3 12 1 15 10 8 22 4 25 -11 9z"/>
<path d="M1837 3133 c-4 -3 -7 -13 -7 -22 1 -13 3 -13 11 2 11 19 8 33 -4 20z"/>
<path d="M1536 3103 c-6 -14 -5 -15 5 -6 7 7 10 15 7 18 -3 3 -9 -2 -12 -12z"/>
<path d="M1750 3081 c-7 -15 -7 -21 0 -21 12 0 25 28 17 36 -3 3 -10 -4 -17
-15z"/>
<path d="M4745 3090 c-3 -5 -1 -10 4 -10 6 0 11 5 11 10 0 6 -2 10 -4 10 -3 0
-8 -4 -11 -10z"/>
<path d="M1716 3077 c3 -10 9 -15 12 -12 3 3 0 11 -7 18 -10 9 -11 8 -5 -6z"/>
<path d="M1797 3070 c-22 -26 -21 -30 2 -30 21 0 37 28 23 42 -4 4 -15 -1 -25
-12z"/>
<path d="M4299 3073 c-1 -5 -3 -18 -4 -31 -2 -22 -2 -22 15 -5 9 10 13 20 8
21 -4 2 -6 8 -2 13 3 5 0 9 -5 9 -6 0 -12 -3 -12 -7z"/>
<path d="M4860 2992 c0 -13 -6 -22 -12 -21 -7 1 -20 0 -28 -4 -43 -16 -136
-41 -146 -39 -7 1 -14 -4 -17 -12 -8 -20 33 -45 58 -35 33 13 35 11 35 -31 0
-23 5 -40 11 -40 8 0 10 16 6 49 -5 44 -4 48 13 44 21 -6 63 14 55 26 -4 7 16
21 29 21 1 0 3 -29 3 -64 1 -61 0 -65 -25 -75 -15 -6 -38 -12 -52 -15 -14 -2
-38 -9 -53 -15 -15 -6 -41 -12 -58 -13 -21 -2 -29 -7 -26 -18 3 -16 3 -16 86
6 31 8 63 17 71 19 8 2 24 7 36 10 18 6 24 -2 44 -57 21 -55 24 -60 30 -38 4
14 3 33 -2 42 -12 25 -10 38 7 38 8 0 15 4 15 10 0 5 -6 7 -14 4 -18 -7 -26
57 -12 96 7 21 3 37 -23 80 -23 41 -31 49 -31 32z"/>
<path d="M4676 2965 c4 -8 10 -12 15 -9 11 6 2 24 -11 24 -5 0 -7 -7 -4 -15z"/>
<path d="M1868 2943 c7 -3 16 -2 19 1 4 3 -2 6 -13 5 -11 0 -14 -3 -6 -6z"/>
<path d="M3240 2910 c0 -5 5 -10 10 -10 6 0 10 5 10 10 0 6 -4 10 -10 10 -5 0
-10 -4 -10 -10z"/>
<path d="M2275 2900 c-3 -5 -1 -10 4 -10 6 0 11 5 11 10 0 6 -2 10 -4 10 -3 0
-8 -4 -11 -10z"/>
<path d="M2110 2890 c0 -5 7 -10 15 -10 8 0 15 5 15 10 0 6 -7 10 -15 10 -8 0
-15 -4 -15 -10z"/>
<path d="M4810 2853 c0 -35 3 -44 10 -33 13 20 13 80 0 80 -5 0 -10 -21 -10
-47z"/>
<path d="M4780 2849 c0 -24 4 -38 10 -34 6 3 10 22 10 41 0 19 -4 34 -10 34
-5 0 -10 -18 -10 -41z"/>
<path d="M2188 2873 c7 -3 16 -2 19 1 4 3 -2 6 -13 5 -11 0 -14 -3 -6 -6z"/>
<path d="M3190 2870 c0 -5 5 -10 10 -10 6 0 10 5 10 10 0 6 -4 10 -10 10 -5 0
-10 -4 -10 -10z"/>
<path d="M4694 2860 c-12 -12 -6 -70 7 -70 5 0 9 8 10 18 0 10 3 12 6 5 10
-25 23 -12 23 22 0 38 -19 49 -21 13 l-1 -23 -6 23 c-5 16 -10 20 -18 12z"/>
<path d="M2650 2781 c0 -12 5 -21 10 -21 6 0 10 6 10 14 0 8 -4 18 -10 21 -5
3 -10 -3 -10 -14z"/>
<path d="M4925 2740 c3 -5 8 -10 11 -10 2 0 4 5 4 10 0 6 -5 10 -11 10 -5 0
-7 -4 -4 -10z"/>
<path d="M4810 2720 c0 -22 8 -25 30 -10 13 9 13 11 0 20 -22 15 -30 12 -30
-10z"/>
<path d="M4740 2699 c0 -22 13 -25 29 -5 9 11 7 15 -9 19 -15 4 -20 0 -20 -14z"/>
<path d="M4670 2681 c0 -14 5 -18 20 -14 24 6 26 19 4 27 -23 9 -24 8 -24 -13z"/>
<path d="M4930 2662 c0 -28 -2 -30 -97 -56 -54 -14 -105 -28 -113 -29 -80 -16
-140 -33 -140 -40 0 -4 -5 -5 -10 -2 -8 5 -7 12 1 23 7 10 1 6 -13 -8 -17 -17
-22 -29 -16 -37 11 -14 1 -53 -13 -53 -5 0 -9 -4 -9 -10 0 -5 6 -7 14 -4 8 3
16 0 19 -8 2 -7 2 -3 0 10 -2 14 2 25 12 28 8 4 15 15 15 26 0 10 5 16 10 13
13 -8 13 -62 1 -69 -5 -4 -11 -2 -13 4 -1 6 -3 -77 -3 -182 0 -190 0 -193 -22
-196 -16 -2 -21 1 -18 15 2 10 4 64 4 121 1 66 5 101 11 97 6 -4 10 11 10 37
0 31 -3 39 -10 28 -6 -10 -10 -11 -10 -2 0 6 -11 12 -25 12 -28 0 -32 -12 -10
-30 20 -17 22 -266 3 -272 -9 -3 -8 -9 4 -21 12 -13 14 -25 8 -53 -5 -23 -4
-47 2 -63 10 -23 12 -24 16 -6 2 11 8 24 13 29 5 6 9 -57 9 -157 l0 -166 33 6
c17 3 35 10 38 16 4 5 9 5 13 -2 8 -12 26 -6 26 10 0 5 -10 9 -22 9 -22 0 -23
2 -21 101 1 55 4 103 7 107 5 5 8 -37 9 -160 0 -21 4 -38 9 -38 4 0 9 39 10
88 1 107 2 109 11 118 4 4 7 -47 7 -113 0 -66 3 -123 7 -126 3 -4 12 -2 20 4
9 9 13 8 13 0 0 -18 28 -13 33 7 4 16 5 16 6 0 1 -25 31 -23 31 2 0 17 -7 23
-30 22 -3 0 -18 -3 -35 -6 l-30 -7 3 103 c4 138 22 154 22 20 0 -61 4 -102 10
-102 6 0 10 42 10 105 0 63 4 105 10 105 6 0 10 -18 11 -40 2 -124 5 -160 14
-162 6 -2 12 41 16 107 5 112 9 96 14 -55 4 -112 3 -110 16 -110 5 0 9 12 8
28 -5 68 2 253 10 248 4 -3 9 -58 9 -123 1 -170 1 -168 11 -158 5 6 11 19 13
29 1 11 13 21 26 22 18 3 22 -1 22 -21 0 -17 -6 -25 -17 -25 -25 0 -10 -10 23
-15 60 -9 106 -24 123 -39 10 -9 19 -16 22 -16 2 0 3 75 1 166 -2 91 0 173 4
182 4 10 6 101 5 205 -2 161 0 188 13 193 9 3 13 10 10 15 -3 5 -10 7 -15 4
-5 -4 -9 1 -9 10 0 9 -4 14 -9 10 -5 -3 -13 0 -17 6 -4 7 -3 9 4 5 18 -11 24
13 17 61 -7 50 -13 52 -17 6 -4 -56 -15 -25 -13 36 2 52 -1 63 -21 82 -13 13
-24 28 -24 36 0 7 -4 13 -10 13 -5 0 -10 7 -10 15 0 8 -4 15 -9 15 -5 0 -11
10 -13 22 -5 34 -28 35 -28 0z m20 -62 c0 -5 -2 -10 -4 -10 -3 0 -8 5 -11 10
-3 6 -1 10 4 10 6 0 11 -4 11 -10z m-61 -17 c-5 -28 2 -36 15 -18 21 29 41 13
40 -34 0 -22 3 -41 7 -41 10 0 -1 -39 -13 -46 -5 -3 -7 6 -4 21 4 21 1 28 -14
32 -11 3 -20 11 -20 19 0 7 -4 15 -9 18 -4 3 -8 -5 -7 -17 1 -12 -3 -25 -8
-29 -6 -4 -9 -44 -8 -92 2 -46 -1 -93 -7 -103 -5 -10 -12 -30 -15 -44 -9 -44
-66 -103 -66 -68 0 6 -12 26 -26 44 -21 27 -24 41 -19 67 l6 33 -15 -29 c-18
-32 -21 -56 -6 -56 5 0 22 -18 37 -41 28 -43 23 -58 -22 -59 -26 -1 -112 -24
-120 -32 -4 -3 24 0 62 8 37 8 94 19 126 25 31 6 57 15 57 20 0 6 -7 6 -19 -1
-46 -24 -54 -11 -17 30 24 27 36 51 37 73 1 18 5 6 9 -28 11 -95 7 -98 -106
-119 -55 -10 -115 -20 -135 -23 l-37 -5 8 44 c5 25 5 47 -1 52 -5 6 -9 17 -9
25 0 9 9 1 20 -16 25 -41 36 -43 15 -3 -20 39 -20 89 2 97 24 9 55 42 48 52
-2 5 2 15 11 22 13 10 17 10 24 0 6 -10 10 -9 18 5 9 16 15 17 46 7 20 -6 34
-7 31 -2 -4 5 -20 13 -38 19 l-32 10 31 -3 c17 -2 36 3 44 11 8 9 15 10 19 4
8 -13 26 7 27 31 2 21 -15 23 -23 1 -5 -13 -7 -13 -14 -2 -6 9 -9 10 -9 1 0
-7 -7 -10 -17 -6 -11 4 -14 3 -9 -5 4 -7 1 -12 -9 -12 -9 0 -13 4 -10 10 3 6
-1 7 -9 4 -9 -3 -13 -10 -10 -15 3 -5 -2 -9 -11 -9 -9 0 -13 5 -10 10 3 6 1
10 -5 10 -6 0 -13 -7 -16 -15 -4 -8 -13 -15 -21 -15 -8 0 -11 5 -8 10 3 6 1
10 -4 10 -6 0 -11 -7 -11 -15 0 -8 -7 -15 -16 -15 -8 0 -12 5 -9 10 3 6 1 10
-4 10 -6 0 -11 -7 -11 -15 0 -8 -6 -15 -13 -15 -8 0 -13 12 -13 33 1 24 5 32
19 31 13 -1 17 7 19 40 l1 41 4 -37 c5 -49 32 -41 34 11 l2 36 6 -40 c6 -38 7
-39 19 -18 6 12 13 30 13 40 1 10 5 2 9 -17 l7 -35 16 35 c16 34 16 35 17 8 0
-43 19 -33 27 15 l8 42 5 -45 c3 -25 1 -49 -5 -53 -6 -5 -4 -7 4 -5 8 2 15 11
17 19 1 7 7 32 12 54 l10 40 1 -37 c1 -21 5 -38 10 -38 6 0 9 8 9 18 -1 19 19
72 27 72 3 0 4 -3 4 -7z m31 -103 c0 -5 -8 -10 -17 -10 -15 0 -16 2 -3 10 19
12 20 12 20 0z m90 -15 c11 -13 10 -14 -4 -9 -9 3 -16 10 -16 15 0 13 6 11 20
-6z m-63 -130 c-3 -16 -2 -63 2 -103 4 -40 5 -75 2 -77 -2 -3 -5 -26 -5 -52
-1 -46 -2 -48 -31 -50 -29 -2 -30 -2 -5 7 25 10 25 12 24 113 -1 56 -2 131 -3
167 -3 88 -1 101 11 60 5 -19 8 -48 5 -65z m78 75 c10 -11 14 -20 9 -20 -5 0
-15 9 -22 20 -7 11 -11 20 -9 20 2 0 12 -9 22 -20z m-326 -23 c-47 -37 -67
-46 -73 -32 -3 8 0 17 6 21 7 4 8 3 4 -4 -10 -16 5 -14 28 3 11 8 24 15 30 15
5 0 7 -1 5 -3z m216 -6 c3 -5 1 -12 -5 -16 -5 -3 -10 1 -10 9 0 18 6 21 15 7z
m126 -18 c13 -16 12 -17 -3 -4 -17 13 -22 21 -14 21 2 0 10 -8 17 -17z m-419
-18 c9 -19 14 -22 25 -14 8 7 13 8 13 1 0 -5 -6 -15 -14 -21 -11 -9 -15 -9
-19 1 -3 7 -11 -2 -20 -22 -10 -20 -16 -28 -17 -17 0 10 8 30 17 45 15 23 15
25 2 14 -14 -11 -16 -9 -16 13 0 32 14 32 29 0z m410 -43 c-7 -2 -11 -20 -11
-45 l2 -42 7 40 c7 41 11 36 16 -23 1 -17 -2 -30 -7 -26 -5 3 -9 -2 -9 -10 0
-21 -15 -28 -18 -8 -5 44 -8 128 -4 139 3 9 9 8 20 -4 12 -12 13 -18 4 -21z
m12 -178 c3 -8 2 -12 -4 -9 -6 3 -10 10 -10 16 0 14 7 11 14 -7z m-23 -11 c13
-16 12 -17 -3 -4 -17 13 -22 21 -14 21 2 0 10 -8 17 -17z m-141 -19 c0 -8 -4
-14 -10 -14 -5 0 -10 9 -10 21 0 11 5 17 10 14 6 -3 10 -13 10 -21z m-94 -60
c-3 -8 -11 -14 -17 -14 -8 0 -8 4 1 14 6 8 11 25 10 38 -3 38 3 46 7 10 3 -19
2 -40 -1 -48z m41 44 c-3 -7 -5 -2 -5 12 0 14 2 19 5 13 2 -7 2 -19 0 -25z
m-117 -20 c0 -5 -4 -8 -10 -8 -5 0 -10 10 -10 23 0 18 2 19 10 7 5 -8 10 -18
10 -22z m38 2 c-1 -34 -10 -42 -47 -46 -18 -2 -21 0 -12 9 6 6 19 12 29 12 13
0 16 7 14 28 -2 15 1 27 7 27 5 0 9 -14 9 -30z m-78 -12 c0 -5 -4 -8 -10 -8
-5 0 -10 10 -10 23 0 18 2 19 10 7 5 -8 10 -18 10 -22z m-82 -30 c-2 -14 -13
-24 -31 -29 -23 -6 -28 -5 -23 7 3 9 6 27 6 40 0 36 18 29 23 -8 4 -31 4 -30
6 7 1 33 3 37 12 22 6 -10 9 -27 7 -39z m42 31 c0 -5 -4 -9 -10 -9 -5 0 -10 7
-10 16 0 8 5 12 10 9 6 -3 10 -10 10 -16z m225 1 c3 5 11 10 18 10 24 0 -11
-21 -41 -25 -26 -3 -30 -2 -19 9 8 9 16 11 24 5 7 -7 14 -6 18 1z m-190 -39
c-3 -6 -11 -11 -17 -11 -6 0 -6 6 2 15 14 17 26 13 15 -4z m254 -154 l1 -138
-26 -9 c-14 -6 -26 -10 -28 -10 -4 0 2 215 7 242 3 15 11 41 18 58 21 45 26
15 28 -143z m-299 148 c-7 -9 -15 -13 -19 -10 -3 3 1 10 9 15 21 14 24 12 10
-5z m330 -25 c-7 -4 -9 -13 -6 -19 4 -6 2 -11 -3 -11 -12 0 -15 33 -5 43 4 4
11 4 16 0 6 -3 5 -9 -2 -13z m-360 -170 c0 -77 -3 -140 -7 -140 -6 0 -8 162
-3 273 0 4 2 7 5 7 3 0 5 -63 5 -140z m360 80 c0 -5 -5 -10 -11 -10 -5 0 -7 5
-4 10 3 6 8 10 11 10 2 0 4 -4 4 -10z m0 -50 c0 -5 -4 -10 -10 -10 -5 0 -10 5
-10 10 0 6 5 10 10 10 6 0 10 -4 10 -10z m-9 -93 c-8 -8 -11 -7 -11 4 0 20 13
34 18 19 3 -7 -1 -17 -7 -23z m46 -39 c-3 -7 -5 -2 -5 12 0 14 2 19 5 13 2 -7
2 -19 0 -25z m37 -34 c3 -8 2 -12 -4 -9 -6 3 -10 10 -10 16 0 14 7 11 14 -7z
m-74 -4 c0 -5 -5 -10 -11 -10 -5 0 -7 5 -4 10 3 6 8 10 11 10 2 0 4 -4 4 -10z"/>
<path d="M4921 2524 c0 -11 3 -14 6 -6 3 7 2 16 -1 19 -3 4 -6 -2 -5 -13z"/>
<path d="M4809 2333 c-13 -16 -12 -17 4 -4 9 7 17 15 17 17 0 8 -8 3 -21 -13z"/>
<path d="M4851 2334 c0 -11 3 -14 6 -6 3 7 2 16 -1 19 -3 4 -6 -2 -5 -13z"/>
<path d="M4645 2210 c-3 -5 -2 -10 4 -10 5 0 13 5 16 10 3 6 2 10 -4 10 -5 0
-13 -4 -16 -10z"/>
<path d="M4676 2183 c-6 -14 -5 -15 5 -6 7 7 10 15 7 18 -3 3 -9 -2 -12 -12z"/>
<path d="M4721 2184 c0 -11 3 -14 6 -6 3 7 2 16 -1 19 -3 4 -6 -2 -5 -13z"/>
<path d="M4840 2666 c0 -9 7 -12 21 -9 16 4 17 8 7 14 -19 13 -28 11 -28 -5z"/>
<path d="M4765 2649 c-4 -6 -4 -13 0 -17 4 -4 10 -2 12 5 2 7 11 9 20 6 11 -4
14 -2 9 5 -9 15 -33 16 -41 1z"/>
<path d="M4685 2630 c-8 -12 20 -24 35 -15 6 3 8 11 5 16 -8 12 -32 12 -40 -1z"/>
<path d="M4620 2611 c0 -14 5 -18 20 -14 11 3 20 7 20 9 0 2 -9 8 -20 14 -17
9 -20 8 -20 -9z"/>
<path d="M4520 2400 c-12 -8 -10 -9 7 -7 12 2 26 6 29 10 11 11 -19 8 -36 -3z"/>
<path d="M4552 2270 c0 -14 2 -19 5 -12 2 6 2 18 0 25 -3 6 -5 1 -5 -13z"/>
<path d="M4551 2181 c-1 -28 3 -41 8 -35 6 5 6 24 1 44 l-8 35 -1 -44z"/>
<path d="M1110 2195 c-1 -5 -2 -19 -1 -30 1 -18 0 -18 -11 2 -10 21 -12 21
-23 6 -7 -9 -21 -17 -31 -18 -11 0 -30 -8 -42 -17 -19 -13 -20 -16 -7 -22 9
-3 13 -2 10 3 -7 12 15 26 24 15 3 -5 17 -10 31 -12 19 -2 22 -1 10 7 -22 15
-2 27 20 13 17 -10 20 -9 26 13 3 13 4 30 1 37 -3 7 -6 9 -7 3z"/>
<path d="M3131 2140 c-2 -3 -4 -21 -5 -40 -1 -19 -6 -42 -10 -49 -6 -9 -5 -12
1 -8 5 3 8 -6 5 -23 -2 -16 -9 -27 -16 -24 -7 3 -11 -13 -9 -51 0 -30 -3 -55
-8 -55 -5 0 -5 -10 0 -23 5 -13 8 -38 7 -55 -1 -18 1 -32 6 -32 12 0 10 -170
-2 -171 -5 -1 -14 -2 -19 -3 -5 0 -13 -4 -17 -8 -12 -13 -22 -9 -27 10 -4 16
-5 16 -6 0 0 -10 -6 -18 -12 -18 -5 0 -7 6 -4 13 4 6 0 4 -8 -5 -20 -25 -30
-22 -23 5 3 14 -1 32 -9 43 -14 18 -14 17 -10 -11 8 -42 -3 -53 -59 -59 -48
-6 -49 -5 -32 13 12 13 15 27 10 45 -4 16 -2 26 4 26 6 0 14 10 18 23 7 21 7
21 17 -6 14 -43 32 -27 28 26 -1 29 2 47 8 47 6 0 11 -17 11 -38 0 -21 3 -42
7 -45 9 -10 43 23 43 42 0 10 8 5 20 -14 11 -16 19 -38 16 -47 -2 -10 0 -21 5
-24 5 -3 9 7 10 23 1 15 2 64 4 108 2 44 -1 89 -5 100 -9 20 -15 7 -11 -23 1
-6 -10 -17 -24 -22 -31 -12 -45 -13 -44 -2 1 4 1 19 0 35 -1 32 -21 37 -21 5
0 -18 -2 -20 -10 -8 -12 19 -14 15 -28 -47 -13 -59 -47 -105 -55 -75 -3 9 -4
67 -3 127 3 111 0 138 -13 131 -4 -3 -7 15 -6 40 0 25 -3 48 -7 50 -7 5 -13
-56 -9 -80 4 -20 -10 -57 -19 -51 -6 3 -10 2 -10 -4 0 -5 4 -12 10 -16 6 -4 6
-15 -1 -32 -7 -18 -6 -30 2 -40 10 -11 9 -13 -2 -11 -11 2 -15 -12 -17 -61 -2
-36 2 -69 7 -74 18 -18 14 -127 -4 -134 -9 -3 -18 -3 -20 -1 -3 2 -5 54 -6
114 0 66 -6 121 -14 139 l-13 30 -1 -38 c-1 -21 -5 -36 -9 -33 -5 3 -9 -9 -11
-27 -1 -26 -18 -184 -20 -195 -1 -2 -7 3 -14 10 -17 17 -38 78 -31 89 3 5 0 9
-5 9 -6 0 -11 8 -11 18 -1 11 -6 6 -15 -13 l-14 -30 0 40 c1 22 0 56 -1 75 -2
33 -3 33 -10 10 -4 -14 -8 -44 -9 -67 -1 -43 -11 -52 -40 -34 -8 6 -11 18 -7
37 3 16 -1 47 -9 69 -12 34 -14 36 -15 14 0 -14 -3 -29 -7 -33 -9 -8 -10 -14
-12 -51 0 -14 -5 -25 -10 -25 -5 0 -9 46 -9 103 0 108 -8 167 -23 167 -5 0
-10 -12 -10 -27 -2 -51 -4 -58 -14 -56 -5 1 -11 -17 -12 -40 0 -23 -2 -67 -3
-97 -1 -30 -4 -49 -7 -42 -8 19 -21 14 -37 -15 -8 -16 -15 -22 -16 -15 0 7 7
24 16 38 9 13 14 28 10 31 -4 4 -9 -3 -13 -15 -6 -23 -31 -31 -30 -9 0 6 -1
23 -2 37 l-2 25 -10 -24 c-5 -14 -7 -31 -5 -38 3 -7 1 -13 -4 -13 -4 0 -11
-13 -15 -30 -4 -16 -11 -30 -16 -30 -14 0 -10 -46 5 -59 11 -10 17 -8 25 6 9
15 10 15 11 2 0 -9 -3 -19 -7 -23 -4 -4 -7 -19 -8 -34 0 -24 -4 -27 -37 -30
-22 -2 -38 1 -38 7 0 6 5 11 10 11 6 0 10 7 10 15 0 8 5 15 11 15 6 0 9 -9 6
-20 -3 -11 -1 -18 4 -14 5 3 9 17 9 31 0 17 -4 24 -14 20 -11 -5 -14 13 -15
96 -1 56 -1 109 -2 117 0 8 1 20 2 25 5 16 -12 95 -21 100 -5 3 -12 -15 -15
-40 -4 -25 -10 -45 -14 -45 -3 0 -7 -15 -7 -32 -1 -18 -3 -42 -4 -53 -1 -11 1
-68 5 -127 7 -101 6 -108 -11 -108 -19 0 -174 40 -324 84 l-75 22 -5 45 c-3
25 -3 56 0 70 3 13 -1 42 -9 64 -8 23 -17 96 -21 170 -3 72 -9 123 -12 115 -8
-19 -19 -122 -18 -173 1 -25 -4 -39 -15 -43 -9 -4 -13 -14 -10 -28 3 -11 0
-43 -6 -71 -6 -27 -11 -66 -10 -86 1 -43 16 -43 -159 3 -251 66 -235 59 -237
104 -1 21 -5 73 -9 114 -7 75 -7 75 -17 35 -5 -22 -13 -42 -16 -45 -4 -3 -7
-15 -8 -27 -3 -89 -8 -97 -57 -88 -34 7 -37 10 -31 34 3 15 0 41 -7 57 l-12
29 -4 -28 c-3 -23 -6 -26 -18 -16 -12 10 -13 9 -8 -6 6 -13 4 -16 -5 -10 -8 5
-11 20 -8 39 2 17 1 40 -4 51 -6 16 -8 12 -8 -16 -1 -20 -10 -47 -20 -60 l-19
-24 5 28 c3 15 2 62 -2 105 -7 68 -9 74 -17 47 -5 -16 -12 -37 -16 -45 -12
-32 -11 -60 4 -60 16 0 18 -9 4 -30 -6 -10 -10 -11 -10 -2 0 6 -4 12 -9 12
-14 0 -24 -55 -16 -90 6 -28 8 -29 52 -25 25 3 51 9 58 15 7 6 16 7 18 3 3 -5
-10 -24 -28 -42 -44 -43 -52 -69 -65 -231 -13 -157 -18 -190 -31 -190 -6 0 -8
3 -6 8 3 4 8 44 12 90 6 72 5 82 -10 82 -9 0 -13 -5 -10 -10 4 -7 -2 -9 -19
-4 -16 4 -26 2 -26 -5 0 -6 -6 -8 -14 -5 -14 5 -133 -20 -171 -36 -38 -16 -88
-30 -93 -26 -8 9 22 152 40 190 11 21 15 35 9 31 -35 -21 -69 -170 -66 -285 1
-36 0 -48 -2 -27 -2 20 -8 35 -14 32 -5 -4 -9 -2 -9 4 0 5 5 13 11 17 8 5 6
10 -5 16 -9 5 -21 6 -28 2 -10 -7 -10 6 4 101 3 16 -4 20 -37 22 -57 4 -92
-23 -40 -31 9 -1 21 -9 26 -17 7 -11 9 -11 9 4 0 10 5 15 10 12 12 -7 13 -55
2 -71 -13 -19 -40 -23 -53 -8 -9 11 -15 12 -25 3 -11 -9 -14 -8 -14 1 0 10 -3
10 -14 1 -9 -8 -30 -10 -53 -6 -26 3 -45 1 -58 -10 -20 -14 -20 -14 0 -16 11
-1 26 -1 33 0 6 1 12 -6 13 -16 0 -11 3 -13 6 -5 11 27 24 10 21 -29 -2 -33
-5 -39 -20 -36 -10 3 -18 0 -18 -6 0 -7 -7 -4 -14 6 -7 9 -16 17 -20 17 -12 0
-6 -28 9 -40 8 -7 14 -20 13 -29 -2 -12 4 -15 28 -13 40 4 89 -42 98 -93 5
-27 12 -35 24 -33 9 2 18 12 20 23 5 29 54 77 65 66 15 -15 1 -39 -25 -43 -18
-2 -24 -10 -26 -34 -2 -25 -8 -32 -25 -31 -12 1 -32 -2 -44 -6 -20 -7 -21 -5
-18 37 3 37 -1 49 -22 70 -14 14 -29 23 -34 20 -5 -3 -9 0 -9 7 0 8 -5 6 -12
-4 -9 -12 -17 -14 -28 -7 -11 7 -11 10 -2 10 7 0 10 5 7 10 -10 17 -25 11 -25
-10 0 -15 -9 -21 -41 -26 -26 -4 -36 -10 -28 -15 13 -7 56 -5 111 7 18 4 28 1
28 -6 0 -7 -6 -10 -14 -7 -21 8 -65 -32 -47 -42 7 -5 12 -23 11 -42 -5 -81 0
-109 17 -109 23 0 7 -13 -18 -15 -17 -1 -20 3 -16 21 2 13 -1 25 -7 28 -7 3
-6 8 4 15 10 7 11 11 2 11 -8 0 -10 8 -6 25 4 15 2 25 -5 25 -6 0 -11 -10 -12
-22 0 -13 -2 -51 -4 -85 -2 -35 1 -65 6 -69 5 -3 9 -2 8 3 -3 18 1 33 10 33
16 0 18 -34 6 -102 -10 -64 -10 -66 6 -52 10 9 16 21 13 28 -2 6 4 21 15 33
11 11 23 37 26 57 8 40 25 59 25 27 0 -12 5 -21 10 -21 6 0 10 -10 11 -22 1
-22 1 -21 8 2 5 14 11 52 15 83 7 51 5 57 -11 58 -14 0 -15 2 -3 6 8 3 18 11
22 17 8 12 12 -18 9 -69 -2 -46 -23 -149 -32 -159 -4 -5 -5 1 -2 13 6 22 -12
30 -20 9 -3 -10 -7 -10 -20 0 -13 11 -17 10 -28 -9 -10 -20 -8 -25 15 -44 21
-17 26 -29 26 -67 0 -42 2 -46 23 -42 22 5 22 4 1 -5 -37 -16 -35 -28 6 -40
22 -6 40 -16 40 -21 0 -16 -62 -12 -74 5 -12 15 -101 30 -118 19 -12 -8 -298
-5 -310 2 -4 3 -8 -54 -8 -125 l0 -131 116 0 c111 0 115 1 109 20 -4 11 -2 20
4 20 6 0 11 -9 11 -20 0 -20 5 -21 82 -19 46 1 93 -1 106 -5 14 -5 29 -3 38 5
16 13 192 6 254 -11 26 -7 -2 -9 -105 -7 -77 1 -247 1 -377 0 -230 -3 -238 -4
-238 -23 0 -11 6 -20 13 -21 55 -2 622 5 825 10 138 3 252 3 252 -1 0 -4 20
-10 45 -14 78 -11 60 -24 -37 -25 -211 -3 -472 -15 -458 -21 18 -7 343 -32
690 -53 337 -20 408 -25 450 -32 65 -11 654 -8 785 4 72 7 218 15 325 18 202
6 271 8 600 25 165 8 378 8 758 1 69 -1 73 -2 83 -28 5 -16 17 -33 25 -40 13
-9 2 -13 -55 -19 -39 -3 -74 -11 -77 -15 -3 -5 -2 -9 3 -9 4 0 35 -4 68 -10
65 -10 476 -53 725 -75 85 -8 269 -15 408 -15 l252 0 70 35 c39 19 70 31 70
25 0 -5 -3 -10 -7 -10 -5 0 -26 -11 -48 -25 l-40 -24 198 -1 197 0 0 59 0 59
-84 7 c-69 6 -90 4 -120 -10 -20 -10 -39 -15 -42 -12 -3 3 4 8 15 12 45 14 15
22 -131 34 -202 16 -238 21 -238 31 0 4 11 11 24 14 21 5 25 13 28 53 l3 48
45 -3 c89 -5 145 -14 158 -25 10 -8 16 -7 23 4 5 9 9 10 9 2 0 -15 35 -20 168
-27 59 -3 100 -1 97 4 -3 5 5 10 17 12 33 5 33 25 -2 33 -16 4 -35 15 -41 26
-12 24 -29 16 -30 -14 -1 -21 -2 -19 -15 22 -3 10 -7 11 -19 1 -8 -6 -22 -10
-32 -7 -16 4 -16 5 2 11 48 18 70 35 70 58 0 18 6 24 28 26 15 2 25 8 22 13
-4 5 0 9 9 9 8 0 17 6 20 13 4 6 4 2 2 -10 -2 -13 0 -23 5 -23 13 0 11 37 -1
45 -7 4 -7 11 -2 18 5 7 7 21 5 32 -2 11 -5 25 -5 32 -1 6 -7 9 -15 6 -10 -4
-11 -9 -2 -19 7 -8 9 -17 6 -21 -4 -3 -12 6 -18 21 -7 15 -21 26 -33 27 -20 0
-20 1 -2 8 13 5 16 10 8 14 -8 5 -6 16 6 38 13 24 14 33 5 36 -7 3 -13 10 -13
16 1 7 10 1 21 -12 26 -31 33 -22 14 17 -10 19 -21 29 -30 26 -10 -4 -12 0 -8
15 3 11 8 19 12 17 4 -3 8 5 8 16 1 11 -1 18 -4 14 -3 -3 -18 3 -33 14 -25 18
-29 18 -41 4 -8 -10 -22 -14 -38 -11 -18 4 -32 -2 -48 -19 -35 -38 -31 -54 9
-33 16 9 24 7 37 -5 14 -15 14 -18 1 -26 -22 -14 -33 -12 -26 6 4 10 1 14 -6
12 -19 -7 -17 -90 2 -96 13 -5 13 -3 0 14 -14 18 -14 18 3 5 13 -10 15 -17 7
-25 -8 -8 -16 -5 -30 11 -17 22 -18 22 -23 3 -3 -13 -11 -18 -20 -14 -8 3 -18
1 -21 -4 -3 -6 16 -13 46 -17 46 -7 53 -5 69 16 10 13 19 19 19 13 0 -18 -36
-45 -65 -48 -15 -2 -31 -9 -37 -17 -8 -11 -9 -11 -5 3 4 10 -1 18 -11 21 -9 3
-25 8 -34 12 -16 6 -18 1 -18 -43 0 -28 -4 -54 -10 -57 -6 -3 -10 4 -10 18 0
31 -25 55 -34 32 -3 -9 -2 -13 4 -10 6 3 10 -1 10 -10 0 -9 -4 -13 -10 -10 -5
3 -10 2 -10 -2 0 -5 9 -14 20 -21 39 -24 48 -92 13 -92 -9 0 -3 -12 18 -32 18
-19 27 -34 20 -36 -21 -7 -41 7 -41 28 0 11 -5 20 -11 20 -6 0 -9 6 -6 14 3 8
-1 20 -9 26 -16 14 -20 45 -4 35 6 -3 10 4 10 17 0 18 -2 20 -10 8 -10 -15
-16 46 -11 117 2 27 -1 32 -28 38 -17 3 -55 6 -86 6 -30 0 -55 5 -55 10 0 5 7
9 16 9 14 0 15 2 3 17 -13 15 -11 16 12 10 19 -5 31 -2 40 9 15 18 21 94 8 94
-16 0 -20 -21 -7 -37 11 -15 11 -16 -7 -9 -11 5 -30 11 -42 13 -25 6 -30 22
-11 41 9 9 8 16 -5 30 -9 10 -17 33 -17 50 0 46 -30 213 -42 237 -6 11 -91 98
-189 193 -99 96 -177 177 -174 182 6 10 -84 94 -125 115 -45 23 -158 42 -266
44 -103 2 -281 -21 -339 -44 l-40 -15 38 5 c65 10 142 -14 90 -28 -11 -3 -6
-5 11 -6 58 -2 14 -14 -140 -36 -86 -13 -161 -29 -168 -35 -8 -9 -3 -10 24 -5
46 10 203 23 213 18 18 -10 5 -23 -18 -17 -19 5 -25 2 -25 -10 0 -9 -9 -34
-19 -54 -23 -45 -17 -90 13 -102 17 -7 13 -9 -19 -9 -51 0 -104 -11 -111 -23
-4 -6 22 -8 72 -4 85 6 90 2 11 -9 -31 -4 -47 -11 -44 -18 2 -7 -2 -18 -9 -25
-8 -7 -14 -8 -14 -2 0 5 -9 10 -20 10 -18 0 -25 -15 -21 -42 0 -4 -9 -10 -22
-14 -30 -9 -48 -24 -41 -36 3 -5 12 -1 19 9 12 16 14 8 12 -57 l-2 -75 80 -6
80 -5 -77 -2 c-50 -1 -78 -6 -81 -14 -3 -7 -10 1 -16 17 -6 17 -16 38 -21 47
-6 10 -10 27 -10 39 0 16 -3 19 -12 11 -8 -6 -22 -6 -35 -1 -19 7 -23 16 -23
51 0 24 -5 50 -11 58 -8 12 -9 9 -5 -12 4 -16 1 -28 -6 -30 -8 -3 -9 -12 0
-36 7 -20 7 -34 1 -38 -6 -4 -6 -10 1 -19 8 -10 8 -15 0 -20 -8 -5 -7 -12 2
-23 12 -15 11 -16 -4 -3 -12 9 -18 27 -18 52 0 31 -4 38 -22 41 -20 3 -24 11
-29 61 -7 64 -19 88 -19 38 0 -22 -4 -30 -12 -25 -8 5 -9 2 -3 -12 13 -30 16
-114 4 -114 -7 0 -10 14 -7 35 4 36 -5 45 -43 45 -16 0 -19 7 -19 43 0 50 -9
87 -21 87 -5 0 -6 -14 -2 -32 4 -22 3 -29 -5 -24 -8 5 -12 0 -12 -13 0 -12 4
-21 10 -21 5 0 9 -20 8 -45 -1 -25 -7 -45 -12 -45 -6 0 -5 -5 2 -12 7 -7 12
-16 12 -20 0 -4 -10 2 -21 13 -16 16 -18 23 -9 29 6 4 10 18 8 31 -2 16 -12
25 -35 31 -31 8 -33 11 -33 56 1 26 -4 63 -10 82 -9 33 -9 33 -5 -12 4 -39 2
-48 -11 -48 -8 0 -13 -3 -11 -7 11 -17 17 -123 8 -123 -6 0 -11 17 -13 37 -3
32 -7 38 -36 45 -24 6 -32 13 -28 24 3 7 2 14 -2 14 -5 0 -6 15 -4 33 2 19 -3
40 -13 52 -15 19 -16 19 -10 -12 4 -21 3 -33 -4 -33 -6 0 -11 -14 -11 -30 0
-30 -1 -31 -37 -24 -54 10 -56 12 -49 63 3 32 1 54 -10 71 -14 24 -14 24 -8
-15 6 -35 5 -38 -8 -28 -13 11 -14 7 -11 -31 l5 -44 -44 12 -43 13 0 324 c0
261 -3 329 -14 349 -8 14 -12 26 -10 27 2 1 1 5 -3 9 -7 6 -10 -10 -7 -32 0
-4 -5 -11 -13 -15 -10 -7 -10 -9 0 -9 6 0 12 -7 12 -15 0 -8 -6 -15 -13 -15
-9 0 -12 -10 -9 -30 2 -17 -1 -37 -8 -45 -10 -12 -10 -15 1 -15 8 0 9 -3 4 -9
-12 -12 -6 -113 6 -105 5 3 9 -2 9 -12 0 -13 -3 -14 -15 -4 -12 10 -18 10 -30
0 -9 -7 -18 -10 -21 -7 -9 9 -36 119 -41 170 -7 70 -23 57 -23 -19 0 -59 -2
-65 -17 -59 -10 4 -30 12 -45 17 -19 7 -28 17 -28 31 -3 118 -9 210 -18 247
-7 25 -13 56 -15 70 -3 14 -5 23 -6 20z m-281 -259 c0 -6 -4 -13 -10 -16 -5
-3 -10 1 -10 9 0 9 5 16 10 16 6 0 10 -4 10 -9z m-1570 -87 c0 -8 -4 -12 -10
-9 -5 3 -10 10 -10 16 0 5 5 9 10 9 6 0 10 -7 10 -16z m-250 -19 c0 -8 -7 -15
-15 -15 -8 0 -15 7 -15 15 0 8 7 15 15 15 8 0 15 -7 15 -15z m64 1 c-6 -17
-34 -30 -34 -16 0 5 8 14 18 19 22 13 22 13 16 -3z m1876 4 c0 -5 -5 -10 -11
-10 -5 0 -7 5 -4 10 3 6 8 10 11 10 2 0 4 -4 4 -10z m-1685 -50 c3 -5 1 -10
-4 -10 -6 0 -11 5 -11 10 0 6 2 10 4 10 3 0 8 -4 11 -10z m470 -60 c0 -39 -4
-70 -8 -70 -5 0 -5 5 -1 12 5 7 2 9 -7 6 -13 -5 -14 2 -8 41 5 38 17 81 23 81
0 0 1 -32 1 -70z m1505 60 c0 -5 -4 -10 -10 -10 -5 0 -10 5 -10 10 0 6 5 10
10 10 6 0 10 -4 10 -10z m-790 -30 c0 -5 -4 -10 -10 -10 -5 0 -10 5 -10 10 0
6 5 10 10 10 6 0 10 -4 10 -10z m-759 -23 c-10 -9 -11 -8 -5 6 3 10 9 15 12
12 3 -3 0 -11 -7 -18z m733 -77 c-3 -51 -1 -80 6 -80 5 0 10 5 10 11 0 5 5 7
12 3 15 -10 -55 -39 -98 -42 -29 -2 -31 0 -29 25 1 16 7 41 13 56 7 16 10 33
6 38 -3 5 -1 9 5 9 19 0 22 -20 7 -48 -13 -25 -13 -29 0 -29 8 0 13 6 10 13
-3 8 -1 16 4 19 6 4 10 1 10 -6 0 -30 14 5 16 41 2 31 18 67 31 70 1 0 -1 -36
-3 -80z m-196 45 c-1 -14 -6 -25 -10 -25 -4 0 -8 11 -8 25 0 14 4 25 10 25 5
0 9 -11 8 -25z m88 -52 c-11 -11 -17 4 -9 23 7 18 8 18 11 1 2 -10 1 -21 -2
-24z m416 12 c-2 -14 -8 -23 -12 -20 -10 6 -1 45 10 45 4 0 5 -11 2 -25z
m-278 -21 c3 -8 2 -12 -4 -9 -6 3 -10 10 -10 16 0 14 7 11 14 -7z m629 -2 c4
8 6 7 6 -4 1 -9 -7 -22 -16 -27 -20 -12 -13 -14 35 -11 26 1 32 -2 32 -19 0
-12 -5 -21 -11 -21 -6 0 -8 -9 -4 -20 4 -12 2 -20 -5 -20 -6 0 -8 -10 -4 -26
5 -20 4 -25 -5 -19 -7 4 -11 22 -9 40 1 19 -1 37 -5 41 -4 4 -6 -40 -6 -97 1
-57 4 -94 6 -81 5 24 5 24 27 16 10 -4 16 -17 15 -38 -1 -17 -3 -23 -6 -13 -5
17 -23 24 -23 8 0 -13 -49 -31 -97 -35 -45 -4 -76 15 -56 35 7 7 14 5 23 -6 7
-8 21 -15 32 -15 18 0 19 2 7 16 -9 11 -10 17 -2 22 16 10 28 62 14 62 -6 0
-11 -9 -11 -20 0 -11 -4 -20 -10 -20 -5 0 -10 -7 -10 -15 0 -27 -18 -16 -25
15 -6 26 -10 29 -41 28 -20 -1 -33 -6 -31 -12 5 -14 28 -15 45 -3 16 12 16 -5
0 -21 -7 -7 -9 -12 -4 -12 4 0 1 -7 -7 -15 -13 -12 -29 -10 -128 17 -63 16
-123 32 -134 35 -15 3 -20 12 -18 36 2 47 2 47 12 47 6 0 7 -16 4 -37 -5 -27
-3 -34 6 -29 7 5 10 14 7 21 -6 17 19 39 37 32 22 -8 41 8 30 27 -10 18 6 106
19 106 5 0 8 -6 8 -12 0 -9 4 -8 10 2 8 13 10 12 10 -3 0 -10 -7 -20 -15 -23
-8 -4 -15 -11 -15 -16 0 -6 7 -8 15 -4 9 3 15 0 15 -9 0 -8 5 -15 10 -15 5 0
9 5 8 11 -2 6 3 14 11 17 11 3 12 -2 7 -24 -10 -37 -15 -42 -26 -24 -8 12 -10
10 -10 -7 0 -27 7 -28 34 -8 28 21 39 19 33 -8 -4 -12 -2 -28 2 -36 7 -11 11
-9 21 9 11 20 10 22 -4 17 -13 -5 -14 -3 -3 13 18 31 27 24 28 -22 2 -30 3
-35 6 -15 2 15 9 27 14 27 6 0 8 3 5 8 -2 4 2 16 10 27 13 17 14 15 15 -31 l1
-49 9 44 c6 33 5 52 -5 73 -16 31 -6 37 18 12 15 -14 17 -14 22 0 3 9 10 14
15 11 4 -3 6 -12 2 -20 -3 -8 -1 -15 5 -15 11 0 26 49 17 58 -3 3 -5 -1 -5 -9
0 -11 -2 -11 -10 1 -14 21 -12 30 5 30 8 0 15 7 15 16 0 13 3 14 14 5 11 -9
15 -9 19 1z m-73 -42 c0 -5 -8 -9 -17 -8 -10 0 -49 -3 -88 -7 -38 -5 -67 -5
-63 -1 3 4 33 10 65 13 32 3 62 9 67 13 10 10 36 2 36 -10z m-1377 3 c-7 -2
-19 -2 -25 0 -7 3 -2 5 12 5 14 0 19 -2 13 -5z m3328 -44 l-9 -44 -1 41 c-1
22 2 44 6 47 12 12 13 1 4 -44z m-3183 13 c40 -10 70 -21 67 -24 -6 -5 -144
29 -154 38 -7 7 12 4 87 -14z m439 -4 c-3 -8 -6 -5 -6 6 -1 11 2 17 5 13 3 -3
4 -12 1 -19z m460 -40 c-2 -13 -4 -5 -4 17 -1 22 1 32 4 23 2 -10 2 -28 0 -40z
m224 3 c-14 -25 -27 -27 -35 -5 -3 9 -2 12 5 9 6 -4 13 3 16 15 4 13 9 18 15
12 6 -6 6 -17 -1 -31z m2209 24 c7 -8 8 -15 2 -15 -5 0 -15 7 -22 15 -7 8 -8
15 -2 15 5 0 15 -7 22 -15z m-2663 -17 c-3 -8 -6 -5 -6 6 -1 11 2 17 5 13 3
-3 4 -12 1 -19z m2041 15 c-10 -2 -26 -2 -35 0 -10 3 -2 5 17 5 19 0 27 -2 18
-5z m583 -3 c24 -13 25 -42 2 -38 -13 2 -18 -5 -19 -29 -1 -18 -3 -36 -4 -40
-1 -5 -1 -23 0 -40 1 -24 -3 -33 -14 -33 -12 0 -16 10 -16 42 0 40 20 148 28
148 2 0 12 -5 23 -10z m-3186 -10 c3 -5 2 -10 -4 -10 -5 0 -13 5 -16 10 -3 6
-2 10 4 10 5 0 13 -4 16 -10z m535 -7 c0 -7 -7 -13 -15 -13 -8 0 -15 -4 -15
-10 0 -5 13 -7 30 -4 22 5 31 2 36 -10 4 -9 4 -19 1 -22 -8 -9 -88 16 -82 26
3 4 -13 6 -35 3 -22 -3 -40 -2 -40 3 0 5 10 10 23 11 43 4 61 10 64 20 5 15
33 12 33 -4z m-1170 -5 c29 -10 31 -12 15 -18 -18 -6 -18 -8 4 -20 21 -11 26
-10 38 6 7 9 15 15 18 12 3 -2 -4 -13 -15 -23 -18 -17 -21 -17 -45 -1 -14 9
-23 21 -20 26 3 6 0 7 -8 4 -8 -3 -18 -1 -22 5 -9 16 -28 13 -22 -3 4 -10 1
-13 -8 -10 -19 8 -7 34 15 34 9 0 32 -5 50 -12z m1980 -58 c0 -26 -5 -40 -16
-44 -14 -5 -16 -1 -10 25 3 17 6 40 6 51 0 10 5 16 10 13 6 -3 10 -23 10 -45z
m1216 38 c5 -8 2 -9 -10 -5 -20 8 -40 -35 -33 -71 6 -29 -9 -39 -18 -11 -18
54 35 129 61 87z m-3563 -16 c-7 -4 -15 -32 -19 -62 -8 -69 -14 -76 -15 -19
l-2 44 -7 -55 c-4 -30 -11 -64 -16 -74 -5 -14 -4 -17 4 -12 7 4 12 16 12 27 0
10 5 19 10 19 6 0 10 -6 10 -14 0 -18 20 -32 29 -20 3 5 28 9 54 9 48 1 48 1
43 -30 -8 -49 -25 -204 -32 -289 -6 -79 -6 -79 -22 -53 -19 31 -16 30 -176 16
-133 -11 -164 -21 -96 -30 43 -5 44 -6 20 -17 -20 -10 -5 -11 85 -7 61 2 97 1
81 -3 -50 -12 -44 -32 9 -32 37 0 46 -3 43 -16 -2 -8 -6 -15 -10 -15 -5 1 -22
1 -39 1 -19 0 -28 4 -23 11 4 7 -1 9 -15 5 -11 -3 -29 -8 -40 -11 -11 -4 -21
0 -24 10 -5 11 -15 13 -39 9 -23 -5 -30 -3 -23 4 6 6 28 12 50 15 l40 4 -43 1
c-24 1 -51 -2 -61 -7 -10 -6 -27 -7 -39 -4 -17 4 -22 13 -22 39 0 19 -4 34
-10 34 -5 0 -10 -14 -10 -32 0 -17 -4 -45 -9 -62 -25 -82 -29 -105 -17 -109 7
-3 6 -14 -7 -38 l-17 -34 5 31 c3 16 2 41 -3 55 -7 17 -5 30 6 46 12 19 12 23
1 23 -10 0 -11 2 -2 8 13 8 25 132 13 132 -4 0 -10 11 -12 25 -3 14 -1 25 3
25 5 0 9 -8 9 -17 0 -15 2 -16 10 -3 14 22 12 40 -5 40 -8 0 -15 5 -15 11 0 6
7 9 15 5 12 -4 15 4 16 42 1 26 4 37 6 25 10 -50 22 -19 21 51 -1 59 -4 73
-16 72 -14 -1 -62 57 -62 75 0 4 10 11 23 15 47 16 55 12 61 -28 5 -31 10 -38
24 -34 9 3 34 8 55 12 32 5 37 10 38 35 1 16 2 37 3 47 1 23 41 62 64 62 9 0
24 5 32 11 11 7 6 8 -20 3 -19 -3 -41 -11 -47 -16 -10 -8 -13 -6 -13 6 0 11 9
16 28 17 15 0 43 6 62 13 40 16 61 19 43 8z m383 -50 c-9 -8 -46 20 -46 35 0
13 5 12 25 -7 14 -13 23 -25 21 -28z m190 18 c9 0 14 -11 14 -32 0 -23 -3 -29
-9 -19 -5 8 -7 21 -3 29 3 9 1 13 -5 9 -11 -7 -24 15 -22 36 1 7 3 4 6 -5 2
-10 11 -18 19 -18z m1684 -10 c0 -11 -4 -20 -9 -20 -5 0 -7 9 -4 20 3 11 7 20
9 20 2 0 4 -9 4 -20z m220 -20 c0 -15 -6 -30 -13 -33 -9 -3 -11 6 -9 34 5 44
22 43 22 -1z m-810 20 c0 -5 -2 -10 -4 -10 -3 0 -8 5 -11 10 -3 6 -1 10 4 10
6 0 11 -4 11 -10z m557 -27 c-3 -10 -5 -4 -5 12 0 17 2 24 5 18 2 -7 2 -21 0
-30z m173 12 c0 -14 -4 -25 -9 -25 -4 0 -6 11 -3 25 2 14 6 25 8 25 2 0 4 -11
4 -25z m1810 4 c0 -5 -9 -9 -20 -9 -17 0 -19 2 -8 14 13 14 28 12 28 -5z m27
-21 c-3 -7 -5 -2 -5 12 0 14 2 19 5 13 2 -7 2 -19 0 -25z m47 7 c-6 -16 -24
-21 -24 -7 0 11 11 22 21 22 5 0 6 -7 3 -15z m-3624 1 c0 -3 -4 -8 -10 -11 -5
-3 -10 -1 -10 4 0 6 5 11 10 11 6 0 10 -2 10 -4z m3071 -15 c-8 -5 -20 -7 -28
-4 -21 8 -15 13 15 13 20 0 23 -3 13 -9z m474 -30 c-4 -17 -10 -33 -15 -36 -4
-3 -3 13 2 35 12 47 23 47 13 1z m-4575 9 c0 -4 -6 -10 -13 -13 -7 -3 -13 3
-13 13 0 10 6 16 13 13 7 -3 13 -9 13 -13z m2717 -47 c0 -18 -4 -33 -9 -33
-10 0 -10 3 -12 57 -2 35 0 39 9 25 7 -9 12 -32 12 -49z m1763 45 c0 -6 -6 -5
-15 2 -8 7 -15 14 -15 16 0 2 7 1 15 -2 8 -4 15 -11 15 -16z m-235 2 c-4 -6
-24 -10 -45 -8 -50 3 -41 18 11 18 25 0 38 -4 34 -10z m470 -49 c4 -7 -3 -11
-17 -10 -13 0 -18 3 -12 5 6 2 9 19 7 37 -3 31 -2 31 6 5 5 -14 12 -31 16 -37z
m-3365 34 c0 -8 -4 -15 -9 -15 -13 0 -22 16 -14 24 11 11 23 6 23 -9z m23 -5
c3 -11 1 -20 -4 -20 -5 0 -9 9 -9 20 0 11 2 20 4 20 2 0 6 -9 9 -20z m2914 14
c-3 -3 -12 -4 -19 -1 -8 3 -5 6 6 6 11 1 17 -2 13 -5z m-2776 -18 c22 -5 28
-13 31 -41 4 -35 -8 -48 -18 -21 -4 12 -12 13 -31 5 -23 -8 -24 -8 -13 6 17
21 1 19 -23 -2 -20 -17 -20 -17 -14 0 4 10 7 30 7 43 0 19 4 24 18 21 9 -3 29
-8 43 -11z m1256 -18 c-3 -7 -5 -2 -5 12 0 14 2 19 5 13 2 -7 2 -19 0 -25z
m1263 28 c0 -8 -61 -12 -66 -4 -3 4 11 8 30 8 20 0 36 -2 36 -4z m-4039 -47
c-24 -39 -55 -57 -87 -51 -27 5 -31 17 -9 26 8 3 15 17 15 32 0 25 2 26 40 21
22 -3 43 -1 46 5 3 5 8 7 11 5 2 -3 -5 -20 -16 -38z m1214 31 c13 -6 15 -9 5
-9 -8 0 -22 4 -30 9 -18 12 -2 12 25 0z m-1041 -15 c-4 -8 -11 -15 -16 -15 -6
0 -5 6 2 15 7 8 14 15 16 15 2 0 1 -7 -2 -15z m2681 -17 c-4 -49 -4 -50 -15
-43 -14 9 -12 62 3 68 6 3 13 6 13 6 1 1 0 -14 -1 -31z m1790 11 c-10 -15 -25
-10 -19 6 4 8 10 12 15 9 5 -3 7 -10 4 -15z m135 6 c5 3 11 1 15 -5 3 -5 -3
-10 -14 -10 -14 0 -21 6 -20 18 0 10 3 12 6 4 2 -6 9 -10 13 -7z m-4333 -1
c-3 -3 -12 -4 -19 -1 -8 3 -5 6 6 6 11 1 17 -2 13 -5z m1198 -4 c4 -6 10 -8
14 -6 4 3 13 0 21 -5 13 -8 12 -11 -3 -20 -9 -6 -15 -14 -12 -19 3 -5 1 -11
-5 -15 -5 -3 -10 -1 -10 6 0 10 -3 10 -12 1 -9 -9 -15 -6 -25 16 -9 20 -11 21
-7 5 3 -13 1 -23 -5 -23 -6 0 -11 16 -11 35 0 30 3 35 24 35 14 0 28 -5 31
-10z m1372 -32 c-3 -7 -5 -2 -5 12 0 14 2 19 5 13 2 -7 2 -19 0 -25z m-2964
-30 l27 -36 -36 -36 c-34 -34 -54 -39 -54 -13 0 7 -9 23 -19 36 -19 25 -19 25
13 62 17 21 33 35 37 31 3 -4 17 -23 32 -44z m132 42 c-3 -5 -12 -10 -18 -10
-7 0 -6 4 3 10 19 12 23 12 15 0z m2725 -26 c0 -14 -4 -23 -9 -20 -5 3 -7 15
-4 26 7 28 13 25 13 -6z m-1152 -5 c-7 -5 -19 -9 -26 -9 -10 0 -10 3 0 14 7 7
19 11 26 8 11 -4 11 -6 0 -13z m840 7 c23 1 32 -3 32 -13 0 -11 -7 -13 -26 -9
-19 5 -25 3 -22 -6 3 -7 13 -13 23 -13 10 0 20 -6 23 -14 3 -10 -2 -13 -22 -9
-14 3 -26 1 -26 -3 0 -5 -7 -9 -15 -9 -8 0 -15 -7 -15 -16 0 -10 6 -14 15 -10
11 4 15 -2 15 -24 0 -17 5 -30 11 -30 6 0 8 7 5 16 -3 8 -2 12 4 9 6 -3 10 3
10 15 0 12 4 19 9 16 14 -9 12 -127 -2 -144 -9 -12 -9 -16 1 -19 7 -3 12 -24
12 -55 0 -50 0 -50 -30 -46 -16 2 -32 0 -34 -6 -2 -6 -5 12 -5 39 -1 28 -6 82
-13 120 -6 39 -11 98 -12 133 -1 43 -6 66 -16 73 -13 9 -12 10 3 5 9 -3 17 0
17 6 0 7 4 7 13 1 6 -5 27 -9 45 -7z m531 -50 c-9 -8 -10 -7 -5 7 3 10 7 28 7
40 2 16 3 14 6 -7 3 -16 -1 -34 -8 -40z m-1309 23 c0 -10 -12 -11 -34 -3 -9 3
-14 10 -11 14 6 10 45 1 45 -11z m1193 9 c-4 -7 -6 -21 -5 -30 2 -10 -1 -18
-7 -18 -5 0 -8 12 -7 28 4 33 4 32 17 32 6 0 7 -5 2 -12z m-490 -18 c3 -11 1
-18 -4 -14 -5 3 -9 12 -9 20 0 20 7 17 13 -6z m-125 -37 c20 1 43 6 50 10 7 5
12 4 12 -3 0 -13 -14 -18 -67 -23 l-43 -4 1 36 c2 30 3 31 6 9 4 -24 8 -27 41
-25z m-1069 28 c8 -5 -5 -7 -35 -4 -27 3 -51 7 -53 9 -9 8 75 3 88 -5z m424 2
c-7 -2 -19 -2 -25 0 -7 3 -2 5 12 5 14 0 19 -2 13 -5z m404 -15 c-3 -8 -6 -5
-6 6 -1 11 2 17 5 13 3 -3 4 -12 1 -19z m133 -8 c0 -16 -5 -30 -11 -30 -7 0
-9 10 -5 25 4 14 2 25 -4 25 -5 0 -10 -11 -10 -25 0 -18 -7 -28 -26 -35 -31
-12 -34 -12 -34 -1 0 5 9 12 19 16 10 3 22 17 25 30 4 16 13 25 26 25 16 0 20
-7 20 -30z m420 3 c0 -16 -4 -23 -8 -17 -4 6 -14 14 -22 17 -12 4 -11 6 3 6 9
1 17 6 17 11 0 6 2 10 5 10 3 0 5 -12 5 -27z m360 12 c0 -8 -4 -15 -10 -15 -5
0 -7 7 -4 15 4 8 8 15 10 15 2 0 4 -7 4 -15z m690 11 c0 -3 -4 -8 -10 -11 -5
-3 -10 -1 -10 4 0 6 5 11 10 11 6 0 10 -2 10 -4z m670 0 c0 -3 -4 -8 -10 -11
-5 -3 -10 -1 -10 4 0 6 5 11 10 11 6 0 10 -2 10 -4z m307 -2 c-3 -3 -12 -4
-19 -1 -8 3 -5 6 6 6 11 1 17 -2 13 -5z m-2677 -12 c0 -4 -5 -13 -12 -20 -9
-9 -9 -12 0 -12 7 0 12 -4 12 -10 0 -12 -27 -13 -34 -2 -9 15 6 52 20 52 8 0
14 -4 14 -8z m167 -14 c-3 -8 -6 -5 -6 6 -1 11 2 17 5 13 3 -3 4 -12 1 -19z
m520 0 c-3 -8 -6 -5 -6 6 -1 11 2 17 5 13 3 -3 4 -12 1 -19z m-1372 -6 c-3 -3
-11 0 -18 7 -9 10 -8 11 6 5 10 -3 15 -9 12 -12z m932 -14 c-3 -7 -5 -2 -5 12
0 14 2 19 5 13 2 -7 2 -19 0 -25z m583 22 c0 -5 -4 -10 -10 -10 -18 0 -11 -18
10 -25 29 -9 25 -23 -5 -17 -18 3 -25 11 -25 26 0 13 3 26 7 29 10 10 23 8 23
-3z m-800 -25 c0 -14 -4 -25 -9 -25 -4 0 -6 11 -3 25 2 14 6 25 8 25 2 0 4
-11 4 -25z m1050 15 c0 -5 -4 -10 -10 -10 -5 0 -10 5 -10 10 0 6 5 10 10 10 6
0 10 -4 10 -10z m42 -18 c-7 -2 -12 -11 -13 -20 0 -10 -3 -12 -5 -5 -3 7 0 22
7 35 9 17 14 19 17 8 3 -7 0 -16 -6 -18z m-350 -14 c-8 -8 -9 -4 -5 13 4 13 8
18 11 10 2 -7 -1 -18 -6 -23z m182 16 c3 -8 2 -12 -4 -9 -6 3 -10 10 -10 16 0
14 7 11 14 -7z m41 6 c3 -5 1 -10 -4 -10 -6 0 -11 5 -11 10 0 6 2 10 4 10 3 0
8 -4 11 -10z m1218 3 c-16 -6 -17 -20 -3 -36 6 -7 17 -21 25 -32 14 -19 14
-17 12 20 -1 22 -6 43 -12 47 -5 4 -1 8 10 8 17 0 21 -7 22 -42 1 -49 -13 -74
-32 -58 -9 7 -15 8 -19 1 -8 -12 -36 -3 -36 11 0 6 7 8 15 4 20 -7 20 20 0 31
-19 11 -8 53 14 52 10 0 11 -2 4 -6z m587 -3 c0 -5 -4 -10 -10 -10 -5 0 -10 5
-10 10 0 6 5 10 10 10 6 0 10 -4 10 -10z m-1045 -10 c14 -6 15 -9 5 -10 -10
-1 -9 -4 5 -10 11 -5 14 -9 8 -9 -25 -2 -12 -19 18 -25 27 -5 30 -8 19 -21 -9
-10 -9 -15 -1 -15 6 0 11 -4 11 -8 0 -4 -30 -8 -67 -7 l-68 0 -5 53 c-3 29 -4
55 -1 58 7 7 54 3 76 -6z m416 -68 c-10 -16 -10 -16 -11 1 0 9 -4 17 -10 17
-5 0 -10 -7 -10 -16 0 -13 -3 -14 -13 -5 -9 7 -24 8 -47 1 -18 -5 -40 -6 -48
-1 -21 12 -1 21 51 23 39 2 48 7 63 32 l18 31 8 -33 c5 -20 5 -39 -1 -50z
m-2548 48 c22 -6 37 -14 34 -16 -6 -7 -156 22 -165 31 -9 10 81 -1 131 -15z
m1610 -8 c-3 -12 -9 -22 -14 -22 -12 0 -11 7 2 32 13 25 20 19 12 -10z m714
22 c-3 -3 -12 -4 -19 -1 -8 3 -5 6 6 6 11 1 17 -2 13 -5z m708 -14 c10 -11 16
-20 13 -20 -3 0 -13 9 -23 20 -10 11 -16 20 -13 20 3 0 13 -9 23 -20z m-1575
-5 c0 -8 -2 -15 -4 -15 -2 0 -6 7 -10 15 -3 8 -1 15 4 15 6 0 10 -7 10 -15z
m-883 -17 c-3 -8 -6 -5 -6 6 -1 11 2 17 5 13 3 -3 4 -12 1 -19z m1137 -12 c-3
-15 -8 -25 -11 -23 -2 3 -1 17 3 31 3 15 8 25 11 23 2 -3 1 -17 -3 -31z m1463
2 c-3 -7 -5 -2 -5 12 0 14 2 19 5 13 2 -7 2 -19 0 -25z m-1603 7 c3 -8 1 -15
-4 -15 -6 0 -10 6 -10 13 0 8 -4 7 -10 -3 -5 -8 -10 -10 -10 -4 0 25 25 32 34
9z m240 -29 c-3 -15 -8 -25 -11 -23 -2 3 -1 17 3 31 3 15 8 25 11 23 2 -3 1
-17 -3 -31z m-753 -47 c-1 -75 -11 -74 -11 1 0 35 3 60 6 57 4 -3 6 -30 5 -58z
m29 1 c0 -33 -3 -60 -7 -60 -5 0 -6 27 -5 60 5 77 12 77 12 0z m130 28 c0 -4
-7 -5 -15 -2 -8 4 -15 2 -15 -4 0 -5 8 -12 18 -14 13 -4 19 -15 20 -41 1 -20
-3 -39 -8 -42 -6 -4 -10 11 -10 35 0 27 -4 39 -11 34 -6 -3 -9 -14 -6 -24 2
-10 1 -24 -4 -31 -6 -10 -9 -8 -9 9 0 12 -4 22 -9 22 -5 0 -12 -10 -14 -22 -2
-13 -5 0 -5 27 -1 46 0 48 13 31 14 -19 15 -18 15 17 0 35 1 36 20 25 11 -7
20 -16 20 -20z m687 10 c-3 -8 -6 -5 -6 6 -1 11 2 17 5 13 3 -3 4 -12 1 -19z
m-561 -25 c-11 -11 -19 6 -11 24 8 17 8 17 12 0 3 -10 2 -21 -1 -24z m1794 11
c0 -2 -9 0 -20 6 -11 6 -20 13 -20 16 0 2 9 0 20 -6 11 -6 20 -13 20 -16z
m140 1 c0 5 6 0 14 -11 8 -11 14 -35 14 -53 -1 -18 -4 -27 -8 -21 -5 9 -9 9
-14 1 -4 -6 -4 -16 0 -22 3 -6 -5 -3 -20 6 -20 14 -24 21 -16 35 6 10 10 34
10 52 0 25 3 29 10 18 5 -8 10 -11 10 -5z m-2242 -41 c-5 -45 -24 -39 -20 7 3
26 8 37 14 31 5 -5 8 -22 6 -38z m-2788 32 c0 -2 -7 -7 -16 -10 -8 -3 -12 -2
-9 4 6 10 25 14 25 6z m103 -68 c-8 -43 -19 -33 -15 14 3 27 7 36 12 27 5 -8
6 -26 3 -41z m3233 25 c-10 -10 -19 5 -10 18 6 11 8 11 12 0 2 -7 1 -15 -2
-18z m-3341 -20 c-1 -20 -6 -38 -12 -40 -5 -2 -9 7 -7 19 1 13 3 31 3 41 1 9
5 17 9 17 4 0 7 -17 7 -37z m3062 0 c-3 -10 -5 -4 -5 12 0 17 2 24 5 18 2 -7
2 -21 0 -30z m41 -3 c0 -22 -4 -40 -9 -40 -10 0 -12 63 -2 73 11 11 12 9 11
-33z m339 8 c-3 -8 -6 -5 -6 6 -1 11 2 17 5 13 3 -3 4 -12 1 -19z m-220 -50
c-2 -13 -4 -3 -4 22 0 25 2 35 4 23 2 -13 2 -33 0 -45z m-432 -32 c1 -20 -2
-36 -7 -36 -9 0 -9 -1 -11 52 -1 21 2 33 7 28 5 -5 10 -25 11 -44z m1011 38
c13 3 26 0 29 -5 5 -8 -51 -15 -79 -10 -5 1 -6 -7 -3 -19 7 -28 0 -25 -17 9
-18 34 -12 43 21 30 13 -5 35 -7 49 -5z m-846 -15 c0 -5 -4 -9 -10 -9 -5 0
-10 7 -10 16 0 8 5 12 10 9 6 -3 10 -10 10 -16z m-2846 -51 c2 -27 0 -48 -5
-48 -5 0 -9 5 -9 12 0 6 -9 3 -20 -7 -18 -16 -20 -16 -20 -2 0 9 8 20 18 26 9
5 16 12 15 15 -2 3 -3 20 -3 38 0 47 17 22 24 -34z m2733 0 c-2 -13 -4 -3 -4
22 0 25 2 35 4 23 2 -13 2 -33 0 -45z m82 20 c1 -5 -3 -8 -9 -8 -5 0 -10 12
-9 28 0 24 1 25 9 7 5 -11 9 -23 9 -27z m48 -25 c-2 -16 -4 -5 -4 22 0 28 2
40 4 28 2 -13 2 -35 0 -50z m733 39 c1 -9 1 -66 0 -125 l-2 -108 34 3 c25 2
32 7 30 21 -2 9 2 17 8 17 5 0 10 -7 10 -15 0 -9 6 -12 15 -9 8 4 15 14 15 23
0 12 -2 13 -9 3 -14 -23 -27 8 -30 76 -2 48 0 62 10 60 9 -2 12 7 10 30 -3 34
5 39 32 20 18 -14 37 -106 20 -95 -6 4 -13 -6 -15 -23 -6 -38 2 -90 13 -90 4
0 6 9 4 20 -5 27 12 35 20 10 6 -19 22 -25 53 -21 6 1 12 -3 12 -9 0 -5 -4
-10 -9 -10 -5 0 -8 -8 -7 -17 0 -11 -6 -18 -16 -17 -10 1 -14 -4 -11 -12 3 -8
10 -11 17 -8 6 3 2 -2 -8 -10 -20 -16 -20 -16 0 -18 10 0 24 -2 31 -2 6 -1 15
-5 19 -9 7 -7 -17 -11 -43 -8 -8 1 -10 -5 -7 -14 4 -8 0 -23 -7 -32 -10 -12
-10 -15 -1 -9 7 4 12 1 12 -8 0 -9 5 -16 10 -16 10 0 14 13 11 40 -1 11 3 10
14 -4 8 -11 15 -14 15 -8 0 9 5 9 20 0 16 -10 24 -10 40 0 28 17 49 15 26 -3
-11 -8 -34 -15 -50 -16 -17 0 -40 -4 -51 -9 -19 -9 -19 -9 3 -16 12 -3 22 -10
22 -15 0 -13 -11 -11 -29 5 -9 8 -41 25 -71 38 -30 12 -83 38 -117 57 l-63 34
1 76 c0 42 4 102 8 134 5 43 4 61 -6 69 -9 7 -10 14 -3 23 5 6 6 16 2 20 -4 5
-2 5 5 1 6 -3 12 -14 13 -24z m877 -49 c-2 -16 -4 -3 -4 27 0 30 2 43 4 28 2
-16 2 -40 0 -55z m-1770 20 c-3 -10 -5 -2 -5 17 0 19 2 27 5 18 2 -10 2 -26 0
-35z m1660 34 c3 -4 -8 -7 -25 -7 -18 0 -32 4 -32 9 0 11 46 8 57 -2z m58 -6
c-3 -6 -11 -11 -17 -11 -6 0 -6 6 2 15 14 17 26 13 15 -4z m87 -3 c-7 -7 -12
-8 -12 -2 0 14 12 26 19 19 2 -3 -1 -11 -7 -17z m-4113 -18 c10 -31 -4 -45
-15 -15 -4 10 -19 15 -43 15 -20 0 -54 4 -76 8 l-40 7 60 6 c33 3 70 6 82 7
15 2 24 -6 32 -28z m2558 -32 c-2 -13 -4 -3 -4 22 0 25 2 35 4 23 2 -13 2 -33
0 -45z m43 47 c0 -8 -4 -15 -10 -15 -5 0 -10 7 -10 15 0 8 5 15 10 15 6 0 10
-7 10 -15z m-157 -36 c-6 -23 -43 -26 -43 -3 0 14 3 14 15 4 13 -11 15 -8 15
16 0 20 3 25 9 15 5 -7 6 -22 4 -32z m719 2 c1 -18 5 -34 10 -37 13 -8 9 -31
-6 -31 -10 0 -14 16 -15 55 0 31 2 53 5 50 3 -3 6 -20 6 -37z m-445 -33 c-2
-13 -4 -3 -4 22 0 25 2 35 4 23 2 -13 2 -33 0 -45z m112 19 c1 -5 -3 -6 -8 -2
-5 3 -12 1 -16 -5 -3 -5 -1 -10 4 -10 19 0 12 -32 -9 -37 -15 -4 -18 -11 -14
-29 3 -13 2 -24 -4 -24 -13 0 -22 49 -11 56 5 3 9 14 9 24 0 10 7 25 15 34 8
8 15 21 16 28 0 12 17 -18 18 -35z m1005 -17 c-4 -37 -2 -60 5 -60 5 0 8 -15
5 -35 -2 -19 -6 -51 -9 -71 -3 -30 -2 -34 10 -24 12 10 15 10 15 0 0 -8 3 -10
7 -7 7 8 32 -34 26 -45 -8 -15 -23 -8 -23 10 0 14 -2 15 -10 2 -5 -8 -15 -15
-22 -15 -7 0 -14 -10 -16 -22 -2 -13 -8 -23 -13 -23 -11 0 -10 128 1 135 4 3
4 22 -1 42 -5 21 -9 64 -9 97 0 48 3 57 15 52 8 -3 15 -1 15 3 0 5 -6 12 -12
14 -8 3 -7 6 4 6 15 1 16 -7 12 -59z m408 48 c5 -42 4 -68 -2 -68 -5 0 -10 18
-12 40 -2 22 0 40 4 40 5 0 9 -6 10 -12z m68 -4 c0 -8 -5 -12 -10 -9 -6 4 -8
11 -5 16 9 14 15 11 15 -7z m-380 -4 c0 -5 16 -10 35 -10 23 0 33 -4 30 -12
-5 -14 -55 -18 -55 -6 0 4 -7 5 -15 2 -10 -4 -15 0 -15 15 0 12 5 21 10 21 6
0 10 -4 10 -10z m251 -23 c-8 -8 -11 -7 -11 4 0 20 13 34 18 19 3 -7 -1 -17
-7 -23z m-1244 -14 c-3 -10 -5 -4 -5 12 0 17 2 24 5 18 2 -7 2 -21 0 -30z
m1640 5 c-3 -7 -5 -2 -5 12 0 14 2 19 5 13 2 -7 2 -19 0 -25z m-2395 -10 c-9
-9 -12 -7 -12 12 0 19 3 21 12 12 9 -9 9 -15 0 -24z m-2219 15 c-13 -2 -35 -2
-50 0 -16 2 -5 4 22 4 28 0 40 -2 28 -4z m1807 -23 c15 -8 22 -90 8 -90 -11 0
-23 24 -20 41 2 12 -5 17 -23 17 -21 0 -25 -5 -26 -32 l-1 -31 -9 35 c-11 46
6 83 35 74 12 -4 28 -10 36 -14z m-2025 -15 c17 -7 70 -15 118 -18 94 -5 109
-10 87 -30 -10 -10 -11 -9 -5 2 6 11 4 13 -9 8 -10 -4 -59 -8 -109 -8 -87 -2
-89 -2 -37 -9 30 -5 79 -8 108 -9 53 -1 59 -5 43 -30 -12 -19 -246 -30 -264
-12 -8 8 15 11 89 12 54 0 117 4 139 8 34 6 25 8 -65 16 -58 4 -115 9 -127 9
-13 1 -23 6 -23 12 0 7 6 12 13 11 6 0 37 1 67 3 l55 3 -45 7 c-25 5 -53 6
-64 3 -18 -5 -36 11 -36 34 0 13 12 11 65 -12z m3093 -23 c-20 -4 -24 -33 -8
-62 7 -13 7 -21 0 -25 -6 -4 -8 -15 -5 -26 4 -10 2 -19 -4 -19 -6 0 -8 -12 -5
-29 6 -27 4 -30 -27 -35 -77 -14 -209 -11 -209 4 0 6 43 10 110 10 l109 0 0
48 c-1 28 -8 54 -17 65 -15 16 -14 17 1 11 14 -5 17 0 17 25 0 17 5 31 10 31
6 0 16 12 22 28 l11 27 6 -25 c6 -19 3 -26 -11 -28z m1097 14 c-9 -13 -12 -26
-8 -29 3 -4 1 -7 -5 -7 -17 0 -26 20 -14 32 6 6 8 16 5 23 -3 9 2 12 16 8 18
-5 19 -7 6 -27z m-1490 14 c3 -5 1 -10 -4 -10 -6 0 -11 5 -11 10 0 6 2 10 4
10 3 0 8 -4 11 -10z m-305 -10 c0 -5 -4 -10 -10 -10 -5 0 -10 5 -10 10 0 6 5
10 10 10 6 0 10 -4 10 -10z m50 -16 c0 -8 -3 -13 -7 -13 -22 4 -33 -3 -33 -17
0 -13 3 -14 14 -5 10 9 15 8 20 -4 3 -8 0 -15 -7 -16 -9 0 -9 -2 1 -6 7 -3 12
-23 12 -49 0 -42 -6 -49 -40 -46 -11 1 -5 -47 6 -58 9 -9 9 -21 1 -46 l-10
-34 -12 34 c-16 45 -20 196 -5 196 5 0 11 -17 11 -37 l2 -38 6 40 c3 22 3 42
-1 43 -15 7 -8 61 9 71 21 11 33 6 33 -15z m1914 -165 c5 -132 4 -195 -3 -202
-8 -8 -11 38 -12 158 0 94 -1 185 -2 203 -1 17 1 32 4 32 3 0 9 -86 13 -191z
m-1504 177 c0 -3 -4 -8 -10 -11 -5 -3 -10 -1 -10 4 0 6 5 11 10 11 6 0 10 -2
10 -4z m1177 -18 c-3 -8 -6 -5 -6 6 -1 11 2 17 5 13 3 -3 4 -12 1 -19z m-4253
-40 c-9 -59 -14 -60 -14 -5 0 26 5 47 10 47 6 0 8 -16 4 -42z m2496 32 c0 -5
-13 -10 -30 -10 -16 0 -30 5 -30 10 0 6 14 10 30 10 17 0 30 -4 30 -10z m430
-10 c0 -5 -7 -10 -16 -10 -8 0 -12 5 -9 10 3 6 10 10 16 10 5 0 9 -4 9 -10z
m400 -11 c0 -5 -4 -9 -10 -9 -5 0 -10 7 -10 16 0 8 5 12 10 9 6 -3 10 -10 10
-16z m1327 -16 c-3 -10 -5 -4 -5 12 0 17 2 24 5 18 2 -7 2 -21 0 -30z m-2047
17 c0 -5 -4 -10 -10 -10 -5 0 -10 5 -10 10 0 6 5 10 10 10 6 0 10 -4 10 -10z
m1567 -22 c-3 -7 -5 -2 -5 12 0 14 2 19 5 13 2 -7 2 -19 0 -25z m558 23 c-3
-5 -1 -12 4 -15 5 -3 7 -15 4 -25 -6 -24 -33 -36 -33 -15 0 9 5 12 12 8 8 -5
9 2 5 24 -4 20 -2 32 4 32 6 0 8 -4 4 -9z m75 -56 l-7 -50 -2 60 c0 34 3 55 8
50 4 -6 5 -32 1 -60z m130 4 c0 -16 -4 -29 -9 -29 -12 0 -21 25 -21 57 0 21 2
24 15 13 8 -7 15 -25 15 -41z m69 19 c0 -28 -2 -30 -9 -13 -12 28 -12 45 0 45
6 0 10 -15 9 -32z m-2511 -23 c1 -25 -1 -45 -6 -45 -4 0 -7 17 -6 38 3 50 4
52 7 52 2 0 5 -20 5 -45z m69 -7 c-2 -13 -4 -5 -4 17 -1 22 1 32 4 23 2 -10 2
-28 0 -40z m2270 15 c-3 -10 -5 -4 -5 12 0 17 2 24 5 18 2 -7 2 -21 0 -30z
m293 27 c0 -5 -4 -10 -10 -10 -5 0 -10 5 -10 10 0 6 5 10 10 10 6 0 10 -4 10
-10z m-3200 -25 c0 -14 -4 -25 -9 -25 -4 0 -6 11 -3 25 2 14 6 25 8 25 2 0 4
-11 4 -25z m2557 3 c-3 -8 -6 -5 -6 6 -1 11 2 17 5 13 3 -3 4 -12 1 -19z m560
-15 c-3 -10 -5 -4 -5 12 0 17 2 24 5 18 2 -7 2 -21 0 -30z m-4555 -15 c-6 -6
-8 -1 -7 14 3 32 7 36 12 14 3 -10 1 -22 -5 -28z m-452 22 c0 -5 -4 -10 -10
-10 -5 0 -10 5 -10 10 0 6 5 10 10 10 6 0 10 -4 10 -10z m2338 -27 c-2 -28 -8
-38 -21 -39 -12 -1 -13 -1 -2 3 9 3 15 16 15 35 0 25 -3 29 -20 25 -11 -3 -20
-1 -20 4 0 5 12 9 26 9 23 0 25 -3 22 -37z m1799 -10 c-3 -10 -5 -2 -5 17 0
19 2 27 5 18 2 -10 2 -26 0 -35z m233 33 c0 -8 -6 -16 -14 -19 -10 -4 -12 0
-9 14 6 22 23 26 23 5z m-2913 -18 c-3 -8 -6 -5 -6 6 -1 11 2 17 5 13 3 -3 4
-12 1 -19z m1260 -30 c-2 -13 -4 -5 -4 17 -1 22 1 32 4 23 2 -10 2 -28 0 -40z
m167 11 c-6 -48 -14 -48 -14 0 0 23 4 40 9 37 5 -3 7 -20 5 -37z m1706 37 c0
-3 -4 -8 -10 -11 -5 -3 -10 -1 -10 4 0 6 5 11 10 11 6 0 10 -2 10 -4z m-1563
-48 c-3 -7 -5 -2 -5 12 0 14 2 19 5 13 2 -7 2 -19 0 -25z m130 10 c-3 -8 -6
-5 -6 6 -1 11 2 17 5 13 3 -3 4 -12 1 -19z m-1330 -15 c-3 -3 -11 -2 -17 2 -9
6 -9 10 1 16 14 8 27 -7 16 -18z m916 12 c-3 -9 -8 -14 -10 -11 -3 3 -2 9 2
15 9 16 15 13 8 -4z m1377 5 c0 -5 -9 -10 -21 -10 -11 0 -17 5 -14 10 3 6 13
10 21 10 8 0 14 -4 14 -10z m110 0 c0 -5 -4 -10 -10 -10 -5 0 -10 5 -10 10 0
6 5 10 10 10 6 0 10 -4 10 -10z m247 -15 c0 -8 -4 -15 -9 -15 -4 0 -8 7 -8 15
0 8 4 15 8 15 5 0 9 -7 9 -15z m471 -15 c-1 -16 -5 -30 -9 -30 -12 0 -21 34
-10 38 6 2 9 8 5 13 -3 5 0 9 6 9 5 0 9 -13 8 -30z m-1571 -17 c-3 -10 -5 -4
-5 12 0 17 2 24 5 18 2 -7 2 -21 0 -30z m849 -29 c-1 -37 3 -62 12 -70 7 -8
11 -18 7 -24 -3 -6 1 -7 9 -4 9 3 16 1 16 -5 0 -23 -30 -9 -47 22 -30 57 -28
134 4 137 1 0 1 -25 -1 -56z m-4156 21 c0 -8 -4 -17 -10 -20 -6 -4 -10 5 -10
20 0 15 4 24 10 20 6 -3 10 -12 10 -20z m380 -15 c-15 -28 -20 -23 -13 13 4
18 9 25 15 19 6 -6 6 -18 -2 -32z m2060 20 c0 -11 -4 -20 -10 -20 -5 0 -10 9
-10 20 0 11 5 20 10 20 6 0 10 -9 10 -20z m30 -2 c0 -19 -2 -20 -10 -8 -13 19
-13 30 0 30 6 0 10 -10 10 -22z m1457 -4 c-9 -9 -28 6 -21 18 4 6 10 6 17 -1
6 -6 8 -13 4 -17z m708 -16 c-2 -25 -8 -34 -24 -36 -11 -2 -21 1 -21 7 0 6 4
11 10 11 5 0 12 11 16 25 9 36 22 31 19 -7z m-1782 11 c-6 -6 -9 -18 -6 -25 3
-8 0 -14 -6 -14 -6 0 -11 4 -11 9 0 19 12 41 23 41 8 0 8 -3 0 -11z m-295 -29
c1 -16 -3 -30 -8 -30 -6 0 -9 4 -5 9 3 5 1 12 -5 16 -14 9 -12 35 3 35 7 0 14
-13 15 -30z m92 16 c0 -3 -4 -8 -10 -11 -5 -3 -10 -1 -10 4 0 6 5 11 10 11 6
0 10 -2 10 -4z m160 -5 c0 -5 -6 -11 -12 -14 -7 -2 5 -9 26 -15 22 -6 43 -9
47 -6 5 3 6 -2 3 -10 -3 -8 -12 -17 -20 -20 -8 -3 -12 -2 -9 3 3 5 1 12 -5 16
-5 3 -10 0 -10 -7 -1 -9 -4 -8 -13 3 -7 9 -18 14 -24 12 -13 -5 -18 28 -6 40
9 10 23 9 23 -2z m740 -1 c0 -5 -19 -11 -42 -11 -25 -1 -33 -4 -20 -6 21 -4
24 -9 20 -44 -2 -27 0 -39 9 -39 8 0 13 14 13 40 0 22 4 40 9 40 8 0 5 -147
-4 -175 -1 -6 -20 -11 -41 -12 -33 -1 -42 3 -60 30 -11 18 -26 31 -33 29 -9
-2 -9 3 -1 18 9 17 7 22 -17 31 -22 8 -24 12 -13 19 9 6 16 6 18 0 6 -16 22 0
22 21 0 37 44 69 95 69 25 0 45 -4 45 -10z m393 -5 c-3 -9 -8 -14 -10 -11 -3
3 -2 9 2 15 9 16 15 13 8 -4z m887 5 c0 -5 -2 -10 -4 -10 -3 0 -8 5 -11 10 -3
6 -1 10 4 10 6 0 11 -4 11 -10z m52 -20 c-2 -16 -8 -30 -13 -30 -10 0 -12 43
-2 53 14 14 19 6 15 -23z m-2215 -2 c-3 -8 -6 -5 -6 6 -1 11 2 17 5 13 3 -3 4
-12 1 -19z m2287 -5 c-1 -16 -2 -38 -3 -50 -1 -28 -31 -31 -31 -3 0 11 5 20
10 20 6 0 10 4 10 9 0 6 -9 8 -20 6 -11 -2 -20 0 -20 6 0 5 9 9 19 9 10 0 21
7 25 15 8 23 12 18 10 -12z m-1350 -4 c49 -28 46 -34 -4 -9 -22 11 -40 23 -40
25 0 8 8 6 44 -16z m731 -15 c1 -13 -4 -25 -10 -28 -7 -2 -9 9 -7 31 5 37 17
36 17 -3z m180 18 c-3 -3 -11 0 -18 7 -9 10 -8 11 6 5 10 -3 15 -9 12 -12z
m55 8 c0 -5 -7 -10 -15 -10 -8 0 -15 5 -15 10 0 6 7 10 15 10 8 0 15 -4 15
-10z m685 0 c-3 -5 -10 -10 -16 -10 -5 0 -9 5 -9 10 0 6 7 10 16 10 8 0 12 -4
9 -10z m-5265 -41 c0 -30 166 -48 315 -35 31 3 47 16 40 34 -3 9 -3 13 1 9 4
-4 17 1 28 10 11 10 6 -1 -12 -23 -36 -47 -59 -54 -184 -54 -86 0 -172 15
-186 33 -5 7 -12 26 -16 42 -5 22 -4 26 4 15 5 -8 10 -22 10 -31z m4840 31 c0
-5 -4 -10 -10 -10 -5 0 -10 5 -10 10 0 6 5 10 10 10 6 0 10 -4 10 -10z m-1683
-22 c2 -17 0 -19 -7 -8 -5 8 -6 18 -4 22 8 12 10 10 11 -14z m139 7 c8 -21 -6
-41 -17 -24 -12 19 -11 39 1 39 6 0 13 -7 16 -15z m1154 -1 c0 -8 -4 -12 -10
-9 -5 3 -10 10 -10 16 0 5 5 9 10 9 6 0 10 -7 10 -16z m-1515 -3 c3 -5 23 -8
44 -7 22 2 45 0 51 -4 6 -4 -8 -6 -32 -6 -24 1 -58 -2 -75 -5 -35 -7 -41 -1
-21 19 14 14 25 15 33 3z m310 -1 c3 -5 1 -10 -4 -10 -6 0 -11 5 -11 10 0 6 2
10 4 10 3 0 8 -4 11 -10z m995 0 c0 -5 -2 -10 -4 -10 -3 0 -8 5 -11 10 -3 6
-1 10 4 10 6 0 11 -4 11 -10z m35 0 c-3 -5 -10 -10 -16 -10 -5 0 -9 5 -9 10 0
6 7 10 16 10 8 0 12 -4 9 -10z m-4758 -30 c3 -11 9 -20 14 -20 13 0 11 -28 -2
-36 -6 -3 -15 0 -20 7 -8 13 -13 5 -10 -14 1 -4 -8 -3 -19 3 -24 13 -27 40 -4
40 10 0 14 6 11 14 -3 8 -3 17 0 20 12 12 25 6 30 -14z m128 -12 c15 -30 15
-34 -2 -45 -21 -16 -25 -16 -49 2 -17 13 -17 16 -3 28 8 6 18 20 22 30 9 24
13 22 32 -15z m558 25 c-7 -2 -21 -2 -30 0 -10 3 -4 5 12 5 17 0 24 -2 18 -5z
m2426 -24 c-24 -15 -30 -10 -11 9 9 10 19 14 21 9 2 -5 -3 -13 -10 -18z m94 9
c15 -3 30 -1 33 3 3 5 12 9 21 9 12 0 13 -3 4 -13 -6 -8 -8 -17 -4 -20 3 -4
-5 -7 -19 -7 -14 0 -39 -3 -56 -6 -27 -6 -30 -9 -21 -25 5 -11 16 -19 24 -19
7 0 16 -4 19 -8 3 -5 -15 -8 -40 -8 -24 1 -44 4 -44 9 0 4 4 7 9 7 10 0 25 56
23 84 -2 14 1 16 10 9 7 -6 25 -13 41 -15z m977 -4 c0 -2 -9 0 -20 6 -11 6
-20 13 -20 16 0 2 9 0 20 -6 11 -6 20 -13 20 -16z m821 12 c5 3 9 -5 8 -18 0
-13 -3 -17 -6 -10 -2 6 -9 10 -14 6 -5 -3 -9 5 -8 18 0 13 3 17 6 10 2 -6 9
-10 14 -6z m55 -31 c7 -28 6 -29 -9 -13 -9 9 -17 27 -17 39 0 30 16 14 26 -26z
m319 -13 c-8 -8 -26 39 -19 50 5 8 11 1 16 -17 4 -16 6 -31 3 -33z m160 48 c3
-5 -1 -10 -9 -10 -8 0 -18 5 -21 10 -3 6 1 10 9 10 8 0 18 -4 21 -10z m244
-25 l15 -30 4 28 c4 35 17 35 30 -2 l10 -29 -54 -7 c-29 -3 -58 -4 -62 -1 -10
6 -8 48 2 64 12 19 41 6 55 -23z m-5536 11 c-13 -22 -66 -63 -92 -71 -16 -5
-21 -4 -17 4 4 6 13 11 20 11 6 0 27 16 46 35 34 35 58 47 43 21z m3077 7 c0
-5 -5 -15 -10 -23 -8 -12 -10 -11 -10 8 0 12 5 22 10 22 6 0 10 -3 10 -7z
m371 -11 c-7 -2 -18 1 -23 6 -8 8 -4 9 13 5 13 -4 18 -8 10 -11z m1437 -6 c-3
-21 -28 -35 -28 -16 0 6 5 8 10 5 6 -3 10 -1 10 4 0 6 -6 11 -14 11 -8 0 -17
4 -20 9 -3 5 6 8 19 7 19 -1 25 -6 23 -20z m192 14 c0 -5 -4 -10 -10 -10 -5 0
-10 5 -10 10 0 6 5 10 10 10 6 0 10 -4 10 -10z m570 0 c5 0 16 -7 24 -16 22
-21 3 -58 -25 -49 -14 5 -19 2 -19 -11 0 -37 -11 -4 -14 40 -2 37 0 46 12 41
7 -3 17 -5 22 -5z m-2317 -20 c-3 -12 -8 -19 -11 -16 -5 6 5 36 12 36 2 0 2
-9 -1 -20z m243 -17 c-11 -11 -17 4 -9 23 7 18 8 18 11 1 2 -10 1 -21 -2 -24z
m1441 5 c-3 -7 -5 -2 -5 12 0 14 2 19 5 13 2 -7 2 -19 0 -25z m-1520 16 c-3
-3 -12 -4 -19 -1 -8 3 -5 6 6 6 11 1 17 -2 13 -5z m1455 -38 c10 -20 9 -20
-14 2 -13 12 -28 19 -32 15 -4 -4 -4 0 0 10 5 14 9 15 21 6 8 -7 19 -22 25
-33z m95 22 c-3 -8 -6 -5 -6 6 -1 11 2 17 5 13 3 -3 4 -12 1 -19z m690 -10
c-11 -31 -12 -31 -15 -9 -3 19 10 40 25 41 1 0 -3 -15 -10 -32z m-4097 -18 c0
-39 -1 -40 -34 -40 -38 0 -44 9 -38 52 4 24 9 28 38 28 33 0 34 -1 34 -40z
m1720 30 c0 -5 -4 -10 -10 -10 -5 0 -10 5 -10 10 0 6 5 10 10 10 6 0 10 -4 10
-10z m1857 -12 c-3 -8 -6 -5 -6 6 -1 11 2 17 5 13 3 -3 4 -12 1 -19z m-4990
-10 c-3 -8 -6 -5 -6 6 -1 11 2 17 5 13 3 -3 4 -12 1 -19z m2566 -8 c-3 -11 -9
-20 -14 -20 -10 0 -12 24 -2 33 13 13 21 7 16 -13z m265 8 c-5 -14 -88 -24
-88 -10 0 16 13 22 53 22 26 0 37 -4 35 -12z m145 6 c26 -4 44 -11 41 -16 -9
-14 -114 -5 -114 10 0 14 9 14 73 6z m1142 -4 c4 -6 -8 -10 -30 -10 -22 0 -34
4 -30 10 3 6 17 10 30 10 13 0 27 -4 30 -10z m749 -5 c8 -8 19 -15 25 -15 6 0
11 -7 11 -16 0 -8 -5 -12 -11 -8 -8 4 -9 0 -4 -15 11 -34 -2 -24 -28 24 -25
45 -22 59 7 30z m-604 -5 c0 -5 -4 -10 -10 -10 -5 0 -10 5 -10 10 0 6 5 10 10
10 6 0 10 -4 10 -10z m675 -9 c3 -5 1 -12 -5 -16 -5 -3 -10 1 -10 9 0 18 6 21
15 7z m58 -16 c-7 -21 -13 -19 -13 6 0 11 4 18 10 14 5 -3 7 -12 3 -20z
m-4879 0 c-7 -16 -39 -20 -48 -6 -7 10 9 19 36 20 12 1 15 -4 12 -14z m191 -3
c5 -4 -3 -10 -20 -13 -34 -8 -145 -11 -145 -5 0 2 3 12 7 21 5 15 15 16 77 10
39 -4 75 -10 81 -13z m2335 3 c0 -8 -4 -15 -10 -15 -5 0 -10 7 -10 15 0 8 5
15 10 15 6 0 10 -7 10 -15z m1011 -2 c12 -15 12 -16 -3 -11 -10 4 -19 1 -22
-9 -6 -14 -8 -14 -20 3 -24 32 20 48 45 17z m889 7 c0 -5 -4 -10 -10 -10 -5 0
-10 5 -10 10 0 6 5 10 10 10 6 0 10 -4 10 -10z m835 -1 c6 -8 -61 -7 -70 2 -2
3 11 5 30 6 19 1 37 -3 40 -8z m-2785 -34 c0 -5 -5 -3 -10 5 -5 8 -10 20 -10
25 0 6 5 3 10 -5 5 -8 10 -19 10 -25z m2690 15 c0 -5 -2 -10 -4 -10 -3 0 -8 5
-11 10 -3 6 -1 10 4 10 6 0 11 -4 11 -10z m-5430 -10 c0 -5 -4 -10 -10 -10 -5
0 -10 5 -10 10 0 6 5 10 10 10 6 0 10 -4 10 -10z m2756 -20 c36 0 64 -4 64
-10 0 -6 -33 -10 -80 -10 -44 0 -80 2 -80 5 0 12 25 33 28 24 2 -5 33 -9 68
-9z m1008 -22 c-3 -4 1 -5 9 -2 9 3 13 13 10 25 -7 26 14 25 22 -1 4 -13 0
-31 -9 -45 -26 -40 -60 -30 -64 19 -3 38 7 51 23 29 7 -10 11 -21 9 -25z
m1246 32 c0 -5 -5 -10 -11 -10 -5 0 -7 5 -4 10 3 6 8 10 11 10 2 0 4 -4 4 -10z
m53 -15 c-3 -9 -8 -14 -10 -11 -3 3 -2 9 2 15 9 16 15 13 8 -4z m-603 -13 c0
-5 13 -7 29 -6 20 1 37 -6 53 -23 22 -23 22 -25 6 -37 -10 -7 -18 -18 -18 -25
0 -6 -4 -11 -10 -11 -13 0 -13 23 0 36 7 7 6 16 -3 27 -11 15 -15 16 -31 4
-18 -13 -18 -15 -1 -40 15 -23 15 -27 2 -27 -27 0 -49 31 -45 61 3 15 1 26 -4
23 -10 -6 -11 10 -1 19 9 10 23 9 23 -1z m-1091 -45 c1 -4 -5 -2 -13 5 -7 7
-11 19 -8 27 4 11 7 10 13 -5 4 -10 8 -23 8 -27z m-437 -19 c20 -1 39 -7 42
-14 4 -11 -6 -13 -42 -9 -26 2 -153 9 -282 15 -312 15 -291 13 -281 28 6 10
68 15 247 20 l239 7 20 -23 c14 -15 32 -23 57 -24z m673 12 c0 -22 -3 -40 -7
-40 -5 0 -8 18 -8 40 0 22 3 40 8 40 4 0 7 -18 7 -40z m1385 25 c0 -8 -4 -15
-9 -15 -13 0 -22 16 -14 24 11 11 23 6 23 -9z m235 5 c4 -6 -5 -10 -19 -10
-14 0 -26 5 -26 10 0 6 9 10 19 10 11 0 23 -4 26 -10z m-1515 -10 c0 -5 -10
-11 -22 -11 l-23 -2 23 -4 c17 -3 22 -11 22 -35 0 -29 -2 -30 -31 -24 -17 3
-38 6 -45 6 -16 0 -18 33 -4 61 8 13 21 19 45 19 19 0 35 -4 35 -10z m-1859
-17 c10 -11 5 -13 -27 -13 -21 0 -140 -3 -264 -7 -211 -6 -224 -5 -211 11 8 9
20 15 28 12 7 -3 13 -2 13 3 0 14 447 8 461 -6z m269 6 c0 -6 -84 -17 -138
-18 -20 0 -22 3 -11 15 9 11 30 14 81 12 37 -1 68 -5 68 -9z m850 2 c0 -5 -7
-11 -15 -15 -15 -5 -20 5 -8 17 9 10 23 9 23 -2z m2083 -42 c-6 -6 -7 3 -4 23
4 28 6 29 9 9 2 -13 0 -27 -5 -32z m427 41 c22 -7 21 -8 -12 -9 -21 -1 -38 4
-38 9 0 11 14 11 50 0z m-4470 -25 c0 -9 -9 -15 -25 -15 -26 0 -34 15 -12 23
23 10 37 7 37 -8z m3677 -7 c-3 -8 -6 -5 -6 6 -1 11 2 17 5 13 3 -3 4 -12 1
-19z m53 -29 c0 -21 -4 -39 -10 -39 -5 0 -9 3 -9 8 1 4 1 9 0 12 -2 3 -4 19
-7 37 -3 25 -1 31 11 27 10 -4 15 -20 15 -45z m-1378 9 c-8 -8 -9 -4 -5 13 4
13 8 18 11 10 2 -7 -1 -18 -6 -23z m1314 -8 c8 0 14 -8 14 -18 0 -11 -7 -18
-20 -18 -17 0 -20 6 -19 41 1 23 4 30 6 18 2 -13 11 -23 19 -23z m-1431 20 c4
-6 -30 -10 -95 -10 -65 0 -99 4 -95 10 3 6 46 10 95 10 49 0 92 -4 95 -10z
m295 -3 c0 -9 -22 -11 -80 -9 -44 2 -78 7 -75 12 9 14 155 11 155 -3z m278
-21 c3 -12 -1 -17 -10 -14 -7 3 -15 13 -16 22 -3 12 1 17 10 14 7 -3 15 -13
16 -22z m315 17 c61 -5 67 -8 67 -28 0 -22 -3 -23 -62 -19 -111 9 -128 13
-128 34 0 23 13 24 123 13z m1415 0 c-10 -2 -26 -2 -35 0 -10 3 -2 5 17 5 19
0 27 -2 18 -5z m97 -3 c3 -5 -1 -10 -9 -10 -9 0 -16 5 -16 10 0 6 4 10 9 10 6
0 13 -4 16 -10z m-3247 -57 c-16 -2 -40 -2 -55 0 -16 2 -3 4 27 4 30 0 43 -2
28 -4z m2056 -14 c-3 -5 -10 -7 -15 -3 -5 3 -7 10 -3 15 3 5 10 7 15 3 5 -3 7
-10 3 -15z m-2721 -6 c-13 -2 -35 -2 -50 0 -16 2 -5 4 22 4 28 0 40 -2 28 -4z
m2422 -14 c35 -1 32 -3 -25 -13 -36 -7 -66 -11 -68 -11 -1 1 1 10 4 19 5 12
13 16 28 12 11 -3 39 -6 61 -7z"/>
<path d="M3017 1474 c-4 -4 -7 -14 -7 -23 0 -11 3 -12 11 -4 6 6 10 16 7 23
-2 6 -7 8 -11 4z"/>
<path d="M3017 1423 c-9 -16 -7 -88 2 -74 5 8 9 29 9 47 0 34 -3 41 -11 27z"/>
<path d="M2848 1370 c-2 -37 1 -50 12 -53 11 -3 16 5 17 29 2 18 -2 36 -7 39
-6 4 -8 10 -5 15 3 5 1 11 -4 14 -5 3 -11 -16 -13 -44z"/>
<path d="M2822 1390 c0 -14 2 -19 5 -12 2 6 2 18 0 25 -3 6 -5 1 -5 -13z"/>
<path d="M2893 1355 c-9 -25 4 -29 17 -6 7 15 7 21 0 21 -6 0 -13 -7 -17 -15z"/>
<path d="M2760 1350 c0 -5 5 -10 10 -10 6 0 10 5 10 10 0 6 -4 10 -10 10 -5 0
-10 -4 -10 -10z"/>
<path d="M2930 1305 c0 -8 2 -15 4 -15 2 0 6 7 10 15 3 8 1 15 -4 15 -6 0 -10
-7 -10 -15z"/>
<path d="M766 1305 c-3 -8 -1 -15 4 -15 6 0 10 7 10 15 0 8 -2 15 -4 15 -2 0
-6 -7 -10 -15z"/>
<path d="M795 1211 c-6 -11 9 -23 19 -14 9 9 7 23 -3 23 -6 0 -12 -4 -16 -9z"/>
<path d="M611 1034 c0 -11 3 -14 6 -6 3 7 2 16 -1 19 -3 4 -6 -2 -5 -13z"/>
<path d="M612 980 c0 -19 2 -27 5 -17 2 9 2 25 0 35 -3 9 -5 1 -5 -18z"/>
<path d="M868 813 c7 -3 16 -2 19 1 4 3 -2 6 -13 5 -11 0 -14 -3 -6 -6z"/>
<path d="M470 1266 c0 -9 5 -16 10 -16 6 0 10 4 10 9 0 6 -4 13 -10 16 -5 3
-10 -1 -10 -9z"/>
<path d="M3096 974 c-8 -22 -4 -25 11 -9 7 8 9 16 4 19 -5 3 -12 -1 -15 -10z"/>
<path d="M3117 915 c-4 -8 -2 -17 3 -20 6 -4 10 3 10 14 0 25 -6 27 -13 6z"/>
<path d="M4305 1100 c-16 -7 -17 -9 -3 -9 9 -1 20 4 23 9 7 11 7 11 -20 0z"/>
<path d="M5460 970 c0 -5 5 -10 11 -10 5 0 7 5 4 10 -3 6 -8 10 -11 10 -2 0
-4 -4 -4 -10z"/>
<path d="M4190 625 c-7 -9 -8 -15 -2 -15 5 0 12 7 16 15 3 8 4 15 2 15 -2 0
-9 -7 -16 -15z"/>
<path d="M3111 684 c0 -11 3 -14 6 -6 3 7 2 16 -1 19 -3 4 -6 -2 -5 -13z"/>
<path d="M4010 450 c0 -12 69 -10 76 2 3 4 -13 8 -35 8 -23 0 -41 -5 -41 -10z"/>
<path d="M5976 482 c-2 -4 -1 -14 5 -22 7 -12 9 -10 9 8 0 23 -5 28 -14 14z"/>
<path d="M1910 440 c0 -25 4 -30 25 -30 21 0 25 5 25 30 0 25 -4 30 -25 30
-21 0 -25 -5 -25 -30z"/>
<path d="M1106 2068 c-14 -114 -15 -138 -7 -142 4 -3 9 23 10 57 1 34 4 77 7
95 4 17 4 32 1 32 -3 0 -8 -19 -11 -42z"/>
<path d="M3095 2020 c3 -5 8 -10 11 -10 2 0 4 5 4 10 0 6 -5 10 -11 10 -5 0
-7 -4 -4 -10z"/>
<path d="M3400 1999 c0 -5 5 -7 10 -4 6 3 10 8 10 11 0 2 -4 4 -10 4 -5 0 -10
-5 -10 -11z"/>
<path d="M2465 1960 c3 -5 8 -10 11 -10 2 0 4 5 4 10 0 6 -5 10 -11 10 -5 0
-7 -4 -4 -10z"/>
<path d="M911 1940 c0 -14 -7 -34 -15 -45 -13 -20 -21 -59 -32 -161 l-6 -52
40 11 39 10 -4 81 c-4 86 -20 198 -22 156z m9 -125 c0 -8 -5 -15 -11 -15 -5 0
-7 -4 -4 -10 3 -5 1 -10 -4 -10 -6 0 -11 11 -11 25 0 16 6 25 15 25 8 0 15 -7
15 -15z m-14 -81 c-18 -17 -26 -18 -26 -1 0 7 9 13 20 14 18 2 18 0 6 -13z"/>
<path d="M2240 1910 c0 -5 5 -10 10 -10 6 0 10 5 10 10 0 6 -4 10 -10 10 -5 0
-10 -4 -10 -10z"/>
<path d="M3265 1900 c3 -5 8 -10 11 -10 2 0 4 5 4 10 0 6 -5 10 -11 10 -5 0
-7 -4 -4 -10z"/>
<path d="M3225 1780 c3 -5 8 -10 11 -10 2 0 4 5 4 10 0 6 -5 10 -11 10 -5 0
-7 -4 -4 -10z"/>
<path d="M970 1730 c0 -5 5 -10 10 -10 6 0 10 5 10 10 0 6 -4 10 -10 10 -5 0
-10 -4 -10 -10z"/>
<path d="M3007 1656 c-4 -10 -1 -13 9 -9 15 6 19 23 5 23 -5 0 -11 -7 -14 -14z"/>
<path d="M2898 1643 c-11 -15 -11 -16 6 -10 14 6 17 4 12 -8 -3 -8 -9 -22 -13
-32 -4 -11 -3 -14 5 -9 7 4 12 14 12 22 0 8 4 13 8 10 14 -8 10 19 -4 32 -9 8
-15 7 -26 -5z"/>
<path d="M1008 1623 c7 -3 16 -2 19 1 4 3 -2 6 -13 5 -11 0 -14 -3 -6 -6z"/>
<path d="M948 1613 c6 -2 18 -2 25 0 6 3 1 5 -13 5 -14 0 -19 -2 -12 -5z"/>
<path d="M828 1593 c-32 -8 -58 -19 -58 -23 0 -14 18 -21 25 -10 3 5 15 10 26
10 10 0 19 4 19 8 0 5 21 13 48 19 26 6 36 10 22 11 -14 0 -51 -7 -82 -15z"/>
<path d="M870 1572 c0 -4 10 -9 22 -9 18 -2 20 0 8 7 -18 12 -30 13 -30 2z"/>
<path d="M550 1531 c0 -6 5 -13 10 -16 6 -3 10 1 10 9 0 9 -4 16 -10 16 -5 0
-10 -4 -10 -9z"/>
<path d="M4205 1450 c3 -5 8 -10 11 -10 2 0 4 5 4 10 0 6 -5 10 -11 10 -5 0
-7 -4 -4 -10z"/>
<path d="M478 1443 c7 -3 16 -2 19 1 4 3 -2 6 -13 5 -11 0 -14 -3 -6 -6z"/>
<path d="M430 1430 c0 -5 5 -10 10 -10 6 0 10 5 10 10 0 6 -4 10 -10 10 -5 0
-10 -4 -10 -10z"/>
<path d="M400 1422 c0 -4 9 -13 20 -20 19 -12 20 -11 8 8 -13 20 -28 27 -28
12z"/>
<path d="M4345 1399 c-4 -6 -5 -12 -2 -15 2 -3 7 2 10 11 7 17 1 20 -8 4z"/>
<path d="M4213 1363 c-18 -7 -16 -23 2 -23 8 0 15 7 15 15 0 8 -1 15 -2 14 -2
0 -9 -3 -15 -6z"/>
<path d="M4205 1310 c-3 -11 -13 -27 -21 -35 -9 -8 -12 -15 -7 -15 17 0 30 16
37 43 7 31 1 37 -9 7z"/>
<path d="M4168 1243 c6 -2 10 -9 6 -14 -3 -5 0 -9 5 -9 6 0 11 7 11 15 0 8 -8
15 -17 14 -11 0 -13 -3 -5 -6z"/>
<path d="M4170 1195 c0 -8 5 -15 10 -15 6 0 10 7 10 15 0 8 -4 15 -10 15 -5 0
-10 -7 -10 -15z"/>
<path d="M255 1190 c3 -5 8 -10 11 -10 2 0 4 5 4 10 0 6 -5 10 -11 10 -5 0 -7
-4 -4 -10z"/>
<path d="M4150 1174 c0 -14 4 -23 9 -20 5 3 7 15 4 26 -7 28 -13 25 -13 -6z"/>
<path d="M154 1165 c-4 -17 -7 -47 -7 -67 1 -21 -2 -38 -6 -38 -8 0 -15 -107
-12 -167 2 -38 19 -26 18 12 -1 19 -4 35 -8 35 -12 0 6 63 19 68 10 3 12 -9 9
-46 -2 -28 0 -57 4 -64 5 -7 9 -8 10 -3 4 30 3 41 -3 45 -4 3 -3 21 1 40 11
50 7 171 -6 195 -11 18 -12 18 -19 -10z m22 -72 c-10 -10 -19 5 -10 18 6 11 8
11 12 0 2 -7 1 -15 -2 -18z"/>
<path d="M210 1023 c0 -21 -4 -45 -9 -53 -6 -8 -7 -19 -3 -24 6 -10 12 -44 15
-78 1 -9 5 -14 10 -11 6 4 4 70 -3 93 -1 3 -1 29 0 58 1 28 -1 52 -4 52 -3 0
-6 -17 -6 -37z"/>
<path d="M250 1026 c0 -14 -4 -35 -9 -48 -6 -16 -3 -40 10 -78 l19 -55 -6 50
c-4 28 -6 74 -5 103 1 28 0 52 -3 52 -3 0 -6 -11 -6 -24z"/>
<path d="M287 1017 c-5 -27 -4 -75 2 -124 3 -30 19 -10 18 22 -1 19 -4 35 -9
35 -4 0 -5 6 -3 13 9 24 12 77 5 82 -4 3 -10 -10 -13 -28z"/>
<path d="M97 1016 c-4 -10 -7 -30 -6 -44 1 -25 1 -25 10 6 11 37 7 67 -4 38z"/>
<path d="M17 1000 c-9 -11 -17 -33 -16 -48 0 -24 1 -25 9 -7 8 18 9 17 9 -7 1
-15 -4 -30 -9 -33 -6 -3 -10 -12 -10 -18 0 -7 4 -6 10 3 6 10 10 11 10 3 0 -7
3 -13 8 -13 4 0 8 32 9 70 0 39 0 70 -1 70 -1 0 -9 -9 -19 -20z"/>
<path d="M58 995 c-5 -74 -5 -92 2 -110 5 -12 8 12 8 58 1 72 -6 107 -10 52z"/>
<path d="M90 915 c0 -14 4 -25 9 -25 5 0 9 11 9 25 0 14 -4 25 -9 25 -5 0 -9
-11 -9 -25z"/>
<path d="M175 840 c-4 -17 -5 -34 -2 -36 2 -3 7 10 11 27 8 42 0 50 -9 9z"/>
<path d="M297 851 c-4 -17 -3 -21 5 -13 5 5 8 16 6 23 -3 8 -7 3 -11 -10z"/>
<path d="M431 854 c0 -11 3 -14 6 -6 3 7 2 16 -1 19 -3 4 -6 -2 -5 -13z"/>
<path d="M5804 841 c-26 -5 -29 -9 -24 -31 l6 -25 12 23 c13 23 41 29 58 12 5
-5 15 -6 24 0 8 5 12 11 10 13 -11 9 -57 14 -86 8z"/>
<path d="M6052 820 c-26 -34 -22 -40 7 -11 11 11 17 22 14 25 -4 3 -2 6 4 6
13 0 23 -46 24 -114 1 -42 3 -46 8 -21 10 42 2 128 -12 137 -18 12 -22 10 -45
-22z"/>
<path d="M212 820 c0 -14 2 -19 5 -12 2 6 2 18 0 25 -3 6 -5 1 -5 -13z"/>
<path d="M241 804 c-8 -10 -13 -39 -12 -81 0 -37 -4 -72 -11 -80 -6 -7 -8 -16
-4 -20 15 -15 33 34 34 93 0 35 3 73 7 84 8 24 5 25 -14 4z"/>
<path d="M5901 807 c-7 -9 -18 -14 -25 -11 -9 3 -12 -6 -12 -31 1 -29 3 -33
11 -19 6 9 18 26 28 36 10 11 17 24 15 30 -2 6 -9 4 -17 -5z"/>
<path d="M125 800 c-3 -5 -7 -36 -9 -69 -2 -32 -7 -70 -11 -83 -6 -18 -5 -20
5 -12 12 12 18 42 23 127 3 49 2 54 -8 37z"/>
<path d="M5614 794 c-18 -14 -18 -15 4 -4 12 6 22 13 22 15 0 8 -5 6 -26 -11z"/>
<path d="M5824 784 c-1 -13 2 -21 7 -18 11 6 12 31 2 37 -5 3 -9 -6 -9 -19z"/>
<path d="M5965 800 c-3 -5 -1 -10 4 -10 6 0 11 5 11 10 0 6 -2 10 -4 10 -3 0
-8 -4 -11 -10z"/>
<path d="M10 799 c-13 -138 -12 -155 9 -156 26 -2 28 3 35 87 4 43 2 60 -4 50
-5 -8 -10 -38 -10 -67 0 -28 -5 -55 -11 -58 -7 -5 -9 16 -8 64 1 39 -1 74 -4
78 -4 3 -7 4 -7 2z"/>
<path d="M151 732 c-1 -37 -4 -78 -7 -92 -2 -14 2 -8 10 12 15 38 19 135 6
143 -4 2 -8 -26 -9 -63z"/>
<path d="M190 761 c0 -22 4 -42 9 -45 4 -3 8 13 8 35 0 22 -4 42 -8 45 -5 3
-9 -13 -9 -35z"/>
<path d="M274 784 c3 -9 3 -21 -1 -27 -4 -6 -6 -31 -4 -55 1 -24 -2 -49 -9
-57 -6 -8 -7 -16 -2 -19 12 -7 25 20 26 54 1 14 5 31 10 39 5 8 4 16 -4 21 -8
5 -8 10 -2 14 12 7 4 46 -10 46 -6 0 -7 -7 -4 -16z"/>
<path d="M318 793 c-2 -5 -5 -37 -7 -73 -1 -36 -4 -74 -7 -85 -5 -18 -4 -19 6
-2 6 10 13 39 16 65 2 26 6 57 8 69 5 22 -9 42 -16 26z"/>
<path d="M78 773 c0 -10 0 -26 0 -36 1 -10 -2 -36 -7 -58 -6 -28 -6 -39 2 -36
6 2 11 12 13 23 11 93 11 114 3 119 -5 4 -10 -2 -11 -12z"/>
<path d="M5666 774 c-5 -13 -4 -14 7 -6 14 12 27 7 27 -10 0 -5 -6 -6 -12 -3
-7 4 -4 -1 6 -9 18 -14 15 -21 -7 -17 -4 1 0 -13 8 -31 16 -32 16 -33 -2 -11
l-18 23 -1 -34 c-1 -33 2 -35 37 -41 44 -8 116 12 124 33 5 13 3 13 -11 2 -13
-11 -17 -11 -24 0 -4 7 -15 10 -23 7 -12 -4 -14 0 -11 19 4 22 2 24 -15 15
-11 -6 -22 -16 -24 -23 -4 -8 -6 -7 -6 4 -1 9 4 20 9 23 6 3 10 14 9 23 0 11
-2 12 -6 4 -7 -17 -23 -5 -23 18 0 10 -7 21 -16 24 -21 8 -21 8 -28 -10z"/>
<path d="M5770 744 c0 -8 5 -12 10 -9 6 3 10 10 10 16 0 5 -4 9 -10 9 -5 0
-10 -7 -10 -16z"/>
<path d="M5800 724 c0 -44 24 -45 39 -3 6 18 11 33 11 34 0 1 -11 3 -25 3 -22
0 -25 -5 -25 -34z"/>
<path d="M5661 734 c0 -11 3 -14 6 -6 3 7 2 16 -1 19 -3 4 -6 -2 -5 -13z"/>
<path d="M190 685 c0 -23 -1 -29 -11 -47 -6 -11 -6 -18 0 -18 5 0 12 8 16 18
12 28 14 62 4 62 -5 0 -9 -7 -9 -15z"/>
<path d="M5875 677 c-4 -10 -5 -21 -1 -24 10 -10 18 4 13 24 -4 17 -4 17 -12
0z"/>
<path d="M5636 665 c-3 -8 -1 -15 3 -15 5 0 11 7 15 15 3 8 1 15 -3 15 -5 0
-11 -7 -15 -15z"/>
<path d="M5808 633 c-17 -4 -33 -33 -18 -33 19 0 60 20 60 30 0 10 -12 11 -42
3z"/>
<path d="M5760 410 c0 -5 5 -10 11 -10 5 0 7 5 4 10 -3 6 -8 10 -11 10 -2 0
-4 -4 -4 -10z"/>
<path d="M6036 385 c4 -8 10 -12 15 -9 5 3 9 0 9 -6 0 -19 54 -7 58 13 3 14
-4 17 -42 17 -36 0 -44 -3 -40 -15z"/>
</g>
</svg>
