<?xml version="1.0" standalone="no"?>
<!DOCTYPE svg PUBLIC "-//W3C//DTD SVG 20010904//EN"
 "http://www.w3.org/TR/2001/REC-SVG-20010904/DTD/svg10.dtd">
<svg version="1.0" xmlns="http://www.w3.org/2000/svg"
 width="76.000000pt" height="76.000000pt" viewBox="0 0 76.000000 76.000000"
 preserveAspectRatio="xMidYMid meet">

<g transform="translate(0.000000,76.000000) scale(0.100000,-0.100000)"
fill="#000000" stroke="none">
<path d="M366 709 c-2 -8 -10 -90 -16 -184 -6 -93 -16 -174 -21 -180 -5 -5 -9
-22 -9 -37 0 -16 -7 -45 -15 -65 -12 -29 -13 -38 -3 -45 19 -11 68 -10 68 3 0
6 -12 9 -27 6 -16 -2 -23 -2 -17 0 7 2 15 20 18 39 6 27 11 34 31 34 19 0 25
-7 30 -34 6 -30 12 -35 53 -47 25 -7 41 -14 35 -16 -18 -6 -3 -33 18 -33 10 0
22 -7 27 -16 5 -9 12 -15 15 -15 19 3 27 0 27 -10 0 -5 -6 -7 -12 -3 -10 6
-10 5 -1 -7 17 -21 93 -24 118 -5 20 15 19 15 -5 17 l-25 1 25 8 c14 4 19 8
13 9 -7 1 -13 7 -13 15 0 8 -8 17 -17 19 -15 4 -15 5 -2 6 23 1 33 57 15 82
-12 17 -14 18 -19 4 -8 -20 -7 -31 4 -28 4 2 5 -7 0 -20 -9 -23 -41 -31 -53
-13 -4 6 -2 16 4 23 7 9 7 13 -1 13 -6 0 -11 5 -11 11 0 5 4 8 9 4 5 -3 13 -1
16 5 9 14 -4 70 -16 70 -13 0 -11 -34 4 -49 10 -11 9 -13 -6 -8 -16 6 -18 2
-15 -25 2 -25 -1 -33 -16 -36 -11 -2 -26 4 -34 14 -13 16 -14 17 -9 2 7 -21
-11 -34 -25 -20 -8 8 -7 16 2 27 17 21 22 79 9 129 -5 23 -12 54 -14 70 -6 40
-15 46 -15 10 0 -16 -6 -47 -14 -68 -8 -24 -12 -63 -9 -98 2 -32 2 -58 -2 -58
-11 0 -35 68 -35 99 0 16 -4 32 -9 35 -4 3 -14 85 -21 183 -12 163 -22 219
-34 182z m147 -404 c1 -5 -6 -11 -15 -13 -11 -2 -18 3 -18 13 0 17 30 18 33 0z
m77 -141 c0 -2 -9 -4 -21 -4 -11 0 -18 4 -14 10 5 8 35 3 35 -6z"/>
<path d="M182 290 c0 -14 2 -19 5 -12 2 6 2 18 0 25 -3 6 -5 1 -5 -13z"/>
<path d="M251 294 c0 -11 3 -14 6 -6 3 7 2 16 -1 19 -3 4 -6 -2 -5 -13z"/>
<path d="M157 271 c-4 -17 -3 -21 5 -13 5 5 8 16 6 23 -3 8 -7 3 -11 -10z"/>
<path d="M200 280 c0 -5 9 -10 20 -10 11 0 20 5 20 10 0 6 -9 10 -20 10 -11 0
-20 -4 -20 -10z"/>
<path d="M205 231 c3 -2 -3 -13 -12 -24 -18 -19 -17 -19 5 -6 19 12 25 12 45
0 21 -13 22 -13 4 6 -9 11 -15 22 -12 24 2 3 -5 5 -15 5 -10 0 -17 -2 -15 -5z"/>
<path d="M380 200 c0 -5 15 -10 33 -9 27 0 29 2 12 9 -28 12 -45 12 -45 0z"/>
<path d="M200 185 c-7 -9 -20 -13 -27 -11 -10 4 -13 1 -8 -13 8 -25 -5 -53
-21 -47 -8 3 -14 -1 -14 -8 0 -16 30 -26 78 -26 28 0 32 3 32 25 0 20 5 25 28
26 40 1 69 14 53 24 -8 4 -17 2 -22 -6 -6 -10 -9 -11 -9 -1 0 6 -5 12 -11 12
-5 0 -7 -4 -4 -10 4 -6 -6 -10 -21 -10 -21 0 -25 3 -16 12 7 7 8 17 1 30 -12
22 -23 23 -39 3z"/>
<path d="M455 179 c-4 -6 -13 -8 -20 -5 -8 3 -11 -2 -8 -15 7 -24 20 -25 26
-1 3 9 5 -4 6 -30 0 -27 6 -48 11 -48 13 0 13 77 0 85 -6 4 -8 11 -5 16 4 5 4
9 1 9 -3 0 -8 -5 -11 -11z"/>
<path d="M388 173 c6 -2 12 -13 12 -23 0 -24 17 -35 17 -12 0 21 -16 42 -31
41 -7 0 -6 -2 2 -6z"/>
<path d="M57 152 c-8 -11 4 -62 14 -62 5 0 9 9 9 20 0 17 7 20 41 20 22 0 38
4 35 8 -3 5 -18 7 -34 4 -16 -2 -33 1 -36 7 -8 13 -23 14 -29 3z"/>
<path d="M375 150 c3 -5 8 -10 11 -10 2 0 4 5 4 10 0 6 -5 10 -11 10 -5 0 -7
-4 -4 -10z"/>
<path d="M430 118 c0 -7 5 -20 10 -28 8 -12 10 -9 10 13 0 15 -4 27 -10 27 -5
0 -10 -6 -10 -12z"/>
<path d="M103 113 c-18 -7 -16 -23 2 -23 8 0 15 7 15 15 0 8 -1 15 -2 14 -2 0
-9 -3 -15 -6z"/>
<path d="M270 97 c0 -7 9 -13 20 -13 11 0 20 5 20 11 0 6 -9 11 -20 12 -11 1
-20 -4 -20 -10z"/>
<path d="M358 93 c12 -2 30 -2 40 0 9 3 -1 5 -23 4 -22 0 -30 -2 -17 -4z"/>
<path d="M122 56 c1 -10 8 -17 13 -17 15 1 12 24 -3 29 -9 3 -13 -2 -10 -12z"/>
<path d="M605 60 c-7 -12 2 -30 16 -30 12 0 12 27 0 35 -5 3 -12 1 -16 -5z"/>
<path d="M323 40 c32 -25 72 -25 104 0 14 11 21 20 16 20 -6 0 -16 -7 -23 -15
-16 -19 -74 -19 -90 0 -7 8 -17 15 -23 15 -5 0 2 -9 16 -20z"/>
</g>
</svg>
