<?xml version="1.0" standalone="no"?>
<!DOCTYPE svg PUBLIC "-//W3C//DTD SVG 20010904//EN"
 "http://www.w3.org/TR/2001/REC-SVG-20010904/DTD/svg10.dtd">
<svg version="1.0" xmlns="http://www.w3.org/2000/svg"
 width="612.000000pt" height="408.000000pt" viewBox="0 0 612.000000 408.000000"
 preserveAspectRatio="xMidYMid meet">

<g transform="translate(0.000000,408.000000) scale(0.100000,-0.100000)"
fill="#000000" stroke="none">
<path d="M10 3955 c0 -77 4 -125 10 -125 6 0 10 5 10 11 0 8 5 8 15 -1 12 -10
15 -9 15 6 1 18 1 18 12 -1 22 -38 48 -41 48 -6 0 10 9 21 20 24 13 3 20 0 20
-9 0 -8 -5 -14 -11 -14 -5 0 -7 -5 -4 -10 4 -6 12 -4 21 5 9 8 24 15 34 15 11
0 24 8 29 18 10 16 10 16 11 0 0 -13 8 -18 28 -18 16 0 32 3 36 8 9 8 14 9 61
11 21 0 35 6 35 14 0 6 4 18 9 25 7 12 12 12 31 0 19 -11 23 -11 28 1 3 10 6
10 12 1 9 -14 43 -6 65 16 13 14 15 14 15 0 0 -9 5 -16 11 -16 5 0 8 4 4 9 -8
14 23 41 46 41 16 0 19 -4 14 -21 -7 -21 -7 -21 24 -3 36 21 36 22 15 53 -17
23 -16 23 15 16 20 -4 31 -3 31 4 0 15 27 14 34 -1 5 -10 7 -10 12 0 3 6 12
12 20 12 8 0 14 -6 15 -12 0 -7 5 -3 11 10 6 12 14 22 18 22 4 0 11 -10 15
-22 6 -21 8 -19 20 17 14 42 18 39 15 -7 -2 -32 0 -32 35 -16 27 12 32 24 12
31 -22 8 -1 17 54 23 30 3 56 8 58 10 2 2 -228 4 -512 4 l-517 0 0 -125z m310
-69 c0 -2 -7 -7 -16 -10 -8 -3 -12 -2 -9 4 6 10 25 14 25 6z"/>
<path d="M470 3886 c0 -8 4 -17 9 -20 5 -4 7 3 4 14 -6 23 -13 26 -13 6z"/>
<path d="M415 3870 c3 -5 8 -10 11 -10 2 0 4 5 4 10 0 6 -5 10 -11 10 -5 0 -7
-4 -4 -10z"/>
<path d="M10 3594 c0 -81 1 -86 18 -73 9 8 20 19 24 24 4 6 8 0 8 -13 0 -13 4
-21 10 -17 5 3 7 12 3 20 -3 8 -2 23 2 33 6 15 8 14 18 -8 9 -23 10 -23 14 -5
6 23 23 45 23 28 0 -6 12 -10 28 -9 48 4 82 18 82 34 0 12 -3 13 -12 4 -14
-14 -48 -16 -48 -3 0 10 -38 24 -61 22 -9 -1 -19 5 -22 12 -3 8 -18 15 -33 15
-16 0 -30 5 -32 11 -2 6 -8 11 -13 11 -5 0 -9 -39 -9 -86z m47 -16 c-3 -8 -6
-5 -6 6 -1 11 2 17 5 13 3 -3 4 -12 1 -19z m-17 -8 c0 -5 -5 -10 -11 -10 -5 0
-7 5 -4 10 3 6 8 10 11 10 2 0 4 -4 4 -10z"/>
<path d="M130 3555 c0 -5 5 -17 10 -25 5 -8 10 -10 10 -5 0 6 -5 17 -10 25 -5
8 -10 11 -10 5z"/>
<path d="M1983 3318 c2 -21 1 -39 -3 -40 -4 -2 -4 -93 0 -203 4 -118 7 -160 8
-103 2 80 5 96 16 92 15 -6 23 -60 30 -214 12 -233 20 -331 28 -336 6 -4 8 33
4 97 -3 57 -9 151 -12 209 -5 91 -14 187 -27 293 -2 15 -4 38 -5 52 -1 16 -8
25 -19 26 -11 0 -13 3 -5 6 14 6 6 131 -10 148 -6 6 -7 -4 -5 -27z"/>
<path d="M1962 3315 c0 -16 2 -22 5 -12 2 9 2 23 0 30 -3 6 -5 -1 -5 -18z"/>
<path d="M1921 3104 c0 -11 3 -14 6 -6 3 7 2 16 -1 19 -3 4 -6 -2 -5 -13z"/>
<path d="M1913 2910 c0 -25 2 -35 4 -22 2 12 2 32 0 45 -2 12 -4 2 -4 -23z"/>
<path d="M5161 2856 c-21 -7 -30 -15 -24 -19 14 -9 103 14 103 25 0 11 -39 8
-79 -6z"/>
<path d="M5235 2843 c-66 -14 -132 -50 -97 -54 4 0 17 -2 30 -5 12 -2 22 0 22
5 0 4 27 14 59 21 67 14 93 41 38 39 -18 -1 -41 -3 -52 -6z"/>
<path d="M5050 2815 c-7 -8 -10 -15 -6 -15 3 0 1 -11 -4 -24 -6 -16 -4 -66 5
-143 8 -65 15 -160 15 -210 0 -59 4 -93 11 -93 5 0 8 -4 5 -9 -3 -4 -22 -7
-42 -5 -40 3 -60 14 -25 14 21 0 21 1 6 30 -14 27 -18 28 -36 17 -16 -10 -21
-9 -29 3 -15 23 -12 29 10 23 11 -3 20 0 20 6 0 6 -6 11 -13 11 -7 0 -18 9
-25 20 -7 11 -8 20 -3 20 5 0 11 -5 13 -12 6 -16 38 -2 38 17 0 16 -20 19 -58
9 -14 -4 -21 -12 -18 -20 3 -8 -1 -13 -12 -12 -38 3 -51 -3 -54 -24 l-3 -23
-24 25 c-23 25 -24 25 -18 3 4 -18 1 -23 -14 -23 -10 0 -19 5 -19 10 0 14 -47
13 -56 -2 -4 -7 -3 -8 4 -4 7 4 12 2 12 -3 0 -6 -11 -11 -25 -11 -14 0 -25 -4
-25 -10 0 -5 20 -10 45 -10 53 0 63 -24 15 -35 -18 -4 -27 -11 -23 -18 4 -6 0
-8 -10 -4 -13 5 -17 1 -17 -18 0 -14 5 -25 10 -25 6 0 10 4 10 10 0 10 68 26
76 17 3 -3 0 -15 -7 -28 -11 -21 -12 -22 -25 -5 -7 10 -19 16 -26 13 -10 -4
-10 -6 0 -6 6 -1 12 -6 12 -11 0 -12 -38 -9 -58 4 -22 13 -29 -4 -8 -20 11 -8
38 -14 60 -14 23 0 51 -3 64 -6 18 -5 21 -3 16 10 -3 9 -1 16 6 16 6 0 9 4 5
9 -3 5 6 8 20 7 28 -3 47 -16 23 -16 -17 0 -32 -26 -20 -34 4 -2 24 -7 45 -11
20 -4 37 -11 37 -16 0 -5 12 -15 28 -24 25 -14 16 -15 -118 -10 -80 3 -156 9
-170 12 -30 7 -51 23 -45 33 3 4 -4 10 -14 13 -17 4 -18 0 -14 -37 3 -28 2
-37 -5 -27 -7 10 -11 10 -17 1 -4 -7 -10 -8 -14 -3 -3 5 -33 6 -66 3 -54 -6
-56 -7 -16 -9 37 -1 42 -3 31 -16 -7 -8 -9 -15 -5 -15 4 0 14 8 21 18 11 16
13 15 23 -12 8 -19 8 -39 2 -64 -6 -19 -8 -38 -6 -42 2 -4 -2 -7 -10 -7 -9 0
-15 10 -15 24 0 13 -4 23 -9 23 -5 0 -7 -9 -4 -20 3 -11 1 -21 -3 -21 -62 -8
-82 -8 -101 2 -13 7 -23 19 -23 26 0 10 -7 13 -22 9 -16 -4 -14 -2 5 6 15 7
28 19 28 27 7 86 17 95 91 87 32 -4 58 -4 58 -1 0 6 -51 27 -60 25 -3 0 -7 16
-10 37 -5 39 6 59 25 43 5 -4 30 -11 55 -14 25 -3 57 -8 73 -12 18 -4 27 -2
27 5 0 7 -5 9 -12 5 -10 -6 -9 -3 0 8 12 15 9 18 -22 24 -44 8 -47 21 -5 22
36 1 57 16 39 27 -6 4 -17 2 -25 -5 -9 -7 -15 -8 -20 0 -3 5 -1 10 4 10 6 0
11 13 11 29 0 39 9 61 26 61 18 0 18 -18 -1 -36 -8 -9 -15 -22 -15 -31 0 -21
24 -10 29 13 2 10 9 23 17 27 8 4 14 17 14 28 0 18 -6 19 -120 16 -66 -2 -122
-6 -126 -10 -4 -3 -4 -13 -1 -22 8 -18 43 -20 50 -2 3 6 6 2 6 -11 1 -19 -3
-21 -24 -16 -15 4 -25 2 -25 -5 0 -7 21 -11 53 -11 41 0 56 -5 71 -21 16 -20
17 -23 2 -37 -10 -11 -16 -12 -16 -4 0 7 -9 12 -19 12 -15 0 -18 -5 -14 -22 4
-20 3 -21 -9 -7 -16 19 -68 31 -69 15 -4 -56 -3 -76 3 -76 3 0 4 -9 1 -20 -3
-11 -9 -20 -13 -20 -5 0 -16 -3 -26 -7 -11 -4 -15 -3 -11 4 8 12 -14 23 -44
23 -10 0 -19 -7 -19 -15 0 -8 6 -15 14 -15 7 0 16 -11 18 -25 4 -20 2 -24 -15
-21 -12 1 -23 8 -25 15 -3 9 -7 9 -19 0 -20 -18 -61 -20 -67 -4 -2 7 -20 13
-40 13 -42 0 -55 7 -66 38 -8 21 -16 24 -59 24 -41 0 -51 -4 -56 -20 -3 -11
-3 -24 0 -30 3 -5 2 -10 -3 -10 -6 0 -12 7 -16 15 -3 8 -9 15 -13 14 -23 -4
-33 3 -33 24 0 30 15 51 30 42 9 -6 9 -10 -1 -16 -12 -8 -12 -11 1 -18 10 -7
17 -6 22 2 8 14 148 11 196 -4 18 -6 40 -8 50 -4 9 3 13 3 9 -1 -11 -11 13
-34 37 -34 15 0 17 3 8 9 -11 6 -11 17 -4 44 6 20 9 37 7 39 -1 2 -5 17 -9 33
-5 22 -4 26 4 15 8 -12 10 -10 10 12 0 29 -24 43 -54 32 -9 -3 -16 -1 -16 6 0
7 -6 6 -16 -4 -17 -17 -44 -21 -44 -7 0 5 6 11 12 13 7 3 2 7 -10 10 -18 5
-25 1 -32 -15 -8 -20 -15 -9 -11 16 2 13 -18 7 -27 -9 -13 -22 -48 -13 -45 12
2 22 -33 40 -84 43 -23 1 -33 -3 -33 -13 0 -16 21 -26 56 -26 13 0 24 -4 24
-10 0 -13 -56 -13 -80 0 -15 8 -23 4 -44 -21 -14 -17 -30 -27 -36 -24 -5 3
-10 1 -10 -4 0 -6 4 -11 9 -11 13 0 10 -43 -4 -52 -24 -18 -43 -7 -49 27 -6
33 -23 44 -40 28 -21 -21 -108 0 -103 25 1 9 -8 16 -25 19 -21 3 -26 0 -22
-11 4 -11 -4 -15 -33 -18 -21 -2 -39 -9 -39 -15 -1 -7 -2 -19 -3 -27 -1 -11
-20 -15 -82 -15 -45 0 -84 -3 -87 -6 -3 -3 72 -5 166 -4 95 1 175 -1 179 -4 5
-6 -103 -12 -129 -8 -5 0 -8 -15 -8 -34 0 -32 3 -35 28 -35 24 1 25 2 10 14
-28 21 -23 39 9 31 36 -9 38 -12 23 -30 -10 -13 -9 -15 9 -15 12 0 29 -9 38
-20 20 -23 38 -27 30 -6 -10 25 5 26 24 2 25 -32 24 -38 -7 -30 -19 5 -25 4
-20 -5 4 -6 31 -11 62 -11 36 0 54 -4 54 -12 0 -7 17 -24 38 -38 30 -20 34
-25 18 -28 -10 -2 -22 1 -25 7 -4 5 -20 9 -36 7 -17 -2 -36 -4 -43 -5 -8 0
-12 -6 -10 -12 5 -14 125 -19 161 -6 15 5 27 15 27 23 0 10 8 13 23 11 39 -7
58 -19 53 -34 -3 -7 3 -22 14 -33 11 -11 20 -27 20 -36 0 -15 10 -16 77 -10
95 8 85 -5 -22 -28 -77 -16 -80 -16 -95 2 -13 16 -18 17 -38 7 l-23 -12 21 -6
c12 -3 19 -10 15 -16 -3 -6 1 -11 10 -11 24 0 13 -24 -13 -28 -17 -3 -23 5
-35 45 -15 49 -8 67 20 56 15 -6 18 24 3 47 -8 13 -10 12 -10 -3 0 -10 -11
-22 -24 -27 -23 -9 -24 -9 -10 -67 27 -115 29 -118 57 -121 14 -2 28 -11 30
-20 3 -9 5 -1 6 19 1 45 16 59 63 59 32 0 40 -5 54 -31 13 -26 14 -36 3 -55
-13 -24 -6 -35 86 -136 15 -16 21 -29 15 -33 -20 -12 -10 -25 15 -19 16 4 25
2 25 -6 0 -6 -4 -8 -10 -5 -5 3 -10 -4 -10 -16 0 -17 5 -20 25 -17 14 3 25 1
25 -3 0 -5 -6 -9 -12 -10 -7 0 -35 -2 -63 -4 -37 -2 -42 -1 -20 4 l30 8 -27 7
c-15 4 -31 5 -37 2 -5 -3 -16 -3 -25 0 -15 6 -15 7 -1 18 13 9 7 11 -32 10
-84 -3 -98 -4 -112 -13 -13 -8 -13 -12 -1 -28 12 -15 12 -16 0 -5 -8 6 -27 12
-43 12 -15 0 -37 5 -48 10 -15 9 -21 7 -25 -5 -6 -16 -43 -12 -54 5 -9 14 -70
19 -70 7 0 -8 -3 -8 -8 -2 -4 6 -13 10 -19 9 -7 -1 -17 -2 -23 -3 -17 -2 1
-30 23 -34 12 -2 -8 -5 -45 -6 -38 0 -68 3 -68 8 0 6 16 7 35 4 31 -5 35 -3
35 16 0 11 -3 21 -7 22 -5 0 -16 2 -25 4 -11 2 -18 -3 -19 -13 0 -11 -2 -12
-6 -4 -7 17 -53 15 -53 -2 0 -8 8 -17 18 -19 11 -3 8 -5 -9 -6 -22 -1 -26 2
-22 22 5 23 -14 51 -39 59 -9 3 -12 37 -10 134 2 70 5 130 7 133 3 2 12 -2 22
-10 15 -12 16 -12 8 1 -4 8 -13 21 -19 29 -6 8 -11 49 -11 92 0 45 -5 83 -12
89 -8 9 -11 -18 -11 -111 0 -68 -1 -191 -3 -274 -4 -144 -5 -150 -25 -153 -15
-2 -23 3 -27 17 -4 16 -13 21 -41 21 -25 0 -36 4 -36 15 0 19 -19 19 -26 0 -4
-8 -9 -13 -13 -11 -11 7 -281 20 -423 21 -76 0 -130 3 -120 7 13 5 11 7 -8 7
-19 1 -29 9 -37 31 -6 17 -18 30 -27 30 -12 0 -16 10 -16 38 0 46 8 57 41 58
34 1 81 33 77 53 -2 11 -12 15 -32 13 -28 -4 -28 -3 -22 32 l7 36 -63 0 -63 0
0 -152 0 -153 -35 -6 c-19 -4 -27 -7 -17 -8 9 0 17 -8 17 -16 0 -8 7 -15 16
-15 11 0 14 -5 10 -16 -4 -12 -2 -15 9 -10 8 3 15 1 15 -4 0 -6 -4 -10 -10
-10 -5 0 -10 -7 -10 -15 0 -18 -55 -21 -65 -4 -4 5 -19 9 -33 7 -19 -2 -27 2
-27 12 0 8 -6 19 -12 23 -18 12 -16 47 3 47 9 0 14 7 12 18 -3 13 -15 17 -58
19 -30 1 -67 4 -82 7 -16 3 -29 0 -32 -7 -3 -9 -5 -9 -5 1 -1 6 -10 12 -20 12
-11 0 -23 5 -26 10 -3 6 -1 10 5 10 16 0 40 26 40 42 -1 8 -8 5 -19 -8 -12
-16 -22 -19 -34 -13 -11 7 -20 3 -31 -13 -14 -19 -16 -20 -22 -4 -6 15 -7 15
-20 -1 -7 -10 -14 -13 -14 -6 0 16 21 28 45 26 11 -2 14 0 7 3 -8 4 0 16 24
35 21 16 39 27 42 25 2 -3 9 -1 16 5 81 68 119 91 126 79 6 -9 10 -6 15 11 4
13 15 33 25 44 13 15 18 38 19 95 1 93 11 166 21 150 4 -7 5 -21 3 -31 -3 -10
0 -19 6 -19 6 0 11 -7 11 -15 0 -8 -4 -15 -9 -15 -4 0 -6 -12 -3 -27 5 -26 5
-26 16 8 14 43 28 43 42 -1 12 -35 12 -35 20 35 6 45 10 59 12 40 2 -16 8 -36
14 -42 7 -9 7 -13 -1 -13 -8 0 -8 -6 1 -20 16 -25 35 -26 41 -2 4 16 5 16 6
-1 0 -10 -7 -21 -16 -24 -10 -4 -24 -12 -30 -19 -19 -18 6 -24 97 -24 53 0 80
-4 83 -12 4 -8 6 -7 6 4 1 9 -7 19 -16 21 -10 3 5 5 32 5 39 0 45 -2 25 -8
-30 -10 -28 -11 28 -14 23 -2 42 1 42 6 0 4 -9 8 -20 8 -16 0 -20 7 -20 30 l0
31 30 -16 c42 -22 50 -18 13 6 -45 28 -46 70 -3 86 20 7 30 18 30 32 0 33 -22
71 -39 69 -12 -2 -15 4 -13 27 2 16 4 31 5 31 1 1 59 5 129 8 96 4 128 3 131
-7 4 -9 6 -9 6 1 1 6 13 12 28 12 14 0 23 3 19 7 -3 4 -47 6 -96 5 -89 -2 -90
-2 -90 22 0 23 3 25 53 24 28 0 55 -5 59 -11 6 -9 8 -9 8 1 0 6 9 12 20 12 11
0 20 -6 20 -12 0 -10 2 -10 9 0 5 8 23 13 42 12 19 -1 52 -2 74 -1 38 1 39 1
18 16 -18 13 -26 13 -42 3 -15 -9 -28 -9 -60 2 -34 11 -45 11 -66 0 -16 -8
-29 -10 -37 -4 -7 6 -35 11 -63 12 -60 4 -75 14 -70 53 3 20 0 29 -10 29 -8 0
-15 -6 -15 -14 0 -19 -29 -29 -46 -15 -20 17 -59 7 -59 -15 0 -11 -6 -21 -13
-24 -6 -2 -12 -16 -12 -31 0 -23 -6 -30 -32 -39 -30 -10 -30 -11 -5 -8 15 2
27 -1 27 -5 0 -5 7 -6 15 -3 11 5 14 2 9 -12 -11 -30 -41 -54 -66 -53 -22 1
-22 1 2 9 31 9 15 16 -55 25 -79 9 -130 6 -168 -10 -20 -8 -48 -15 -62 -15
-39 0 -29 -18 13 -23 20 -2 -6 -4 -58 -4 -89 -1 -246 12 -189 16 15 0 30 8 33
17 5 13 2 15 -14 10 -11 -3 -29 -9 -40 -12 -14 -4 -20 -2 -20 9 0 9 9 19 20
22 11 4 18 11 15 16 -4 5 -12 3 -20 -5 -17 -17 -52 -10 -52 10 0 8 10 15 21
15 17 1 18 2 3 6 -22 6 -47 53 -48 95 -1 25 -3 27 -6 10 -3 -16 -9 -22 -20
-18 -9 4 -31 1 -50 -6 -31 -11 -34 -16 -31 -44 6 -53 -50 -76 -62 -26 -6 29
-24 32 -29 6 -2 -10 -8 -23 -15 -27 -7 -6 -5 -7 6 -4 9 3 22 -1 29 -9 13 -16
72 -16 114 0 14 6 16 5 6 -2 -11 -8 -9 -11 8 -17 11 -3 24 -4 29 -1 4 2 14 0
22 -5 11 -7 0 -9 -37 -6 -29 2 -53 1 -53 -2 0 -4 -26 -4 -57 0 -32 4 -71 7
-88 8 -28 0 -28 -1 -8 -9 48 -19 22 -30 -69 -30 -65 0 -88 -3 -78 -10 10 -7
-20 -10 -98 -9 -62 1 -115 -1 -119 -5 -3 -3 15 -6 41 -6 44 0 46 -1 36 -20 -9
-17 -22 -20 -88 -22 l-77 -2 80 -6 c44 -3 65 -7 48 -8 -22 -1 -33 -7 -33 -17
0 -14 -22 -16 -157 -14 -86 0 -151 4 -144 8 7 4 13 21 15 37 3 25 7 29 30 26
19 -3 24 0 20 11 -4 11 7 16 44 21 27 3 56 4 65 0 8 -3 18 -1 22 5 3 6 37 11
75 11 38 0 72 5 75 10 10 16 35 12 29 -5 -5 -11 1 -15 21 -15 27 0 27 1 11 25
-12 18 -13 30 -6 50 6 16 6 25 0 25 -6 0 -10 9 -10 20 0 11 -5 20 -11 20 -6 0
-8 7 -5 16 3 8 1 24 -4 34 -6 12 -6 21 -1 25 6 3 8 14 6 25 -2 13 2 20 11 20
8 0 14 7 14 15 0 8 -9 15 -21 15 -36 0 -9 20 29 21 l37 1 -36 10 c-40 10 -49
31 -49 108 0 32 -4 39 -26 44 -15 4 -29 5 -32 2 -6 -7 -3 -277 5 -288 3 -5 2
-24 -1 -42 -5 -28 -10 -32 -30 -29 -13 3 -26 14 -29 24 -3 10 -12 19 -21 19
-12 0 -16 10 -17 38 0 20 -2 81 -5 135 -3 94 -3 98 19 107 l22 9 -22 0 c-13 1
-23 6 -23 11 0 6 -9 10 -20 10 -16 0 -20 7 -20 30 0 22 -5 30 -17 31 -55 3
-97 -1 -106 -10 -17 -17 -3 -23 27 -12 17 7 26 7 26 1 0 -6 -6 -10 -12 -11 -7
0 -4 -4 7 -9 16 -7 12 -9 -20 -11 -38 -2 -38 -2 -8 -6 40 -5 44 -25 6 -23 -16
1 -32 1 -38 0 -17 -3 29 -19 57 -19 26 -1 27 -2 27 -71 0 -38 -3 -70 -7 -70
-4 0 -5 -27 -4 -61 3 -47 1 -60 -9 -57 -9 3 -12 22 -10 61 2 37 -1 57 -9 57
-6 0 -10 -8 -8 -17 2 -13 -3 -17 -16 -15 -11 2 -16 -1 -14 -10 3 -7 14 -11 24
-10 13 3 16 0 9 -6 -11 -11 -65 -5 -65 7 0 4 11 14 25 21 24 13 34 30 17 30
-5 0 -8 16 -7 35 1 18 -1 34 -4 33 -29 -3 -51 4 -51 18 0 11 -6 14 -21 9 -15
-5 -22 -2 -26 14 -3 12 -13 21 -24 21 -24 0 -25 -17 -1 -24 9 -3 1 -4 -19 -2
-32 4 -36 2 -35 -17 1 -17 9 -23 35 -27 19 -3 36 -11 37 -18 1 -7 0 -8 -3 -2
-2 5 -25 10 -49 10 -42 0 -45 2 -51 30 -7 39 -23 49 -40 24 -11 -17 -20 -19
-75 -13 -35 3 -68 2 -73 -2 -6 -4 -17 -4 -25 1 -9 6 -17 5 -21 -2 -6 -9 -12
-8 -23 1 -11 9 -61 13 -166 15 -136 1 -153 3 -162 20 -8 14 -12 15 -18 6 -9
-15 -59 -20 -66 -8 -3 4 -40 8 -82 7 -42 0 -85 3 -94 6 -12 5 -18 2 -18 -6 -1
-9 -4 -8 -11 4 -5 9 -20 17 -32 17 -13 0 -33 7 -45 16 -12 8 -22 11 -22 6 0
-5 -11 -12 -25 -14 -28 -6 -35 8 -7 15 9 2 -11 6 -46 8 -50 3 -62 1 -63 -11 0
-8 -5 -4 -11 10 l-11 25 -5 -25 c-4 -23 -5 -24 -13 -5 -7 18 -8 17 -8 -7 -1
-15 -5 -30 -11 -33 -6 -4 -10 -248 -10 -670 0 -625 1 -664 17 -668 17 -4 17
-5 1 -6 -17 -1 -18 -39 -18 -646 l0 -645 3058 2 3057 3 1 857 c0 471 -1 871
-4 887 -2 17 -8 28 -13 25 -5 -3 -9 -1 -9 5 0 5 6 11 13 14 9 3 12 39 13 130
1 110 -1 127 -15 128 -85 5 -91 4 -91 -11 -1 -10 -8 -5 -21 13 -11 15 -30 27
-41 27 -27 0 -48 23 -48 53 0 14 -7 28 -16 31 -10 4 -13 2 -8 -6 4 -6 3 -8 -3
-5 -5 3 -28 7 -51 8 -25 2 -44 9 -47 17 -4 10 0 12 11 8 12 -5 15 -2 10 10 -4
10 -2 14 6 11 7 -2 12 -10 11 -16 -4 -14 14 -14 19 0 3 8 20 6 56 -5 75 -22
107 -13 137 39 14 23 25 49 25 58 0 17 9 20 46 18 18 -2 20 3 19 61 l-1 63
-37 -3 c-21 -2 -37 2 -37 8 0 5 6 10 14 10 7 0 25 6 39 13 21 11 24 19 22 53
-15 180 -14 175 -66 177 -34 2 -34 2 -40 -53 -3 -30 -6 -47 -7 -38 -2 20 -37
42 -52 33 -6 -3 -10 -18 -10 -33 0 -15 -4 -32 -8 -38 -10 -15 -42 -25 -42 -14
0 6 7 10 15 10 10 0 15 10 15 31 0 17 -4 28 -10 24 -5 -3 -10 1 -10 10 0 12
-7 15 -27 13 -30 -3 -29 1 -34 -108 l-2 -65 -6 50 c-3 28 -9 45 -14 38 -10
-16 -49 -4 -43 14 3 8 6 26 6 39 0 14 4 22 10 19 9 -5 11 4 10 43 0 10 -52 23
-70 17 -11 -4 -16 -17 -15 -45 0 -22 3 -40 8 -40 4 0 7 9 7 20 0 23 22 23 32
0 12 -26 9 -42 -7 -36 -8 3 -15 1 -15 -4 0 -5 -8 -11 -17 -13 -11 -3 -7 -5 10
-6 24 -1 27 -4 21 -27 -8 -30 11 -71 35 -77 9 -2 2 -4 -16 -4 -18 0 -30 4 -27
9 7 10 -21 39 -30 31 -3 -4 -6 -1 -6 5 0 7 -9 12 -20 12 -10 0 -23 7 -28 16
-8 15 -10 15 -15 -1 -4 -10 -12 -13 -19 -8 -7 4 -59 8 -115 8 -90 1 -105 3
-118 20 -14 19 -14 19 -15 -4 0 -13 -2 -22 -6 -19 -3 3 -21 2 -41 -2 -39 -9
-58 -2 -104 42 -34 32 -37 42 -9 35 11 -3 18 -1 14 4 -3 5 -12 9 -20 9 -8 0
-14 5 -14 10 0 6 6 10 14 10 8 0 17 7 20 16 8 22 9 21 -19 26 -16 4 -25 0 -28
-11 -3 -11 -5 -9 -6 6 0 12 -5 24 -10 28 -16 9 -22 -31 -17 -107 3 -40 2 -98
-3 -128 -7 -48 -9 -40 -10 65 -2 133 -15 244 -34 284 -15 31 -39 38 -57 16z
m1020 -210 c-9 -10 -9 -15 -1 -15 6 0 11 -4 11 -10 0 -17 -37 -11 -44 7 -7 17
9 33 33 33 11 0 11 -3 1 -15z m-20 -55 c0 -5 -5 -10 -11 -10 -5 0 -7 5 -4 10
3 6 8 10 11 10 2 0 4 -4 4 -10z m-4700 -27 c0 -23 -5 -28 -25 -29 -21 -2 -25
2 -25 27 0 24 4 29 25 29 21 0 25 -5 25 -27z m-708 5 c-7 -7 -12 -23 -12 -36
0 -13 -4 -21 -9 -17 -15 9 -31 -29 -31 -72 0 -22 -5 -44 -12 -51 -15 -15 -72
-16 -63 -2 3 6 17 10 31 10 23 0 24 3 24 60 0 33 0 63 -1 66 -1 8 63 53 76 54
5 0 4 -5 -3 -12z m5434 -14 c-3 -9 -6 -24 -6 -35 0 -34 -17 -20 -18 16 -1 26
3 35 14 35 11 0 14 -6 10 -16z m-179 -16 c-3 -8 -6 -5 -6 6 -1 11 2 17 5 13 3
-3 4 -12 1 -19z m113 -24 c0 -32 -2 -35 -27 -32 -20 2 -27 9 -28 28 -3 34 2
40 31 40 21 0 24 -5 24 -36z m-73 -16 c-3 -7 -5 -2 -5 12 0 14 2 19 5 13 2 -7
2 -19 0 -25z m-4605 -3 c5 -26 -9 -35 -18 -11 -3 8 -13 12 -25 9 -21 -6 -27
12 -6 20 28 12 45 6 49 -18z m4308 17 c0 -13 -12 -22 -22 -16 -10 6 -1 24 13
24 5 0 9 -4 9 -8z m257 -29 c-3 -10 -5 -4 -5 12 0 17 2 24 5 18 2 -7 2 -21 0
-30z m-5245 15 c-7 -7 -12 -34 -12 -60 0 -26 -4 -48 -9 -48 -8 0 -27 90 -19
93 2 1 12 7 23 14 26 15 32 16 17 1z m378 -3 c0 -8 -4 -15 -10 -15 -5 0 -10 7
-10 15 0 8 5 15 10 15 6 0 10 -7 10 -15z m4553 -45 c4 -17 2 -18 -14 -9 -22
11 -25 29 -5 29 7 0 16 -9 19 -20z m137 16 c0 -2 3 -12 6 -21 5 -13 2 -15 -22
-9 -38 9 -42 13 -24 24 15 10 40 13 40 6z m227 -63 c-2 -16 -4 -5 -4 22 0 28
2 40 4 28 2 -13 2 -35 0 -50z m-5897 47 c0 -5 -7 -10 -15 -10 -8 0 -15 5 -15
10 0 6 7 10 15 10 8 0 15 -4 15 -10z m1058 -30 c-4 -27 -2 -29 31 -32 21 -2
36 -8 35 -15 -1 -7 -2 -55 -2 -107 -2 -86 -4 -94 -20 -89 -10 2 -19 10 -19 16
-8 116 -32 184 -34 95 -1 -108 -5 -138 -16 -149 -7 -7 -14 -11 -16 -8 -3 2 -7
61 -10 132 -6 122 -6 127 13 127 16 0 20 7 20 30 0 17 5 30 11 30 7 0 10 -12
7 -30z m1897 9 c6 11 9 11 16 0 14 -22 10 -29 -16 -29 -27 0 -54 35 -32 43 6
2 15 -3 18 -11 4 -12 7 -13 14 -3z m1525 5 c0 -8 -5 -12 -10 -9 -6 4 -8 11 -5
16 9 14 15 11 15 -7z m1368 4 c-2 -6 -26 -13 -52 -14 -42 -3 -46 -2 -36 11 15
18 94 21 88 3z m-4968 -8 c0 -5 -5 -10 -11 -10 -5 0 -7 5 -4 10 3 6 8 10 11
10 2 0 4 -4 4 -10z m4999 -7 c-1 -10 -5 -29 -9 -43 -7 -21 -8 -19 -9 18 -1 23
4 42 9 42 6 0 10 -8 9 -17z m-4901 -11 c2 -8 -4 -11 -19 -9 -13 2 -25 9 -27
16 -3 8 4 12 19 9 12 -1 24 -9 27 -16z m4532 8 c0 -5 -4 -10 -9 -10 -6 0 -13
5 -16 10 -3 6 1 10 9 10 9 0 16 -4 16 -10z m-744 -15 c-25 -19 -41 -19 -24 0
7 8 20 14 28 14 11 0 10 -3 -4 -14z m84 6 c0 -5 17 -14 38 -20 36 -10 35 -10
-17 -6 -64 5 -108 35 -53 35 18 0 32 -4 32 -9z m-4550 -27 c0 -8 7 -14 16 -14
10 0 14 6 10 15 -3 9 0 15 8 15 12 0 29 -56 20 -71 -1 -3 -19 -3 -38 -1 -30 3
-36 8 -36 28 0 17 -4 22 -16 17 -12 -4 -13 -8 -3 -13 7 -5 -5 -8 -26 -8 -22 0
-33 3 -25 8 10 6 9 9 -1 13 -9 3 -5 6 7 6 12 1 24 7 27 15 7 18 57 9 57 -10z
m103 6 c-3 -11 -12 -20 -19 -20 -20 0 -17 28 4 33 9 3 18 5 19 6 0 0 -1 -8 -4
-19z m4955 -6 c49 -7 53 -15 13 -31 -21 -8 -32 -8 -40 0 -7 7 -11 7 -11 1 0
-12 -68 -6 -76 7 -3 5 11 9 30 9 20 0 36 3 36 8 0 4 -27 7 -59 7 -40 1 -57 -3
-51 -10 4 -6 2 -15 -6 -23 -12 -11 -14 -10 -14 3 0 19 -9 19 -34 0 -10 -8 -23
-12 -27 -9 -5 3 -12 -13 -15 -36 -4 -22 -10 -40 -15 -40 -4 0 -6 11 -3 25 3
16 0 25 -8 26 -7 0 -4 5 7 10 16 7 14 9 -12 6 -18 -2 -33 0 -33 5 0 4 7 8 15
8 8 0 15 5 15 10 0 6 -4 10 -10 10 -5 0 -10 7 -10 16 0 13 8 15 48 10 26 -4
52 -3 59 1 11 8 107 1 201 -13z m-4910 -1 c-4 -22 -22 -20 -26 1 -2 10 3 16
13 16 10 0 15 -7 13 -17z m2459 -5 c-3 -8 -6 -5 -6 6 -1 11 2 17 5 13 3 -3 4
-12 1 -19z m1890 6 c-3 -3 -12 -4 -19 -1 -8 3 -5 6 6 6 11 1 17 -2 13 -5z
m-3277 -52 c0 -15 -2 -15 -10 -2 -13 20 -13 33 0 25 6 -3 10 -14 10 -23z
m1533 13 c8 -20 -7 -27 -38 -19 l-26 6 23 13 c31 17 35 17 41 0z m1765 3 c10
-10 14 -10 21 0 9 16 41 5 41 -14 0 -8 -4 -14 -10 -14 -5 0 -10 6 -10 13 0 7
-3 8 -8 2 -10 -14 -31 -17 -60 -10 -19 5 -22 8 -12 20 15 18 22 19 38 3z
m-3443 -8 c-3 -5 -10 -10 -16 -10 -5 0 -9 5 -9 10 0 6 7 10 16 10 8 0 12 -4 9
-10z m-855 -19 c0 -9 -24 -21 -41 -21 -16 0 -10 18 9 23 28 8 32 7 32 -2z
m700 -1 c0 -15 47 -12 53 3 3 6 6 -7 6 -30 1 -34 -2 -41 -15 -36 -8 3 -13 11
-10 18 3 9 -6 10 -37 4 -63 -12 -67 -11 -67 15 0 18 7 26 23 29 39 8 47 7 47
-3z m4737 4 c-3 -3 -12 -4 -19 -1 -8 3 -5 6 6 6 11 1 17 -2 13 -5z m-5950 -36
c-3 -7 -5 -2 -5 12 0 14 2 19 5 13 2 -7 2 -19 0 -25z m5025 20 c4 -12 -14 -38
-26 -38 -3 0 -6 11 -6 25 0 26 25 36 32 13z m566 3 c14 -1 17 -31 2 -31 -5 0
-10 -7 -10 -15 0 -11 -12 -15 -48 -15 -26 0 -52 -4 -57 -9 -6 -5 -31 -12 -57
-15 -45 -6 -48 -5 -54 19 -3 14 -10 23 -14 20 -12 -7 -33 22 -25 35 4 7 30 9
73 5 37 -3 62 -2 55 2 -9 7 86 9 135 4z m102 -8 c-1 -23 -18 -33 -47 -27 -43
8 -32 34 13 34 19 0 34 -3 34 -7z m-5025 -9 c14 -6 10 -10 -15 -20 -43 -18
-46 -18 -25 6 21 23 18 22 40 14z m4208 -1 c-7 -2 -19 -2 -25 0 -7 3 -2 5 12
5 14 0 19 -2 13 -5z m-3486 -9 c-3 -3 -12 -4 -19 -1 -8 3 -5 6 6 6 11 1 17 -2
13 -5z m3512 -18 c10 -12 8 -13 -9 -9 -25 7 -37 23 -17 23 8 0 20 -6 26 -14z
m371 4 c0 -12 -28 -25 -36 -17 -9 9 6 27 22 27 8 0 14 -5 14 -10z m49 -20 c18
0 41 -38 41 -66 0 -8 4 -13 9 -9 5 3 16 -2 24 -10 11 -11 17 -11 19 -3 3 7 7
5 11 -5 5 -13 1 -17 -16 -18 -21 0 -21 -1 -2 -9 16 -7 11 -9 -20 -9 l-40 -1
25 20 c17 14 19 18 6 14 -10 -4 -21 -2 -26 6 -6 9 -10 7 -15 -9 -11 -35 -25
-24 -25 19 0 30 4 40 16 40 8 0 12 5 9 10 -3 6 -17 10 -31 10 -13 0 -24 6 -24
13 0 18 14 31 18 18 2 -6 12 -11 21 -11z m301 10 c0 -5 -4 -10 -10 -10 -5 0
-10 5 -10 10 0 6 5 10 10 10 6 0 10 -4 10 -10z m-3473 -32 c-3 -7 -5 -2 -5 12
0 14 2 19 5 13 2 -7 2 -19 0 -25z m469 -26 c-11 -10 -14 3 -8 33 l7 30 3 -28
c2 -16 1 -31 -2 -35z m266 28 c-13 -14 -29 -20 -51 -18 -45 3 -50 18 -6 16 20
-1 41 4 47 10 21 21 30 13 10 -8z m-2062 -10 c0 -5 -4 -10 -9 -10 -6 0 -13 5
-16 10 -3 6 1 10 9 10 9 0 16 -4 16 -10z m1645 0 c3 -5 1 -10 -4 -10 -6 0 -11
5 -11 10 0 6 2 10 4 10 3 0 8 -4 11 -10z m-2148 -6 c-3 -3 -12 -4 -19 -1 -8 3
-5 6 6 6 11 1 17 -2 13 -5z m70 0 c-3 -3 -12 -4 -19 -1 -8 3 -5 6 6 6 11 1 17
-2 13 -5z m249 -2 c16 -14 78 -31 121 -34 24 -2 43 -6 43 -10 0 -5 -7 -8 -15
-8 -8 0 -15 -5 -15 -11 0 -6 -7 -4 -15 5 -9 8 -22 13 -30 9 -9 -3 -22 0 -30 7
-8 7 -29 15 -47 19 -17 4 -33 12 -36 19 -4 14 9 16 24 4z m1174 -2 c0 -5 14
-10 31 -10 16 0 28 4 25 9 -4 5 3 7 13 4 12 -3 17 -11 14 -19 -6 -15 -43 -17
-113 -5 -40 8 -41 9 -12 10 19 0 31 5 27 11 -3 6 -1 10 4 10 6 0 11 -4 11 -10z
m3276 -18 c-22 -5 -30 3 -21 18 5 8 11 7 22 -2 15 -12 14 -13 -1 -16z m-4176
8 c0 -5 -4 -11 -10 -11 -34 -4 -44 -3 -47 9 -3 8 6 12 26 12 17 0 31 -4 31
-10z m2859 -4 c13 -7 20 -16 15 -19 -5 -3 -21 3 -34 14 -29 21 -17 25 19 5z
m1938 2 c-5 -15 -55 -14 -71 2 -7 7 3 10 33 10 30 0 41 -4 38 -12z m-3711 -9
c-27 -6 -53 -6 -57 -2 -5 5 18 9 49 10 l57 1 -49 -9z m497 4 c-13 -2 -35 -2
-50 0 -16 2 -5 4 22 4 28 0 40 -2 28 -4z m-363 -13 c13 -8 13 -10 -2 -10 -9 0
-20 5 -23 10 -8 13 5 13 25 0z m3500 6 c0 -3 -4 -8 -10 -11 -5 -3 -10 -1 -10
4 0 6 5 11 10 11 6 0 10 -2 10 -4z m-3020 -16 c0 -5 -4 -10 -9 -10 -6 0 -13 5
-16 10 -3 6 1 10 9 10 9 0 16 -4 16 -10z m1982 3 c-26 -10 1 -23 50 -23 28 0
48 3 45 7 -4 3 -20 6 -37 5 -16 0 -33 4 -36 10 -5 8 5 9 32 5 21 -4 77 -8 124
-9 l85 -2 -75 -6 -75 -6 80 -3 c96 -3 135 -7 144 -17 3 -4 -24 -4 -61 -1 -38
4 -68 3 -68 -2 0 -4 34 -9 76 -10 48 -1 74 2 70 8 -4 5 -2 12 4 16 6 4 10 -9
10 -34 0 -23 -5 -41 -11 -41 -5 0 -7 5 -4 10 4 6 -41 11 -127 12 l-133 2 135
6 c92 4 114 7 70 9 -36 2 -81 4 -100 6 -19 2 -78 4 -130 6 l-95 3 95 6 95 6
-92 2 c-70 2 -93 5 -93 15 0 17 10 27 24 26 6 0 5 -3 -2 -6z m-3902 -18 c0
-10 -10 -15 -30 -15 -16 0 -30 5 -30 11 0 6 7 9 15 6 8 -4 17 -2 20 3 9 15 25
12 25 -5z m236 4 c3 -6 15 -9 25 -6 11 3 19 1 19 -4 0 -5 -17 -9 -37 -9 -28 0
-34 3 -23 10 12 8 11 10 -7 10 -13 0 -23 -4 -23 -10 0 -5 -17 -9 -37 -9 -28 1
-31 3 -13 6 14 3 29 9 35 14 13 12 52 11 61 -2z m947 -1 c-15 -7 -30 -7 -50 0
-26 10 -24 10 22 11 42 0 46 -2 28 -11z m165 5 c-10 -2 -26 -2 -35 0 -10 3 -2
5 17 5 19 0 27 -2 18 -5z m240 -102 c40 -60 53 -101 32 -101 -5 0 -10 7 -10
15 0 8 -4 15 -9 15 -5 0 -9 6 -8 13 1 18 -26 77 -36 77 -4 0 -20 14 -34 30
-13 17 -31 30 -38 30 -7 0 -16 7 -19 16 -5 12 4 11 36 -8 27 -16 59 -49 86
-87z m1912 81 c0 -15 -2 -15 -10 -2 -13 20 -13 33 0 25 6 -3 10 -14 10 -23z
m1284 7 c-6 -11 -24 -2 -24 11 0 5 7 7 15 4 8 -4 12 -10 9 -15z m85 -11 c-1
-19 -17 -55 -18 -40 -1 7 -5 10 -11 7 -5 -3 -10 -1 -10 4 0 6 5 11 10 11 6 0
10 5 10 11 0 5 -4 8 -9 4 -5 -3 -12 -1 -16 5 -4 6 5 10 19 10 15 0 26 -6 25
-12z m28 -10 c-3 -8 -6 -5 -6 6 -1 11 2 17 5 13 3 -3 4 -12 1 -19z m-3719 5
c-10 -2 -28 -2 -40 0 -13 2 -5 4 17 4 22 1 32 -1 23 -4z m3317 -3 c3 -5 1 -10
-4 -10 -6 0 -11 5 -11 10 0 6 2 10 4 10 3 0 8 -4 11 -10z m440 0 c3 -5 1 -10
-4 -10 -6 0 -11 5 -11 10 0 6 2 10 4 10 3 0 8 -4 11 -10z m-4045 -11 c0 -9
-33 -10 -122 -5 -84 4 -118 3 -108 -4 8 -5 61 -10 118 -10 56 0 102 -3 102 -7
0 -5 -55 -6 -122 -4 -115 3 -146 11 -132 33 8 13 264 10 264 -3z m-1400 -19
c0 -11 -4 -20 -10 -20 -5 0 -10 9 -10 20 0 11 5 20 10 20 6 0 10 -9 10 -20z
m397 -2 c-3 -8 -6 -5 -6 6 -1 11 2 17 5 13 3 -3 4 -12 1 -19z m1408 12 c-3 -5
-15 -10 -26 -10 -10 0 -19 5 -19 10 0 6 12 10 26 10 14 0 23 -4 19 -10z m45
-22 c0 -37 -7 -34 -14 5 -2 15 0 27 5 27 5 0 9 -14 9 -32z m875 22 c3 -6 -1
-7 -9 -4 -18 7 -21 14 -7 14 6 0 13 -4 16 -10z m-2242 -7 c-13 -2 -35 -2 -50
0 -16 2 -5 4 22 4 28 0 40 -2 28 -4z m112 -3 c3 -5 -3 -10 -15 -10 -12 0 -18
5 -15 10 3 6 10 10 15 10 5 0 12 -4 15 -10z m3515 6 c0 -2 -7 -7 -16 -10 -8
-3 -12 -2 -9 4 6 10 25 14 25 6z m1337 -18 c-3 -8 -6 -5 -6 6 -1 11 2 17 5 13
3 -3 4 -12 1 -19z m-4699 5 c-10 -2 -26 -2 -35 0 -10 3 -2 5 17 5 19 0 27 -2
18 -5z m250 0 c-10 -2 -28 -2 -40 0 -13 2 -5 4 17 4 22 1 32 -1 23 -4z m2902
-8 c0 -8 -4 -15 -9 -15 -5 0 -14 7 -21 15 -10 13 -9 15 9 15 12 0 21 -6 21
-15z m-2575 -15 l60 -7 -70 0 c-38 -1 -83 3 -100 7 -28 7 -28 8 10 8 22 0 67
-4 100 -8z m3318 3 c-35 -2 -91 -2 -125 0 -35 2 -7 3 62 3 69 0 97 -1 63 -3z
m92 -3 c-3 -5 -11 -10 -16 -10 -6 0 -7 5 -4 10 3 6 11 10 16 10 6 0 7 -4 4
-10z m-4141 -6 c11 -4 13 -14 10 -34 -5 -22 -2 -29 12 -33 11 -3 -3 -5 -29 -6
-30 -1 -46 3 -42 9 4 6 11 7 17 4 5 -4 2 6 -8 21 -15 23 -15 28 -3 36 17 10
22 11 43 3z m4463 -16 c-3 -8 -6 -5 -6 6 -1 11 2 17 5 13 3 -3 4 -12 1 -19z
m-514 5 c-13 -2 -33 -2 -45 0 -13 2 -3 4 22 4 25 0 35 -2 23 -4z m-3800 -22
c-3 -14 -16 -20 -44 -23 -22 -2 -45 0 -52 4 -7 4 5 8 27 8 43 0 42 12 -2 18
-47 6 -37 12 20 12 50 0 56 -2 51 -19z m1137 9 c0 -12 -8 -12 -35 0 -18 8 -17
9 8 9 15 1 27 -3 27 -9z m2161 -11 l21 -21 -24 4 c-12 2 -24 11 -26 21 -5 22
3 22 29 -4z m-3122 7 c-8 -8 -108 -10 -116 -3 -3 4 22 7 57 7 35 0 61 -2 59
-4z m4019 -29 c2 -15 7 -27 11 -27 5 0 24 -3 42 -7 29 -5 32 -4 22 8 -9 11 -8
18 1 32 7 9 16 17 20 17 13 0 37 -29 35 -42 -4 -30 3 -38 29 -38 25 0 29 -4
29 -29 0 -19 -5 -27 -13 -24 -8 3 -15 -8 -19 -31 -8 -43 -25 -38 -26 7 -1 31
-1 31 -17 -13 -15 -41 -17 -43 -22 -20 -4 18 -11 25 -28 24 -13 -1 -27 7 -32
17 -6 10 -26 23 -45 30 -27 10 -36 20 -40 43 -5 25 -3 60 4 83 1 2 11 1 24 -1
15 -2 23 -11 25 -29z m250 11 c-2 -17 -11 -24 -30 -26 -24 -3 -28 0 -28 22 0
22 4 26 31 26 26 0 30 -3 27 -22z m-4098 -8 c0 -18 -7 -20 -77 -20 -93 0 -93
9 0 11 37 1 67 6 67 12 0 5 -16 7 -37 4 -21 -2 -49 -1 -63 3 -18 6 -6 8 43 9
61 1 67 -1 67 -19z m816 -2 c-18 -10 -39 -2 -31 12 3 4 15 6 26 3 19 -5 19 -7
5 -15z m3394 8 c0 -3 -4 -8 -10 -11 -5 -3 -10 -1 -10 4 0 6 5 11 10 11 6 0 10
-2 10 -4z m-4442 -13 c-10 -2 -28 -2 -40 0 -13 2 -5 4 17 4 22 1 32 -1 23 -4z
m3242 -3 c0 -5 -10 -10 -22 -10 -19 0 -20 2 -8 10 19 13 30 13 30 0z m291 -7
c1 -10 1 -21 0 -25 0 -5 4 -8 9 -8 6 0 10 -12 10 -26 0 -22 -3 -24 -14 -15
-11 10 -17 8 -25 -6 -8 -14 -10 -5 -9 40 1 40 5 57 15 57 7 0 14 -8 14 -17z
m407 5 c-3 -7 -11 -13 -18 -13 -7 0 -15 6 -17 13 -3 7 4 12 17 12 13 0 20 -5
18 -12z m-2848 -19 c0 -5 -11 -9 -25 -9 -24 0 -32 10 -19 22 8 8 44 -3 44 -13z
m-1283 5 c-3 -3 -12 -4 -19 -1 -8 3 -5 6 6 6 11 1 17 -2 13 -5z m76 -1 c-13
-2 -33 -2 -45 0 -13 2 -3 4 22 4 25 0 35 -2 23 -4z m4564 -13 c3 -11 9 -18 13
-15 13 8 19 -21 13 -59 -7 -42 -23 -38 -23 6 0 40 -11 29 -19 -18 -6 -35 -7
-36 -21 -19 -10 13 -11 16 -2 11 10 -6 12 0 6 29 -4 25 -3 36 3 32 6 -4 13 2
16 13 3 11 1 20 -4 20 -5 0 -9 5 -9 10 0 18 22 10 27 -10z m-5097 1 c0 -5 -12
-12 -27 -14 -16 -2 4 -5 42 -7 39 -2 56 -5 38 -7 -21 -3 -33 -10 -33 -19 0 -8
7 -14 17 -12 13 2 17 -5 19 -29 2 -38 -8 -42 -25 -10 -6 12 -9 14 -7 5 7 -23
1 -23 -24 2 -22 22 -45 18 -36 -6 3 -8 1 -14 -4 -14 -6 0 -10 8 -10 18 0 14
-2 15 -10 2 -8 -12 -10 -10 -10 9 0 18 -3 21 -13 13 -7 -6 -18 -7 -26 -3 -11
7 -9 13 8 30 11 11 26 21 31 21 6 0 10 4 10 9 0 8 10 12 53 20 4 0 7 -3 7 -8z
m35 -1 c3 -5 1 -10 -4 -10 -6 0 -11 5 -11 10 0 6 2 10 4 10 3 0 8 -4 11 -10z
m648 3 c-36 -5 -44 -19 -15 -26 13 -4 11 -5 -5 -6 -14 -1 -23 5 -23 14 0 21
-18 19 -22 -2 -3 -15 -5 -14 -10 5 -6 21 -4 22 50 20 36 -1 45 -3 25 -5z m197
-24 c0 -11 -4 -19 -10 -19 -5 0 -7 7 -4 15 4 9 0 15 -9 15 -10 0 -13 -6 -10
-21 6 -22 -1 -22 -55 -1 -8 3 -12 -1 -10 -11 2 -9 0 -16 -4 -16 -31 -3 -48 0
-43 9 3 5 12 7 20 3 8 -3 15 0 15 6 0 6 -9 11 -20 11 -42 0 -13 25 35 30 70 7
95 1 95 -21z m-482 16 c-10 -10 -68 -14 -63 -4 4 5 20 9 37 9 17 0 29 -2 26
-5z m3699 -14 c-1 -15 -4 -17 -14 -9 -17 14 -16 28 1 28 8 0 14 -9 13 -19z
m-337 4 c0 -17 -49 -45 -79 -45 -68 0 -68 17 0 33 75 18 79 18 79 12z m-3430
-41 c0 -8 -7 -14 -15 -14 -8 0 -15 5 -15 11 0 8 -4 8 -12 2 -24 -19 -118 -13
-118 8 0 5 36 8 80 8 62 -1 80 -4 80 -15z m68 6 c6 0 12 -4 12 -9 0 -13 -48
-19 -59 -8 -18 18 -12 30 12 23 12 -3 28 -6 35 -6z m4624 -40 c-6 -43 -12 -37
-12 13 0 25 4 37 8 29 5 -7 7 -26 4 -42z m-4942 20 c0 -11 -2 -20 -4 -20 -2 0
-6 9 -9 20 -3 11 -1 20 4 20 5 0 9 -9 9 -20z m4887 -12 c-3 -7 -5 -2 -5 12 0
14 2 19 5 13 2 -7 2 -19 0 -25z m-4119 15 c-21 -2 -38 -10 -38 -16 0 -9 -13
-11 -40 -9 -22 2 -38 8 -35 12 2 4 15 5 29 3 13 -3 27 0 30 6 4 6 26 10 49 9
l42 -1 -37 -4z m-670 -34 c2 -19 -2 -28 -8 -24 -12 7 -14 55 -2 55 4 0 9 -14
10 -31z m3856 -1 c-3 -4 2 -5 10 -2 11 4 16 0 16 -11 0 -12 -5 -15 -22 -9 -31
9 -31 9 -23 35 5 16 9 18 15 8 5 -7 6 -17 4 -21z m-3187 6 c-3 -3 -12 -4 -19
-1 -8 3 -5 6 6 6 11 1 17 -2 13 -5z m3313 -18 c0 -32 -21 -48 -38 -30 -7 8 -8
14 -2 14 5 0 10 9 10 20 0 11 7 20 15 20 9 0 15 -9 15 -24z m-4070 10 c0 -3
-4 -8 -10 -11 -5 -3 -10 -1 -10 4 0 6 5 11 10 11 6 0 10 -2 10 -4z m728 -13
c-10 -2 -28 -2 -40 0 -13 2 -5 4 17 4 22 1 32 -1 23 -4z m4149 -15 c-3 -8 -6
-5 -6 6 -1 11 2 17 5 13 3 -3 4 -12 1 -19z m-4387 8 c0 -11 -19 -15 -25 -6 -3
5 1 10 9 10 9 0 16 -2 16 -4z m467 -2 c-3 -3 -12 -4 -19 -1 -8 3 -5 6 6 6 11
1 17 -2 13 -5z m-17 -45 c0 -5 11 -9 25 -9 20 0 25 -5 25 -25 0 -14 -5 -25
-11 -25 -6 0 -8 9 -4 21 7 20 4 21 -33 14 -34 -5 -42 -3 -51 14 -15 28 -15 28
19 23 17 -2 30 -8 30 -13z m-510 -8 c-20 -12 -145 -16 -190 -7 -33 7 -34 7
-16 -8 19 -15 34 -18 116 -21 60 -2 70 -5 70 -16 0 -8 -16 -10 -52 -5 -29 3
-81 9 -116 12 -46 5 -65 12 -72 25 -7 12 -6 19 3 22 22 10 273 7 257 -2z m393
2 c-7 -2 -19 -2 -25 0 -7 3 -2 5 12 5 14 0 19 -2 13 -5z m55 -21 c2 -14 12
-22 29 -24 15 -2 29 -9 31 -17 3 -10 -1 -12 -17 -8 -11 3 -21 2 -21 -3 0 -4
-11 -7 -25 -6 -23 1 -25 5 -25 44 0 31 4 42 13 40 6 -3 13 -14 15 -26z m-294
7 c26 0 28 -2 11 -8 -32 -14 -105 -20 -98 -9 3 7 -11 8 -38 4 l-44 -5 40 14
c22 8 53 12 69 10 16 -3 43 -5 60 -6z m196 1 c11 -7 4 -10 -25 -10 -29 0 -36
3 -25 10 8 5 20 10 25 10 6 0 17 -5 25 -10z m379 -4 c9 -10 8 -16 -4 -26 -18
-15 -20 -13 -29 18 -8 25 14 31 33 8z m3611 -22 c0 -8 -4 -12 -10 -9 -5 3 -10
10 -10 16 0 5 5 9 10 9 6 0 10 -7 10 -16z m25 -4 c-6 -9 29 -15 63 -11 6 1 12
-2 12 -7 0 -14 -28 -23 -36 -11 -3 6 -12 8 -19 5 -13 -5 -35 12 -35 26 0 4 5
8 11 8 5 0 7 -4 4 -10z m-4473 -31 c-13 -13 -345 -90 -406 -94 -47 -4 -17 6
133 45 107 28 196 52 197 53 2 1 21 2 43 2 22 0 37 -3 33 -6z m653 1 c3 -5 1
-10 -4 -10 -6 0 -11 5 -11 10 0 6 2 10 4 10 3 0 8 -4 11 -10z m3020 -12 c6
-15 19 -23 35 -24 71 -3 70 -3 70 -33 0 -31 -14 -41 -60 -41 -16 0 -31 -6 -33
-12 -3 -8 -6 -7 -6 4 -1 9 -6 29 -13 45 -24 60 -18 118 7 61z m1203 15 c-27
-2 -69 -2 -95 0 -27 2 -5 3 47 3 52 0 74 -1 48 -3z m257 -4 c30 -2 23 -4 -25
-9 -36 -3 -83 -4 -105 -1 l-40 6 45 6 c25 4 54 5 65 3 11 -2 38 -4 60 -5z
m-4801 -5 c9 -3 16 -10 16 -14 0 -10 -49 0 -56 11 -6 10 17 12 40 3z m114 -10
c35 -10 26 -24 -13 -21 -34 2 -41 7 -28 20 8 8 12 8 41 1z m292 -47 c0 -34 -4
-47 -12 -45 -7 3 -13 16 -13 30 -1 14 -6 32 -13 40 -14 18 -10 24 18 24 17 0
20 -7 20 -49z m3940 31 c0 -5 -4 -7 -9 -4 -5 4 -12 0 -14 -6 -3 -7 -6 -3 -6 9
-1 16 3 21 14 17 8 -4 15 -10 15 -16z m-4299 -2 c5 3 9 0 9 -6 0 -15 -23 -7
-26 8 -1 7 0 8 3 2 2 -5 9 -8 14 -4z m169 0 c0 -2 -7 -7 -16 -10 -8 -3 -12 -2
-9 4 6 10 25 14 25 6z m810 -6 c0 -5 -5 -10 -11 -10 -5 0 -7 5 -4 10 3 6 8 10
11 10 2 0 4 -4 4 -10z m3165 0 c3 -5 1 -10 -4 -10 -6 0 -11 5 -11 10 0 6 2 10
4 10 3 0 8 -4 11 -10z m-3468 -16 c-3 -3 -12 -4 -19 -1 -8 3 -5 6 6 6 11 1 17
-2 13 -5z m2563 -13 c0 -5 -10 -11 -22 -14 -13 -3 -38 -10 -55 -15 -20 -6 -33
-7 -33 -1 0 5 8 9 18 9 10 0 27 7 38 15 21 16 54 20 54 6z m767 3 c-3 -3 -12
-4 -19 -1 -8 3 -5 6 6 6 11 1 17 -2 13 -5z m-290 -10 c-3 -3 -12 -4 -19 -1 -8
3 -5 6 6 6 11 1 17 -2 13 -5z m723 -9 c0 -8 -4 -15 -10 -15 -5 0 -10 7 -10 15
0 8 5 15 10 15 6 0 10 -7 10 -15z m-4450 -5 c0 -5 -8 -10 -19 -10 -30 0 -88
-28 -95 -46 -10 -25 1 -29 14 -5 6 12 15 21 21 21 6 0 7 -5 3 -12 -5 -8 -2 -9
10 -5 10 4 29 10 42 13 13 3 24 12 24 20 0 8 9 14 20 14 11 0 20 -6 20 -13 0
-14 -30 -29 -123 -58 -38 -12 -67 -27 -67 -34 0 -18 -21 -24 -43 -13 -10 5
-27 6 -38 3 -11 -4 -30 0 -44 9 -13 9 -38 16 -54 16 -23 0 -29 4 -25 15 4 8 1
15 -5 15 -6 0 -11 -7 -11 -15 0 -8 -6 -15 -14 -15 -9 0 -12 8 -8 26 l5 27 111
-7 c61 -4 115 -11 120 -16 11 -11 40 16 31 30 -3 5 11 18 32 29 40 21 93 28
93 11z m4611 0 c10 -6 19 -20 19 -32 0 -17 -3 -19 -12 -10 -7 7 -20 12 -29 12
-21 0 -33 16 -24 30 8 13 21 13 46 0z m-3328 -17 c-7 -2 -19 -2 -25 0 -7 3 -2
5 12 5 14 0 19 -2 13 -5z m1987 -1 c0 -5 -16 -13 -35 -19 -41 -13 -48 1 -7 15
35 13 42 14 42 4z m223 -35 c26 -17 47 -32 47 -34 0 -7 -72 36 -100 58 -30 25
-11 16 53 -24z m-4436 27 c-3 -3 -12 -4 -19 -1 -8 3 -5 6 6 6 11 1 17 -2 13
-5z m918 -4 c-27 -12 -43 -12 -25 0 8 5 22 9 30 9 10 0 8 -3 -5 -9z m1820 0
c-37 -7 -36 -7 22 -9 34 0 70 -4 80 -7 15 -5 15 -4 3 5 -11 8 0 10 45 9 56 -1
58 -1 20 -8 l-40 -7 35 -2 c19 -2 44 -4 55 -6 85 -13 119 -14 134 -3 14 11 14
11 4 -3 -7 -8 -9 -25 -6 -38 5 -21 10 -23 49 -17 24 3 46 2 49 -3 3 -5 -17
-12 -44 -16 -35 -5 -48 -11 -45 -20 3 -7 1 -16 -5 -20 -6 -3 -11 -23 -11 -44
l0 -38 -132 -7 c-73 -4 -140 -5 -148 -1 -9 3 -40 8 -70 10 -30 2 -68 7 -85 10
-16 3 -47 8 -68 11 -29 5 -37 10 -32 22 3 8 1 18 -5 22 -6 4 -13 31 -17 61 -3
30 -11 57 -17 61 -18 12 42 28 112 30 66 2 65 2 -23 8 -85 6 -82 6 45 7 83 0
120 -3 95 -7z m589 -11 c-6 -11 -24 -2 -24 11 0 5 7 7 15 4 8 -4 12 -10 9 -15z
m1486 12 c-64 -11 -43 -37 28 -34 10 1 10 -2 0 -14 -8 -10 -14 -11 -16 -4 -5
16 -39 13 -46 -4 -4 -11 1 -15 19 -15 13 0 27 -4 30 -10 9 -14 -58 -13 -73 2
-15 15 -15 43 -2 69 8 15 20 19 53 18 l42 -2 -35 -6z m-3582 -13 c-7 -31 -44
-37 -44 -8 0 14 7 20 23 20 13 0 22 -5 21 -12z m1006 3 c13 -1 3 -171 -11
-179 -15 -9 -48 -8 -86 3 -17 4 -38 3 -52 -3 -18 -9 -26 -7 -39 7 -18 19 -22
86 -6 96 6 3 10 21 10 40 0 24 5 35 18 38 13 4 109 2 166 -2z m1655 -18 c3 -2
-6 -1 -20 1 -13 2 -33 5 -44 6 -17 2 -16 3 5 9 14 5 31 3 40 -3 8 -6 17 -12
19 -13z m240 3 c-2 -2 -15 -7 -29 -10 -19 -6 -21 -5 -10 3 8 6 11 11 5 12 -5
0 -1 4 10 8 17 7 35 -3 24 -13z m412 11 c-5 -5 -7 -16 -4 -23 3 -7 -2 -21 -11
-29 -9 -9 -17 -14 -17 -11 -5 22 -3 32 6 38 6 5 6 8 -2 8 -7 0 -10 6 -7 14 3
8 14 14 25 13 11 -1 15 -5 10 -10z m-1534 -3 c-3 -3 -12 -4 -19 -1 -8 3 -5 6
6 6 11 1 17 -2 13 -5z m66 -1 c-7 -2 -19 -2 -25 0 -7 3 -2 5 12 5 14 0 19 -2
13 -5z m764 -29 c-7 -7 -57 15 -57 25 0 5 14 3 31 -6 16 -8 28 -17 26 -19z
m-672 -11 l30 -7 -30 -6 c-39 -8 -65 -1 -65 17 0 9 6 12 18 9 9 -3 31 -8 47
-13z m741 -3 c0 -11 -5 -20 -11 -20 -6 0 -11 9 -11 20 0 11 5 20 11 20 6 0 11
-9 11 -20z m-263 3 c-13 -2 -33 -2 -45 0 -13 2 -3 4 22 4 25 0 35 -2 23 -4z
m1774 -27 c17 -7 36 12 27 26 -3 4 12 7 33 7 30 -2 32 -3 11 -6 -43 -7 -34
-29 9 -24 6 1 14 -3 18 -9 4 -6 -6 -10 -25 -10 -20 0 -29 -4 -24 -11 3 -6 15
-9 25 -6 14 4 21 -1 25 -19 5 -21 21 -29 47 -25 4 0 7 -4 7 -10 0 -6 -9 -9
-19 -6 -10 2 -25 1 -32 -4 -12 -8 -12 -11 0 -18 8 -5 22 -6 30 -2 9 4 33 9 53
10 37 2 38 1 34 -31 -3 -28 -7 -33 -27 -31 -13 1 -39 3 -56 4 -20 1 -33 8 -33
16 0 7 -8 13 -18 13 -10 0 -28 9 -39 20 -15 14 -23 16 -27 7 -3 -9 -7 -8 -15
3 -6 8 -14 15 -18 16 -25 2 -63 17 -63 24 0 5 -8 10 -17 12 -10 3 2 4 27 4 25
0 37 -1 27 -4 -20 -4 -13 -22 9 -22 8 0 14 8 15 18 0 14 2 14 9 -3 8 -20 9
-19 9 1 1 12 -7 28 -16 35 -13 11 -15 11 -9 1 7 -11 4 -11 -13 0 -21 12 -21
13 -2 16 11 2 18 10 16 20 -1 9 0 12 2 5 2 -6 11 -14 20 -17z m-1887 14 c58
-5 208 -17 335 -25 126 -9 233 -19 238 -24 19 -19 -5 -41 -45 -41 -31 0 -41
-4 -45 -20 -4 -15 -11 -18 -29 -14 -18 5 -24 2 -24 -11 0 -11 5 -15 15 -12 8
4 17 2 20 -3 4 -6 2 -10 -3 -10 -6 0 -14 -13 -20 -28 l-10 -28 -193 4 c-107 2
-234 8 -284 13 -49 5 -102 10 -117 10 -25 0 -28 3 -29 37 0 20 -3 65 -5 100
l-5 62 48 0 c26 0 95 -4 153 -10z m1485 0 c4 -6 11 -8 16 -5 5 4 9 -13 9 -38
0 -38 -3 -46 -22 -51 -48 -13 -58 -8 -58 28 0 19 5 38 11 41 6 4 8 13 5 21 -6
16 29 20 39 4z m-4115 -4 c0 -3 -4 -8 -10 -11 -5 -3 -10 -1 -10 4 0 6 5 11 10
11 6 0 10 -2 10 -4z m4284 -45 c-4 -3 -9 0 -11 7 -3 6 -9 9 -15 6 -5 -3 -4 3
4 15 l13 21 8 -22 c4 -11 4 -24 1 -27z m-3954 14 c0 -8 -4 -15 -10 -15 -5 0
-13 -1 -17 -2 -3 -2 -7 5 -9 15 -1 11 4 17 17 17 10 0 19 -7 19 -15z m1995 5
c3 -6 -1 -7 -9 -4 -18 7 -21 14 -7 14 6 0 13 -4 16 -10z m1552 -9 c14 13 16 9
7 -15 -3 -9 -13 -16 -20 -16 -8 0 -17 -7 -20 -15 -7 -17 -34 -21 -34 -5 0 6 7
10 15 10 10 0 15 10 15 27 0 21 3 24 12 15 8 -8 15 -9 25 -1z m59 -3 c-7 11
-4 12 13 2 23 -12 20 -32 -4 -25 -8 3 -22 7 -31 10 -8 3 -12 10 -9 15 5 8 12
7 23 -2 13 -11 14 -11 8 0z m-2529 -14 c-3 -3 -12 -4 -19 -1 -8 3 -5 6 6 6 11
1 17 -2 13 -5z m2623 -10 c0 -13 -3 -14 -13 -5 -8 6 -18 7 -22 3 -5 -4 -5 -1
-1 6 10 18 36 15 36 -4z m-403 -29 c15 -3 77 -7 137 -11 100 -5 109 -4 97 10
-12 14 -8 16 35 16 44 -1 47 -2 31 -14 -14 -11 -15 -15 -5 -20 7 -3 3 -3 -9 0
-12 3 -25 -1 -30 -9 -4 -7 -23 -19 -40 -26 -36 -15 -44 -37 -15 -43 9 -3 -2
-5 -26 -5 -24 0 -48 -5 -55 -12 -8 -8 -6 -11 8 -11 16 0 16 -2 -5 -20 -13 -11
-29 -20 -37 -20 -7 0 -13 -6 -13 -14 0 -15 21 -26 51 -26 28 0 23 -15 -6 -16
-14 -1 -25 2 -25 8 0 5 -4 6 -10 3 -18 -11 -10 -25 14 -25 14 0 27 -4 31 -10
3 -5 13 -6 23 -3 9 3 14 3 10 -2 -4 -4 -16 -8 -26 -9 -11 0 -33 -12 -50 -25
l-31 -24 19 -25 c11 -13 20 -35 20 -47 0 -19 4 -21 42 -18 31 2 50 -2 70 -17
15 -11 30 -20 33 -20 2 0 23 -8 45 -17 26 -12 39 -24 38 -34 -2 -9 3 -23 11
-32 7 -10 10 -17 7 -17 -4 0 7 -13 25 -30 18 -16 30 -32 27 -35 -9 -9 -89 14
-118 33 -42 28 -60 24 -60 -14 0 -30 -3 -34 -25 -32 -28 3 -35 28 -8 28 13 0
14 3 5 12 -7 7 -12 20 -12 30 0 22 -9 23 -37 3 -15 -10 -22 -12 -25 -4 -6 18
-57 20 -95 4 -18 -8 -33 -10 -33 -4 0 5 6 9 13 10 6 0 2 4 -9 9 -16 6 -23 19
-26 50 l-4 41 26 -30 c45 -55 57 -29 15 33 -14 21 -22 43 -18 53 5 13 2 15
-11 10 -13 -5 -19 -1 -23 13 -3 11 -9 20 -14 20 -5 0 -9 9 -9 20 0 11 -7 20
-15 20 -11 0 -15 -12 -16 -42 l-1 -43 -16 49 c-18 54 -42 72 -43 34 0 -21 -1
-21 -8 -3 -7 17 -5 153 3 225 2 14 4 34 4 44 2 17 3 18 20 3 9 -8 35 -17 57
-19 l40 -3 -3 45 c-2 41 -1 43 12 27 8 -10 27 -20 43 -22z m157 10 c-7 -17
-20 -20 -29 -6 -3 5 3 12 12 14 10 3 19 5 20 6 1 0 0 -6 -3 -14z m496 -1 c0
-2 -9 -4 -20 -4 -11 0 -20 4 -20 9 0 5 9 7 20 4 11 -3 20 -7 20 -9z m-250 -23
c0 -14 -2 -14 -10 -1 -5 8 -13 11 -17 6 -4 -4 3 -16 16 -27 13 -11 22 -22 19
-24 -10 -10 -48 42 -42 58 7 20 34 11 34 -12z m-860 -15 c0 -3 -4 -8 -10 -11
-5 -3 -10 -1 -10 4 0 6 5 11 10 11 6 0 10 -2 10 -4z m-3791 -33 c-13 -16 -25
-30 -26 -32 -2 -2 -6 -1 -10 2 -8 8 36 57 50 57 6 0 0 -12 -14 -27z m171 17
c0 -5 -4 -10 -10 -10 -5 0 -10 5 -10 10 0 6 5 10 10 10 6 0 10 -4 10 -10z
m5017 -6 c-3 -3 -12 -4 -19 -1 -8 3 -5 6 6 6 11 1 17 -2 13 -5z m-690 -10 c-3
-3 -12 -4 -19 -1 -8 3 -5 6 6 6 11 1 17 -2 13 -5z m143 -19 c11 -13 10 -14 -4
-9 -9 3 -16 10 -16 15 0 13 6 11 20 -6z m-2 -90 c-3 -3 -9 2 -12 12 -6 14 -5
15 5 6 7 -7 10 -15 7 -18z m-268 1 c0 -3 -4 -8 -10 -11 -5 -3 -10 -1 -10 4 0
6 5 11 10 11 6 0 10 -2 10 -4z m60 -10 c0 -2 -7 -6 -15 -10 -8 -3 -15 -1 -15
4 0 6 7 10 15 10 8 0 15 -2 15 -4z m-4670 -16 c0 -5 -4 -10 -10 -10 -5 0 -10
5 -10 10 0 6 5 10 10 10 6 0 10 -4 10 -10z m5087 -16 c-3 -3 -12 -4 -19 -1 -8
3 -5 6 6 6 11 1 17 -2 13 -5z m-380 -10 c-3 -3 -12 -4 -19 -1 -8 3 -5 6 6 6
11 1 17 -2 13 -5z m-4952 -64 c3 -5 1 -10 -4 -10 -6 0 -11 5 -11 10 0 6 2 10
4 10 3 0 8 -4 11 -10z m4480 -20 c4 -6 -9 -10 -30 -10 -20 0 -34 3 -31 8 7 11
54 13 61 2z m958 -26 c-3 -8 -13 -14 -22 -14 -10 0 -17 -9 -17 -26 -1 -14 -11
-32 -23 -40 -12 -9 -21 -19 -21 -23 0 -10 68 -81 78 -81 11 0 34 -41 28 -48
-3 -3 -14 2 -23 10 -17 14 -76 38 -94 38 -5 0 -9 -11 -9 -25 0 -26 -23 -35
-36 -13 -5 8 -11 6 -19 -6 -12 -15 -14 -14 -26 13 -10 22 -19 29 -31 25 -27
-8 -58 5 -58 26 0 10 -7 25 -15 34 -21 20 -19 29 5 21 12 -4 20 -2 20 5 0 7
-9 14 -20 17 -11 3 -20 14 -20 24 0 25 5 24 46 -7 25 -20 34 -23 34 -11 0 12
7 13 35 7 37 -8 38 -3 7 33 -8 9 -11 17 -6 17 5 0 2 5 -6 10 -9 6 -10 10 -3
10 7 0 17 -8 22 -17 10 -17 10 -17 11 0 0 14 4 16 19 8 14 -8 22 -6 35 8 9 9
16 22 16 28 0 7 16 7 49 0 36 -7 48 -13 44 -23z m-1033 16 c0 -5 -2 -10 -4
-10 -3 0 -8 5 -11 10 -3 6 -1 10 4 10 6 0 11 -4 11 -10z m1210 0 c0 -5 -7 -10
-15 -10 -8 0 -15 5 -15 10 0 6 7 10 15 10 8 0 15 -4 15 -10z m-1280 -10 c0 -5
-4 -10 -9 -10 -6 0 -13 5 -16 10 -3 6 1 10 9 10 9 0 16 -4 16 -10z m-2852 -12
c-6 -18 -28 -21 -28 -4 0 9 7 16 16 16 9 0 14 -5 12 -12z m2747 3 c6 -11 -76
-26 -97 -18 -7 2 7 9 32 15 60 13 58 13 65 3z m35 -1 c0 -5 -4 -10 -10 -10 -5
0 -10 5 -10 10 0 6 5 10 10 10 6 0 10 -4 10 -10z m200 0 c0 -5 -5 -10 -11 -10
-5 0 -7 5 -4 10 3 6 8 10 11 10 2 0 4 -4 4 -10z m-2917 -40 c4 -18 -8 -27 -84
-65 -49 -25 -89 -43 -89 -41 0 3 36 24 80 47 44 22 80 45 80 51 0 5 -32 -8
-70 -28 -39 -20 -73 -35 -75 -32 -3 2 22 17 55 33 33 16 60 32 60 36 0 4 8 10
18 12 9 3 18 5 18 6 1 0 4 -8 7 -19z m3884 -17 c-3 -10 -5 -4 -5 12 0 17 2 24
5 18 2 -7 2 -21 0 -30z m-4079 -5 c-2 -7 4 -11 12 -9 41 10 52 10 28 0 -16 -6
-28 -15 -28 -20 0 -5 -4 -9 -10 -9 -5 0 -9 5 -7 12 1 6 -7 13 -18 15 -11 2
-16 1 -10 -4 25 -20 14 -33 -27 -32 -24 1 -33 4 -20 6 12 2 20 9 17 14 -4 5
-1 9 5 9 6 0 9 4 6 9 -7 10 9 19 37 20 9 1 16 -5 15 -11z m-78 -68 c0 -5 -7
-7 -15 -4 -8 4 -15 8 -15 10 0 2 7 4 15 4 8 0 15 -4 15 -10z m80 4 c0 -3 -25
-17 -55 -31 -55 -24 -105 -26 -105 -2 0 6 4 7 10 4 5 -3 19 -1 31 6 15 8 19 8
15 0 -9 -15 0 -14 37 3 27 12 46 19 65 25 1 1 2 -1 2 -5z m10 -29 c0 -9 -92
-46 -103 -41 -7 3 -6 5 3 6 8 0 33 9 55 20 45 22 45 22 45 15z m2750 -5 c0 -5
-4 -10 -10 -10 -5 0 -10 5 -10 10 0 6 5 10 10 10 6 0 10 -4 10 -10z m1040 -5
c0 -8 -7 -15 -15 -15 -8 0 -15 7 -15 15 0 8 7 15 15 15 8 0 15 -7 15 -15z
m-4140 -20 c-7 -8 -17 -12 -22 -9 -6 4 -5 10 3 15 22 14 33 10 19 -6z m4581
-43 c15 -29 32 -48 44 -50 11 -2 29 -7 40 -11 11 -5 32 -13 48 -20 15 -6 27
-15 27 -19 0 -15 -124 28 -142 49 -9 10 -21 19 -27 19 -6 0 -11 5 -11 10 0 6
-9 10 -19 10 -11 0 -27 10 -36 23 -8 12 -18 21 -20 20 -12 -7 -35 -2 -35 6 0
12 26 17 71 13 32 -3 39 -9 60 -50z m-4511 44 c0 -3 -4 -8 -10 -11 -5 -3 -10
-1 -10 4 0 6 5 11 10 11 6 0 10 -2 10 -4z m-115 -25 c-3 -6 -11 -8 -17 -5 -6
4 -5 9 3 15 16 10 23 4 14 -10z m12 -29 c-13 -14 -14 -21 -5 -30 8 -8 8 -15
-1 -26 -13 -15 -41 -11 -41 6 0 6 7 8 15 4 9 -3 15 0 15 9 0 8 -9 15 -19 15
-22 0 -37 17 -26 28 4 4 10 1 12 -5 6 -18 30 -16 37 2 3 8 11 15 17 15 8 0 6
-7 -4 -18z m-87 -2 c13 -8 13 -10 -2 -10 -9 0 -20 5 -23 10 -8 13 5 13 25 0z
m130 -32 c0 -17 -3 -19 -9 -9 -5 7 -15 17 -22 22 -10 6 -8 9 9 9 16 0 22 -6
22 -22z m90 7 c-7 -9 -15 -13 -19 -10 -3 3 1 10 9 15 21 14 24 12 10 -5z
m4239 -4 c11 -11 23 -36 27 -55 4 -26 11 -36 25 -36 25 0 33 -18 30 -61 -2
-33 1 -38 29 -48 18 -6 36 -8 41 -5 5 3 12 -1 14 -9 3 -7 21 -20 40 -27 19 -8
35 -16 35 -20 0 -3 9 -6 21 -7 26 -2 49 -21 60 -51 5 -13 16 -23 26 -21 35 3
37 -1 9 -16 -28 -15 -32 -14 -58 5 -31 23 -58 26 -57 8 1 -36 38 -153 48 -154
6 -1 19 -2 28 -3 26 -2 5 -16 -27 -17 -17 -1 -31 4 -34 13 -3 8 -11 11 -18 7
-7 -5 -9 -2 -6 7 3 8 -5 28 -18 44 l-23 29 -9 -24 c-8 -21 -5 -30 19 -53 16
-15 29 -33 29 -40 0 -15 -57 48 -76 86 -8 15 -10 27 -5 27 5 0 11 -8 14 -17 3
-13 6 -10 12 11 6 20 4 31 -3 34 -7 2 -12 9 -12 15 -1 37 -111 93 -164 84 -49
-8 -71 11 -63 52 4 18 2 41 -4 52 -7 13 -7 31 0 56 7 25 7 41 1 47 -20 20 -11
55 15 62 23 6 30 15 26 37 -2 12 8 8 28 -12z m-4483 -18 c-10 -10 -19 5 -10
18 6 11 8 11 12 0 2 -7 1 -15 -2 -18z m334 23 c0 -2 -8 -10 -17 -17 -16 -13
-17 -12 -4 4 13 16 21 21 21 13z m3900 -26 c0 -5 -4 -10 -10 -10 -5 0 -10 5
-10 10 0 6 5 10 10 10 6 0 10 -4 10 -10z m-3960 -4 c0 -2 -11 -11 -25 -20 -14
-9 -25 -13 -25 -8 0 5 10 14 23 20 27 13 27 13 27 8z m-290 -22 c0 -11 -5 -14
-16 -10 -9 3 -18 6 -20 6 -3 0 -2 5 1 10 10 16 35 12 35 -6z m184 -8 c-6 -16
-154 -110 -161 -102 -3 2 9 12 26 20 60 32 121 78 121 92 0 8 4 13 10 9 5 -3
7 -12 4 -19z m-182 -43 c-6 -2 -10 -9 -7 -13 3 -5 -14 -15 -37 -22 -46 -13
-71 -31 -60 -42 3 -4 -2 -4 -12 0 -14 5 -17 4 -12 -5 4 -6 4 -11 -1 -10 -4 1
-16 -1 -26 -6 -10 -4 -21 -5 -24 -1 -4 3 2 7 13 7 12 1 8 4 -11 10 l-30 8 30
-1 c46 0 51 1 35 13 -12 8 -10 9 9 4 15 -5 21 -4 17 3 -4 7 10 16 35 22 23 7
48 18 56 26 8 8 20 14 26 13 8 0 8 -2 -1 -6z m-197 -61 c-3 -3 -11 0 -18 7 -9
10 -8 11 6 5 10 -3 15 -9 12 -12z m198 -14 c-2 -5 -13 -13 -24 -18 -16 -9 -19
-7 -19 9 0 14 6 18 24 17 13 0 22 -4 19 -8z m-293 -37 c0 -6 -4 -13 -10 -16
-5 -3 -10 1 -10 9 0 9 5 16 10 16 6 0 10 -4 10 -9z m37 -16 c-4 -8 -11 -15
-17 -15 -14 0 -13 27 3 33 16 6 21 1 14 -18z m163 19 c0 -3 -7 -12 -15 -20 -8
-9 -15 -12 -15 -8 0 3 -6 2 -12 -4 -7 -6 -31 -13 -53 -16 -30 -4 -34 -3 -15 3
14 5 19 9 13 10 -7 1 -13 6 -13 11 0 6 18 10 39 10 22 0 43 5 46 10 7 11 25
14 25 4z m-262 -18 c-13 -14 -28 -12 -28 5 0 5 9 9 20 9 17 0 19 -2 8 -14z
m302 -17 c0 -11 -4 -18 -9 -15 -5 3 -11 -1 -15 -9 -3 -8 -10 -15 -16 -15 -18
0 19 59 38 60 1 0 2 -9 2 -21z m4950 -30 c0 -12 -31 -11 -50 2 -13 9 -12 10 2
5 10 -3 20 -1 23 5 7 11 25 3 25 -12z m-5017 -3 c3 -8 -1 -20 -9 -27 -12 -10
-14 -9 -9 7 4 13 2 12 -6 -3 -13 -26 -49 -31 -49 -8 0 8 15 21 33 29 17 8 33
15 33 15 1 1 4 -5 7 -13z m-93 -40 c0 -3 -4 -8 -10 -11 -5 -3 -10 -1 -10 4 0
6 5 11 10 11 6 0 10 -2 10 -4z m5156 -61 c6 -26 18 -32 29 -15 3 5 12 7 20 3
20 -7 19 -43 0 -43 -21 0 -20 -48 2 -72 19 -21 48 -24 40 -4 -6 16 12 26 46
26 16 0 18 3 9 9 -10 6 -4 10 18 15 38 7 50 1 50 -24 0 -14 -5 -17 -22 -12
-20 5 -21 4 -9 -11 7 -9 17 -14 22 -11 5 3 9 -3 9 -13 0 -15 -6 -18 -39 -15
-21 2 -42 -1 -45 -7 -4 -6 -29 -11 -56 -11 -56 0 -83 24 -94 85 -4 20 -10 33
-15 31 -4 -3 -8 17 -8 45 -1 41 2 49 18 49 12 0 21 -10 25 -25z m-5591 5 c-3
-5 -14 -10 -23 -10 -15 0 -15 2 -2 10 20 13 33 13 25 0z m5715 -90 c0 -5 -5
-10 -11 -10 -5 0 -7 5 -4 10 3 6 8 10 11 10 2 0 4 -4 4 -10z m-265 -70 c3 -5
-1 -10 -9 -10 -9 0 -16 5 -16 10 0 6 4 10 9 10 6 0 13 -4 16 -10z"/>
<path d="M5450 2249 c0 -5 11 -9 25 -9 14 0 25 2 25 4 0 2 -11 6 -25 8 -14 3
-25 1 -25 -3z"/>
<path d="M5520 2250 c-13 -8 -12 -10 3 -10 9 0 17 -5 17 -10 0 -6 6 -5 14 2
25 23 -3 38 -34 18z"/>
<path d="M5598 2243 c6 -2 18 -2 25 0 6 3 1 5 -13 5 -14 0 -19 -2 -12 -5z"/>
<path d="M5493 2223 c9 -2 23 -2 30 0 6 3 -1 5 -18 5 -16 0 -22 -2 -12 -5z"/>
<path d="M5493 2203 c9 -2 23 -2 30 0 6 3 -1 5 -18 5 -16 0 -22 -2 -12 -5z"/>
<path d="M4828 2093 c7 -3 16 -2 19 1 4 3 -2 6 -13 5 -11 0 -14 -3 -6 -6z"/>
<path d="M800 2000 c0 -5 7 -10 15 -10 8 0 15 5 15 10 0 6 -7 10 -15 10 -8 0
-15 -4 -15 -10z"/>
<path d="M1243 1909 c14 -8 22 -8 30 0 8 8 3 11 -18 11 -26 -1 -28 -2 -12 -11z"/>
<path d="M4605 1610 c3 -5 8 -10 11 -10 2 0 4 5 4 10 0 6 -5 10 -11 10 -5 0
-7 -4 -4 -10z"/>
<path d="M895 1510 c-3 -5 1 -10 9 -10 9 0 16 5 16 10 0 6 -4 10 -9 10 -6 0
-13 -4 -16 -10z"/>
<path d="M931 1505 c11 -10 99 -15 99 -5 0 5 -23 10 -52 10 -28 0 -49 -2 -47
-5z"/>
<path d="M1040 1500 c0 -5 5 -10 11 -10 5 0 7 5 4 10 -3 6 -8 10 -11 10 -2 0
-4 -4 -4 -10z"/>
<path d="M5724 1409 c-6 -11 22 -18 45 -12 12 3 21 9 21 14 0 11 -59 8 -66 -2z"/>
<path d="M5860 1340 c0 -5 7 -10 16 -10 8 0 12 5 9 10 -3 6 -10 10 -16 10 -5
0 -9 -4 -9 -10z"/>
<path d="M4792 1360 c0 -14 2 -19 5 -12 2 6 2 18 0 25 -3 6 -5 1 -5 -13z"/>
<path d="M4978 1343 c6 -2 18 -2 25 0 6 3 1 5 -13 5 -14 0 -19 -2 -12 -5z"/>
<path d="M4780 1197 c0 -48 4 -87 8 -87 10 0 9 156 0 166 -5 4 -8 -32 -8 -79z"/>
<path d="M4848 1243 c7 -3 16 -2 19 1 4 3 -2 6 -13 5 -11 0 -14 -3 -6 -6z"/>
<path d="M4822 1210 c0 -19 2 -27 5 -17 2 9 2 25 0 35 -3 9 -5 1 -5 -18z"/>
<path d="M4840 1205 c0 -8 7 -15 16 -15 14 0 14 3 4 15 -7 8 -14 15 -16 15 -2
0 -4 -7 -4 -15z"/>
<path d="M5116 835 c4 -8 8 -15 10 -15 2 0 4 7 4 15 0 8 -4 15 -10 15 -5 0 -7
-7 -4 -15z"/>
<path d="M5386 875 c4 -8 10 -12 15 -9 11 6 2 24 -11 24 -5 0 -7 -7 -4 -15z"/>
<path d="M5640 425 c0 -14 5 -25 10 -25 6 0 10 11 10 25 0 14 -4 25 -10 25 -5
0 -10 -11 -10 -25z"/>
<path d="M5363 2808 c4 -12 -2 -20 -21 -27 -24 -8 -24 -10 -5 -10 12 -1 23 -7
26 -13 2 -7 6 -1 9 14 3 15 1 33 -4 40 -8 10 -9 9 -5 -4z"/>
<path d="M5271 2784 c0 -11 3 -14 6 -6 3 7 2 16 -1 19 -3 4 -6 -2 -5 -13z"/>
<path d="M1992 2640 c-3 -123 -11 -160 -33 -160 -16 0 -19 -8 -19 -44 0 -45
13 -68 24 -44 3 7 3 0 0 -17 -7 -39 -7 -39 -48 -31 l-35 7 1 55 c1 39 -3 59
-15 72 -11 10 -17 12 -17 4 0 -7 -7 -12 -16 -12 -13 0 -14 -8 -8 -47 4 -27 7
-52 6 -58 -3 -19 -4 -60 -3 -78 1 -14 6 -17 24 -11 12 4 33 8 46 8 14 1 27 9
32 21 7 19 8 19 8 -2 1 -15 7 -23 19 -23 9 0 28 -3 41 -7 17 -4 22 -3 17 5 -4
7 -3 12 3 12 6 0 9 6 6 13 -9 27 -18 130 -25 272 -5 115 -7 130 -8 65z"/>
<path d="M2698 2681 c-10 -12 -15 -36 -14 -71 1 -43 5 -54 21 -60 18 -7 21 -4
23 21 1 16 -3 39 -9 51 -8 14 -8 18 0 14 7 -5 11 4 11 23 0 37 -12 45 -32 22z"/>
<path d="M1870 2646 c0 -9 4 -16 9 -16 5 0 12 -10 14 -22 4 -21 4 -20 6 3 0
15 -6 32 -14 39 -12 10 -15 10 -15 -4z"/>
<path d="M2901 2573 c0 -10 4 -36 8 -58 9 -40 9 -39 10 18 0 32 -3 57 -9 57
-5 0 -10 -8 -9 -17z"/>
<path d="M4152 2582 c-18 -3 -22 -8 -17 -20 4 -9 10 -25 12 -34 8 -29 20 -21
28 18 7 41 8 41 -23 36z"/>
<path d="M1818 2562 c-11 -14 -11 -15 5 -9 10 4 25 7 33 7 21 0 17 16 -5 17
-11 1 -26 -6 -33 -15z"/>
<path d="M5265 2570 c-3 -5 -1 -10 4 -10 6 0 11 5 11 10 0 6 -2 10 -4 10 -3 0
-8 -4 -11 -10z"/>
<path d="M5544 2568 c-6 -9 -1 -10 89 -13 45 -1 66 2 64 9 -4 13 -145 17 -153
4z"/>
<path d="M4216 2563 c-11 -11 -6 -21 14 -26 12 -3 20 0 20 8 0 14 -25 27 -34
18z"/>
<path d="M2568 2543 c7 -11 6 -23 -2 -36 -8 -15 -8 -21 2 -24 6 -3 10 -9 7
-13 -9 -15 33 -50 55 -47 10 2 27 10 37 19 10 8 25 18 33 21 12 4 12 6 -2 6
-9 1 -18 11 -20 24 -2 14 -11 23 -27 25 -13 2 -26 12 -28 23 -4 13 -14 19 -35
19 -24 0 -27 -3 -20 -17z"/>
<path d="M5508 2553 c7 -3 16 -2 19 1 4 3 -2 6 -13 5 -11 0 -14 -3 -6 -6z"/>
<path d="M3720 2510 c-21 -13 -7 -22 25 -14 20 5 23 9 13 15 -16 11 -20 11
-38 -1z"/>
<path d="M4020 2509 c0 -6 -6 -9 -14 -6 -10 4 -14 0 -13 -13 1 -10 5 -16 9
-14 4 3 8 0 8 -5 0 -16 -26 -13 -40 4 -14 17 -30 20 -30 5 0 -5 7 -10 16 -10
8 0 13 -4 10 -9 -6 -9 40 -22 49 -13 3 3 5 14 5 25 0 13 5 17 15 13 8 -3 23
-9 33 -12 14 -5 15 -4 2 5 -8 6 -11 11 -6 11 5 0 3 7 -4 15 -15 17 -40 20 -40
4z"/>
<path d="M4108 2513 c7 -3 16 -2 19 1 4 3 -2 6 -13 5 -11 0 -14 -3 -6 -6z"/>
<path d="M4200 2509 c0 -5 9 -9 20 -9 11 0 20 2 20 4 0 2 -9 6 -20 9 -11 3
-20 1 -20 -4z"/>
<path d="M2374 2385 c0 -71 1 -99 3 -62 2 37 2 96 0 130 -2 34 -3 4 -3 -68z"/>
<path d="M3795 2500 c-3 -5 1 -10 10 -10 9 0 13 5 10 10 -3 6 -8 10 -10 10 -2
0 -7 -4 -10 -10z"/>
<path d="M4360 2500 c0 -5 5 -10 10 -10 6 0 10 5 10 10 0 6 -4 10 -10 10 -5 0
-10 -4 -10 -10z"/>
<path d="M4390 2501 c0 -4 17 -13 38 -21 20 -8 41 -17 46 -19 5 -2 6 1 2 8 -5
7 -1 9 8 5 9 -3 16 -1 16 5 0 6 -10 13 -22 16 -48 10 -88 13 -88 6z"/>
<path d="M4609 2490 c25 -22 46 -26 56 -10 7 11 -1 15 -50 24 l-30 6 24 -20z"/>
<path d="M4803 2496 c3 -7 0 -19 -6 -25 -18 -18 1 -13 23 6 14 13 16 19 7 25
-19 12 -30 9 -24 -6z"/>
<path d="M4850 2500 c0 -6 19 -7 48 -3 64 8 66 13 4 13 -29 0 -52 -4 -52 -10z"/>
<path d="M4975 2500 c4 -6 11 -8 16 -5 14 9 11 15 -7 15 -8 0 -12 -5 -9 -10z"/>
<path d="M2813 2490 c-30 -12 -29 -15 5 -16 18 -1 29 4 29 13 0 15 -3 15 -34
3z"/>
<path d="M3210 2489 c0 -4 6 -10 13 -12 6 -3 -8 -4 -33 -2 -25 2 -36 1 -25 -2
l20 -6 -20 -8 c-13 -6 -5 -7 26 -4 25 3 65 2 88 -4 29 -6 43 -6 48 3 16 24 11
36 -15 37 -15 0 -44 1 -64 3 -21 2 -38 -1 -38 -5z"/>
<path d="M2061 2449 c3 -58 9 -75 20 -58 4 7 3 23 -2 36 -4 12 -6 29 -3 37 3
8 0 17 -6 21 -8 5 -11 -5 -9 -36z"/>
<path d="M2223 2483 c-14 -3 -20 -9 -16 -19 3 -8 -1 -14 -8 -14 -9 0 -10 -3
-3 -10 14 -14 64 11 64 33 0 9 -3 16 -7 16 -5 -1 -18 -4 -30 -6z"/>
<path d="M2751 2474 c0 -11 3 -14 6 -6 3 7 2 16 -1 19 -3 4 -6 -2 -5 -13z"/>
<path d="M2878 2483 c7 -3 16 -2 19 1 4 3 -2 6 -13 5 -11 0 -14 -3 -6 -6z"/>
<path d="M4127 2468 c-7 -23 5 -49 20 -44 8 3 20 6 26 7 7 1 1 5 -13 9 -25 8
-25 8 -2 9 21 1 22 3 8 16 -18 18 -33 19 -39 3z"/>
<path d="M4680 2469 c0 -5 5 -7 10 -4 6 3 10 8 10 11 0 2 -4 4 -10 4 -5 0 -10
-5 -10 -11z"/>
<path d="M5015 2470 c-3 -5 1 -10 9 -10 9 0 16 5 16 10 0 6 -4 10 -9 10 -6 0
-13 -4 -16 -10z"/>
<path d="M2499 2457 c-8 -67 -4 -168 6 -177 14 -12 68 -3 60 10 -3 5 4 6 15 3
11 -3 20 -9 20 -13 0 -4 9 -10 20 -13 25 -6 44 16 35 43 -7 22 -35 26 -65 10
-16 -8 -18 -7 -14 4 3 8 12 17 20 20 21 8 17 26 -7 26 -11 0 -18 -4 -14 -9 3
-5 1 -12 -5 -16 -5 -3 -10 1 -10 11 0 12 -6 15 -25 12 -24 -5 -25 -3 -25 38 0
32 4 43 18 46 14 3 13 5 -5 10 -14 4 -24 2 -24 -5z"/>
<path d="M3780 2460 c0 -5 4 -10 9 -10 6 0 13 5 16 10 3 6 -1 10 -9 10 -9 0
-16 -4 -16 -10z"/>
<path d="M3693 2450 c-13 -5 -23 -16 -23 -23 0 -11 9 -13 43 -6 23 4 49 8 57
9 11 0 10 4 -4 12 -15 8 -21 8 -24 0 -2 -7 -11 -12 -19 -12 -9 0 -13 6 -9 15
3 8 4 15 3 14 -1 0 -12 -4 -24 -9z"/>
<path d="M4353 2443 c-19 -19 -23 -20 -23 -7 0 13 -7 15 -31 10 -17 -3 -38 -6
-46 -6 -12 0 -12 -2 -1 -13 7 -7 21 -16 31 -20 9 -3 17 -14 17 -24 0 -15 2
-16 10 -3 9 13 10 13 10 0 0 -12 2 -12 9 -2 6 10 10 9 14 -7 3 -12 2 -21 -3
-21 -4 0 -8 -10 -9 -22 0 -13 -2 -38 -4 -56 -4 -37 6 -45 63 -56 l35 -6 1 44
c1 41 0 44 -22 40 -13 -2 -24 0 -24 6 0 6 4 9 9 6 15 -9 38 18 45 52 4 26 2
32 -11 32 -13 0 -14 3 -5 12 18 18 14 35 -9 41 -17 5 -20 2 -15 -21 3 -15 2
-45 -3 -67 l-7 -40 -7 38 c-5 20 -13 37 -19 37 -7 0 -4 6 6 13 11 8 17 23 14
38 l-3 24 -22 -22z"/>
<path d="M2690 2440 c0 -5 14 -10 31 -10 17 0 28 4 24 10 -3 6 -17 10 -31 10
-13 0 -24 -4 -24 -10z"/>
<path d="M3508 2443 c7 -3 16 -2 19 1 4 3 -2 6 -13 5 -11 0 -14 -3 -6 -6z"/>
<path d="M3540 2425 c0 -19 -4 -26 -14 -22 -8 3 -17 -1 -20 -10 -5 -11 -2 -14
10 -9 9 4 27 0 39 -8 12 -8 32 -12 44 -9 20 5 20 6 4 19 -11 8 -13 13 -5 14 6
0 12 7 12 15 0 10 10 15 27 15 20 0 24 3 16 11 -15 15 -78 -8 -92 -35 -10 -19
-11 -19 -6 6 3 15 1 30 -5 33 -6 4 -10 -5 -10 -20z"/>
<path d="M2148 2433 c7 -3 16 -2 19 1 4 3 -2 6 -13 5 -11 0 -14 -3 -6 -6z"/>
<path d="M3128 2433 c6 -2 12 -14 12 -25 0 -12 3 -18 7 -15 3 4 12 2 20 -4 10
-9 13 -7 13 10 0 11 -6 22 -12 22 -7 1 3 5 22 9 31 7 29 7 -20 8 -30 0 -49 -2
-42 -5z"/>
<path d="M3255 2418 c2 -17 7 -22 21 -20 26 5 27 7 9 26 -23 22 -32 20 -30 -6z"/>
<path d="M3808 2433 c6 -2 18 -2 25 0 6 3 1 5 -13 5 -14 0 -19 -2 -12 -5z"/>
<path d="M3868 2433 c7 -3 16 -2 19 1 4 3 -2 6 -13 5 -11 0 -14 -3 -6 -6z"/>
<path d="M1900 2422 c0 -6 6 -13 13 -15 7 -3 5 -6 -5 -6 -10 -1 -18 -8 -18
-16 0 -13 3 -13 20 -3 24 15 25 22 5 38 -9 8 -15 8 -15 2z"/>
<path d="M3347 2414 c5 -13 18 -15 125 -18 14 -1 24 6 26 17 2 10 -3 17 -12
17 -10 0 -13 -6 -9 -17 6 -16 5 -16 -10 -5 -9 8 -41 15 -71 17 -44 3 -54 1
-49 -11z"/>
<path d="M2188 2413 c6 -2 18 -2 25 0 6 3 1 5 -13 5 -14 0 -19 -2 -12 -5z"/>
<path d="M2690 2400 l-35 -6 40 -5 c22 -3 42 -2 45 2 8 12 33 -7 26 -20 -5 -7
1 -11 13 -11 12 0 21 7 21 15 0 8 -5 15 -11 15 -5 0 -8 3 -6 8 6 8 -43 9 -93
2z"/>
<path d="M3650 2390 c-12 -8 -10 -10 8 -10 13 0 20 4 17 10 -7 12 -6 12 -25 0z"/>
<path d="M5030 2388 c0 -7 5 -20 10 -28 8 -12 10 -11 10 7 0 12 -4 25 -10 28
-5 3 -10 0 -10 -7z"/>
<path d="M2666 2355 c-3 -9 1 -18 10 -22 21 -8 25 -1 9 20 -11 15 -13 16 -19
2z"/>
<path d="M2716 2348 c3 -4 14 -8 25 -8 11 0 18 4 14 9 -3 6 -14 9 -25 8 -10
-1 -16 -5 -14 -9z"/>
<path d="M2780 2340 c0 -5 9 -10 21 -10 11 0 17 5 14 10 -3 6 -13 10 -21 10
-8 0 -14 -4 -14 -10z"/>
<path d="M3486 2315 c4 -8 8 -15 10 -15 2 0 4 7 4 15 0 8 -4 15 -10 15 -5 0
-7 -7 -4 -15z"/>
<path d="M3357 2290 c-3 -12 0 -20 8 -20 8 0 11 8 8 20 -3 11 -7 20 -8 20 -1
0 -5 -9 -8 -20z"/>
<path d="M2900 2260 c0 -5 7 -7 15 -4 8 4 15 8 15 10 0 2 -7 4 -15 4 -8 0 -15
-4 -15 -10z"/>
<path d="M2410 2252 c0 -4 8 -8 18 -9 9 0 32 -4 50 -8 26 -6 32 -4 32 9 0 13
-11 16 -50 16 -27 0 -50 -4 -50 -8z"/>
<path d="M3252 2220 c0 -14 2 -19 5 -12 2 6 2 18 0 25 -3 6 -5 1 -5 -13z"/>
<path d="M3144 2155 c-9 -23 15 -48 32 -34 19 15 18 22 -6 37 -17 10 -21 10
-26 -3z"/>
<path d="M1433 2153 c9 -2 23 -2 30 0 6 3 -1 5 -18 5 -16 0 -22 -2 -12 -5z"/>
<path d="M3241 2148 c-1 -9 -9 -24 -18 -34 -17 -17 -16 -17 15 -11 18 4 32 2
32 -3 0 -6 -4 -10 -8 -10 -4 0 -13 -15 -20 -32 -11 -30 -62 -68 -62 -47 0 5 7
12 15 15 10 4 13 13 9 26 -4 14 -2 18 5 14 6 -4 11 -3 11 3 0 5 -4 13 -10 16
-5 3 -10 1 -10 -5 0 -8 -10 -9 -31 -5 -29 7 -30 6 -17 -15 10 -18 10 -24 1
-27 -7 -3 -13 -11 -13 -18 0 -7 6 -16 13 -18 6 -3 3 -6 -8 -6 -17 -1 -17 -3
-5 -11 13 -9 13 -10 0 -11 -8 -1 -22 -3 -30 -4 -8 -1 -21 -3 -28 -4 -25 -2 9
-26 42 -28 23 -2 27 0 16 7 -13 8 -12 10 3 10 9 0 17 -6 17 -12 0 -9 4 -8 10
2 9 13 10 13 10 0 0 -13 1 -13 10 0 6 10 10 11 10 3 0 -8 14 -13 35 -13 21 0
35 5 35 13 0 9 2 9 8 0 4 -6 37 -13 75 -15 58 -3 67 -1 67 14 0 15 -8 17 -61
12 -51 -5 -63 -3 -74 13 -9 12 -10 22 -3 30 14 17 4 99 -14 121 -9 9 -18 24
-21 32 -4 12 -6 12 -6 -2z m-51 -92 c0 -3 -4 -8 -10 -11 -5 -3 -10 -1 -10 4 0
6 5 11 10 11 6 0 10 -2 10 -4z m50 -56 c0 -5 -6 -10 -14 -10 -8 0 -18 5 -21
10 -3 6 3 10 14 10 12 0 21 -4 21 -10z m17 -46 c-3 -3 -12 -4 -19 -1 -8 3 -5
6 6 6 11 1 17 -2 13 -5z"/>
<path d="M5930 2150 c0 -5 6 -10 14 -10 8 0 18 5 21 10 3 6 -3 10 -14 10 -12
0 -21 -4 -21 -10z"/>
<path d="M5981 2134 c0 -11 3 -14 6 -6 3 7 2 16 -1 19 -3 4 -6 -2 -5 -13z"/>
<path d="M3503 2120 c3 -11 1 -23 -4 -26 -5 -3 -9 -14 -9 -26 0 -16 -5 -19
-21 -15 -19 5 -21 3 -15 -25 3 -17 6 -40 7 -52 0 -12 5 -5 13 19 15 51 27 51
42 0 l11 -40 6 42 c8 45 -10 143 -26 143 -5 0 -7 -9 -4 -20z"/>
<path d="M1408 2123 c6 -2 18 -2 25 0 6 3 1 5 -13 5 -14 0 -19 -2 -12 -5z"/>
<path d="M4456 2105 c4 -8 8 -15 10 -15 2 0 4 7 4 15 0 8 -4 15 -10 15 -5 0
-7 -7 -4 -15z"/>
<path d="M4481 2104 c0 -11 3 -14 6 -6 3 7 2 16 -1 19 -3 4 -6 -2 -5 -13z"/>
<path d="M4516 2075 c4 -8 8 -15 10 -15 2 0 4 7 4 15 0 8 -4 15 -10 15 -5 0
-7 -7 -4 -15z"/>
<path d="M4420 2060 c0 -6 4 -9 9 -6 5 4 12 1 14 -4 3 -6 4 -5 3 2 -3 15 -26
23 -26 8z"/>
<path d="M4481 2034 c0 -11 3 -14 6 -6 3 7 2 16 -1 19 -3 4 -6 -2 -5 -13z"/>
<path d="M3366 1843 c-6 -14 -9 -15 -16 -4 -10 17 -40 7 -40 -14 0 -23 47 -19
60 6 7 11 10 23 7 25 -2 3 -8 -3 -11 -13z"/>
<path d="M2541 1806 c-18 -19 -21 -31 -16 -58 5 -28 11 -34 33 -36 19 -1 23 1
13 7 -10 6 -11 13 -2 29 13 24 15 82 3 82 -5 0 -19 -11 -31 -24z"/>
<path d="M3451 1814 c0 -11 3 -14 6 -6 3 7 2 16 -1 19 -3 4 -6 -2 -5 -13z"/>
<path d="M2482 1760 c-14 -23 -16 -90 -2 -90 15 0 30 36 30 74 0 40 -9 46 -28
16z"/>
<path d="M2438 1729 c-25 -14 -25 -79 0 -79 15 0 19 9 21 45 1 25 1 45 -1 45
-2 0 -11 -5 -20 -11z"/>
<path d="M2345 1700 c-3 -6 1 -7 9 -4 18 7 21 14 7 14 -6 0 -13 -4 -16 -10z"/>
<path d="M2576 1555 c-4 -12 4 -15 42 -14 26 1 39 3 30 6 -10 2 -18 9 -18 14
0 15 -47 10 -54 -6z"/>
</g>
</svg>
